<svg xmlns="http://www.w3.org/2000/svg" width="915.97" height="766.62" viewBox="0 0 915.97 766.62"><polygon points="0 766.62 457.99 0 915.97 766.62 0 766.62"/><path d="M554.66,265.09l260,435.14H294.7l260-435.14m0-23.32-281,470.42H835.69l-281-470.42Z" transform="translate(-96.67 -33.63)" fill="#fff"/><path d="M554.66,371.69,683.83,587.92H425.48L554.66,371.69m0-11.58L415,593.86H694.3L554.66,360.11Z" transform="translate(-96.67 -33.63)" fill="#fff"/><path d="M375.21,594.72c23.53-18.47,55.92-32.81,81.35-46.1s43.06-21,60.63-51.49S588,462.72,588,462.72s14.87.47,25-14.1,11.12-18.1,26.29-24.6c0,0-2.24-23.07,6.64-26.45s11.88-2.14,21,.49c5.53,1.59,20.3,8,28.5,2.56s-2.72-2.74,11.77-9.92c1.1-.54,22.54-6.74,22.54-6.74s4.12-8.17,11-8.83,13.49,4.55,13.49,4.55l24.85-5.51s11.2-2.82,21.56.9,10.48,6,13.63,4.14,7-6.52,8.09-10.48,8.36-10.61,16-11,12.95,4.14,13.62,6.87a38.7,38.7,0,0,0,2.3,6.69c.54,1.1,11,5.78,9.9,14.5s-11.25,17.84-11.25,17.84,7.74,10.12,8,15.44-9.8-7.4-16.36-4.15-9.5,22.76-.4,34.93,13,1.41,13,1.41,1.66-8.31,2.77-12.27,4.9,3,5.43,6.84a29.35,29.35,0,0,1,.11,7.1s9.93,10.41,11.28,13.14,5.85,6.3,1.47,10.51-5.2,2.57-13.67,6.77-14.36,8.82-19.28,9.21-13.49-4.55-16.09-.87.21,15.55-6,21.67-21.45,8.93-32.54,20.21-15.51,23-14.6,37.88-4.46,24.69-4.32,24.28,10.55,72.43,10.55,72.43,5,11.48,12.09,15.46L803.8,696,337,691Z" transform="translate(-96.67 -33.63)" fill="#8bd5d8" stroke="#000" stroke-linecap="round" stroke-linejoin="round" stroke-width="3.5"/><path d="M726.26,410.55s2.18,3,15,1.42,18.18-9.35,23.24-13.56,7-1.07,11.33-.51a10.58,10.58,0,0,0,3,0c2.65-.44,6.28-1.28,7-6,1-6.28-11.42-10-11.42-10s3.4,1.38,2.17,3-5.45-1.38-10.78-.44,2.05.69,2,2.05-7.78-.57-12.83.91.41.82,1.77,2.19-5,.8-9.84,2.83,5.18.84,6.41,1.93-3.29,3-3.29,3" transform="translate(-96.67 -33.63)" fill="none" stroke="#000" stroke-miterlimit="10" stroke-width="1.63"/><path d="M751.1,409.14a30.47,30.47,0,0,0,12.68,3.59c12.55.59,16.81-8,12.06-14.83" transform="translate(-96.67 -33.63)" fill="none" stroke="#000" stroke-miterlimit="10" stroke-width="1.22"/><path d="M760.4,405.22c2.3,4.64,6.94,4,9.81,2.62s5.47-4.07,2.76-9.54c-1.42-2.87-7.62-1.54-9.28,1.2C761.47,403.15,759.31,403,760.4,405.22Z" transform="translate(-96.67 -33.63)" fill="#e4f6f9" stroke="#000" stroke-miterlimit="10" stroke-width="1.63"/><circle cx="673.7" cy="366.31" r="2.44"/><path d="M831.69,380.14c1.74-.46,4.85-.26,5.62-1.59S836,373.5,834,370.92s-3.11-6.29,1-8.08,6,12,6,12,1.12,5.14-3.93,6.46S828.54,381,831.69,380.14Z" transform="translate(-96.67 -33.63)"/><path d="M848.85,370.21s1-7.13-1.4-7.61S848.85,370.21,848.85,370.21Z" transform="translate(-96.67 -33.63)"/><path d="M682.74,441.84a21,21,0,0,0-3.11-8.19c-2.84-4.77-6.17-4.31-8.91-9.84s-6.35-5.63-8.15-9.73-10.62-9-10.62-9-3.51-3.25-5.61-1.74-3,8.37-3,8.37" transform="translate(-96.67 -33.63)" fill="#8bd5d8" stroke="#000" stroke-linecap="round" stroke-linejoin="round" stroke-width="3.25"/><path d="M784.12,404.43s1.21,6.28-2.61,10.08a29.82,29.82,0,0,1-8.77,5.77s2.76.29,3.52-.08-5.91,3.88-9.24,3.86" transform="translate(-96.67 -33.63)" fill="none" stroke="#000" stroke-miterlimit="10" stroke-width="1.22"/><path d="M815.71,378.56c-.57.29-5.63,4.46-14.86,3.57s-11.15,4.33-12.1,4.81" transform="translate(-96.67 -33.63)" fill="none" stroke="#000" stroke-miterlimit="10" stroke-width="1.63"/><path d="M777.45,433.62s-11.48,15.66-14.85,28c0,0,5.94-12.92,11.86-18.22a90,90,0,0,0-6.64,21.1c5-8.64,4.43-13.12,8.82-18.62" transform="translate(-96.67 -33.63)" fill="none" stroke="#000" stroke-miterlimit="10" stroke-width="1.22"/><path d="M789.09,449.93c-.47.47-8.23,13.58-8.82,20.05,4-5.79,3.46-10.27,12.05-17.85,0,0-5.39,16.44-5.12,22.72,6.13-13,3.1-15.31,10.36-23.18" transform="translate(-96.67 -33.63)" fill="none" stroke="#000" stroke-miterlimit="10" stroke-width="1.22"/><path d="M678.71,468.88s-1,23.51,5.32,33.65-3.51-7.73,3.34-14.28c0,0,3.23,16.7,14.06,26.48" transform="translate(-96.67 -33.63)" fill="#8bd5d8" stroke="#000" stroke-linecap="round" stroke-linejoin="round" stroke-width="3.25"/><path d="M639.3,424s-.9,6.15,2.12,9.07,1.49,6.83,3.38,9.37-.14,4.8,3.13,7.6.37,4.55,3,6.08-.14,3.54,3.9,5.32,8.33,2.18,14,1.57" transform="translate(-96.67 -33.63)" fill="#8bd5d8" stroke="#000" stroke-linecap="round" stroke-linejoin="round" stroke-width="3.25"/><path d="M842,395.25" transform="translate(-96.67 -33.63)" fill="none" stroke="#000" stroke-miterlimit="10" stroke-width="1.22"/><path d="M836.37,399.91s-23.81,11.8-26.9,24.68A73.76,73.76,0,0,0,807.23,438c-.21,5.17.9,8.87,3.93,11.62,5.16,4.7,14.25,8.4,14.25,8.4a23.84,23.84,0,0,0,7.33,1.41c4.17.14,7.94,6.48,11.1,6.49s14.55-1.21,16.83-3.61,2.17-7.07-6.17-6.72-14-11.05-15.37-15.1-1.62-22.77,6.1-26.08,1.86-7.52,1.86-7.52Z" transform="translate(-96.67 -33.63)" fill="#23859b" stroke="#000" stroke-miterlimit="10" stroke-width="1.63"/><path d="M835.31,448.7S819.71,435,811.17,440c-11.08,6.51,14.24,18,14.24,18l9.73,1.17,3.2-8.84Z" transform="translate(-96.67 -33.63)" fill="#194c54"/><path d="M806.43,461.75" transform="translate(-96.67 -33.63)" fill="none" stroke="#000" stroke-miterlimit="10" stroke-width="1.22"/><path d="M838.42,430.06c-1.63-1.31-8.25-16.13-21.25-9.24-14,7.42-2-5.91-2-5.91a66.8,66.8,0,0,1,13-10.17c8.2-5,13.53-7.72,13.53-7.72s8.94,3.17,12.72,8.42,7.36,14.82,7.36,14.82-1.86,3.48-6.55-1.68l-5.91-6.19L845.61,409s-7.74,4-7.38,3.91.7,3.87,3.34,8.82c1.78,3.33,1.28,4.23,1.42,4.91C843.34,428.39,843.93,434.48,838.42,430.06Z" transform="translate(-96.67 -33.63)" fill="#e4f6f9" stroke="#000" stroke-miterlimit="10" stroke-width="1.63"/><path d="M864.73,458.42a39.85,39.85,0,0,0,.92-10.87c-.48-4.81-4.48-11.13-5.77-8.55a28.82,28.82,0,0,0-2.2,9.66c-.26,3.28-.52,4.67-3.18,6.94a20,20,0,0,1-5.32,3.27s-3.42,2-5.17-4.07-5.39-12.78-6.41-10.39-4.73,13.39-2.46,14.79,5.05,1.91,6.69,3.94,3.27,4.06,8.46,2.43S861.8,464.6,864.73,458.42Z" transform="translate(-96.67 -33.63)" fill="#e4f6f9" stroke="#000" stroke-miterlimit="10" stroke-width="1.63"/><path d="M847.78,388.13s-1.86,5.52-9.86,11" transform="translate(-96.67 -33.63)" fill="#e4f6f9" stroke="#000" stroke-miterlimit="10" stroke-width="1.63"/><path d="M715.55,506.78s-2.69,9,7.47,28.47c-15.3-14.38-18.29-35.88-18.29-35.88" transform="translate(-96.67 -33.63)" fill="#8bd5d8" stroke="#000" stroke-linecap="round" stroke-linejoin="round" stroke-width="3.25"/><path d="M709.32,531.31s25.07,31,25.58,58.84.06,39.29,1.18,69.38" transform="translate(-96.67 -33.63)" fill="#8bd5d8" stroke="#000" stroke-linecap="round" stroke-linejoin="round" stroke-width="3.25"/><path d="M569,620.25s42.48,25.94,44.41,56.65" transform="translate(-96.67 -33.63)" fill="#8bd5d8" stroke="#000" stroke-linecap="round" stroke-linejoin="round" stroke-width="3.25"/><line x1="432.76" y1="552.1" x2="451.15" y2="558.31" fill="#8bd5d8" stroke="#000" stroke-linecap="round" stroke-linejoin="round" stroke-width="3.25"/><line x1="443.34" y1="569.33" x2="464.59" y2="579.23" fill="#8bd5d8" stroke="#000" stroke-linecap="round" stroke-linejoin="round" stroke-width="3.25"/><path d="M293.08,628.27" transform="translate(-96.67 -33.63)" fill="none" stroke="#000" stroke-miterlimit="10" stroke-width="1.22"/><path d="M371.14,593.57" transform="translate(-96.67 -33.63)" fill="#8bd5d8" stroke="#000" stroke-linecap="round" stroke-linejoin="round" stroke-width="3.5"/><path d="M727.32,666.5c-7.28.27-26.85-9.31-40.51-14.68s-27.41-12.05-37.23-23.72-17-28.67-45.86-54.48-32.08-30.11-45.37-40.12a4,4,0,0,1-2.52-.93c-1.6-1.12-3.71-3.59-5.61-9-3.68-10.47-14.53-41-23.52-54.14s-23.82-48.18-94.15-49.67c-10.49-1.07-16.45-1.37-20.66-9.82s-9.54-30.57-20-35.08-17.58-6.84-37-3.41-50.6,16.71-56.18,18.24-13.29,2.93-16.1,15.11c0,0-.59,5.45-3.84,6.31a36.44,36.44,0,0,0-17.34,10c-7.08,7.17-8.13,9.48-16.83,9.75s-21.79-2.36-26.06,18.5,12.52,34,12.52,34,6.33,2.12,7.14,2.33c-2.34,7.14-2.63,13.1,4.08,17.05s21.34,5.69,28,14.78,6.9,11.33,15.46,13.18S307,535.06,307,535.06l6.74,2.23s-1.58,4.32,2.47,10.15c-1,7.06-.35,9.39.78,14.87s3,9.85,2,15.19-2.68,16.53,3.76,24.72,1.48,22,1.48,22-1.1,12.21.78,21.33,5.83,21.83,5.83,21.83L310,693.7H797.48S739.38,666.05,727.32,666.5Z" transform="translate(-96.67 -33.63)" fill="#fff" stroke="#000" stroke-miterlimit="10" stroke-width="4.37"/><path d="M313.2,427.94a9.12,9.12,0,0,1-2.64-.39,8.89,8.89,0,0,1-5.88-4.88,5.35,5.35,0,0,1,.61-4.87c3.16-5,4.9-6,7-6a17.21,17.21,0,0,1,4.14.73c4.42,1.18,6.34,2.88,6.42,5.67a9.17,9.17,0,0,1-2.67,6.69,9.84,9.84,0,0,1-7,3Z" transform="translate(-96.67 -33.63)" fill="#fff"/><path d="M312.32,413a16.15,16.15,0,0,1,3.84.7c4.8,1.28,5.51,2.95,5.55,4.57a8,8,0,0,1-2.34,5.85,8.67,8.67,0,0,1-6.17,2.66,7.81,7.81,0,0,1-2.3-.34,7.68,7.68,0,0,1-5.13-4.17,4.15,4.15,0,0,1,.51-3.84c3.15-5,4.6-5.43,6-5.43m0-2.33c-2.85,0-4.91,1.57-8,6.52s.48,9.84,5.92,11.48a10.35,10.35,0,0,0,3,.44A10.86,10.86,0,0,0,324,418.2c-.1-3.63-2.75-5.55-7.28-6.76a17.83,17.83,0,0,0-4.44-.78Z" transform="translate(-96.67 -33.63)"/><path d="M270.86,438l21.26-8.57c3.06-1.77,7.92,3.51,10.56-7.25,3.3-13.49,14.08-10.76,14.08-10.76s15.71,5.77,19.35,3.43c0,0,3.7-2,.19-9.87" transform="translate(-96.67 -33.63)" fill="#fff" stroke="#000" stroke-linecap="round" stroke-linejoin="round" stroke-width="2.33"/><path d="M307.62,413.89a5.84,5.84,0,0,0,11.28,3c.83-3.12-.68-4.93-3.79-5.76S308.45,410.78,307.62,413.89Z" transform="translate(-96.67 -33.63)" fill="#e4f6f9" stroke="#000" stroke-miterlimit="10" stroke-width="1.48"/><path d="M304.9,363.21c-66.84-46.29-63.69-95.68-63.69-95.68S235.78,316.21,260,353.3c0,0,15,21.58,33.9,39.25l37.28-13.64Z" transform="translate(-96.67 -33.63)" fill="#e4f6f9" stroke="#000" stroke-linecap="round" stroke-miterlimit="10" stroke-width="2.33"/><path d="M289.65,399.9c-1.21-.32-.14,15.06-3.3,17.23" transform="translate(-96.67 -33.63)" fill="#fff" stroke="#000" stroke-miterlimit="10" stroke-width="2.33"/><path d="M381.39,414.86s-2.95,7.84,6.55,7.79,27.95-1.32,47.23,7.26c0,0-11.82,34.09-41.15,29.29s-15.23-13.55-29.24-9.52" transform="translate(-96.67 -33.63)" fill="#fff" stroke="#000" stroke-miterlimit="10" stroke-width="2.33"/><path d="M428.24,433.06s-35.67-6.66-55.84,8.2" transform="translate(-96.67 -33.63)" fill="#fff" stroke="#000" stroke-miterlimit="10" stroke-width="2.33"/><path d="M373.66,379.17s21.71,1,22.57,23.69" transform="translate(-96.67 -33.63)" fill="none" stroke="#000" stroke-miterlimit="10" stroke-width="1.11"/><path d="M224.48,443.77c-7.61,2-12.51,4.86-19.89,11.52-6.78,6.12-14.52,23.73,2.4,28.24,25.64,6.83,39.47-36.49,39.47-36.49a11.13,11.13,0,0,0-9.18-1.15c-5.18,1.64-6,20.83-20.18,23.94s-1.82-12.56-1.82-12.56l8.21-8.16Z" transform="translate(-96.67 -33.63)" fill="#23859b" stroke="#000" stroke-miterlimit="10" stroke-width="1.48"/><path d="M456.29,697.08" transform="translate(-96.67 -33.63)" fill="none" stroke="#000" stroke-miterlimit="10" stroke-width="1.11"/><path d="M461.66,657.36" transform="translate(-96.67 -33.63)" fill="#fff" stroke="#000" stroke-miterlimit="10" stroke-width="2.33"/><path d="M352.43,529.82c-2.69.32-8.06,12-33.77,7.18" transform="translate(-96.67 -33.63)" fill="none" stroke="#000" stroke-miterlimit="10" stroke-width="1.11"/><path d="M339.88,551.47c-1.45-.38-6,3.08-15.95-2.68" transform="translate(-96.67 -33.63)" fill="none" stroke="#000" stroke-miterlimit="10" stroke-width="1.11"/><path d="M438.75,473.66c-2.08,0-75.11,25.81-89,121.06" transform="translate(-96.67 -33.63)" fill="none" stroke="#000" stroke-linecap="round" stroke-linejoin="round" stroke-width="2.96"/><path d="M390.7,470.23s-1.87,42.21-41.19,51" transform="translate(-96.67 -33.63)" fill="none" stroke="#000" stroke-linecap="round" stroke-linejoin="round" stroke-width="2.96"/><path d="M263.8,260.62s-3.34,65.95,101.62,115.49c0,0,26,9.09,15.54,27.43s-43-3.7-43-3.7-29.55-16.93-54.25-53.7S263.8,260.62,263.8,260.62Z" transform="translate(-96.67 -33.63)" fill="#e4f6f9" stroke="#000" stroke-linecap="round" stroke-miterlimit="10" stroke-width="2.33"/><path d="M420.58,523.49c-1,.59-55.58,20.83-58.2,64.12,0,0,3.48,32.27,1.29,38.3s-8.84,5.12-14.49,17.7-8.23,17.93-14.13,25" transform="translate(-96.67 -33.63)" fill="#fff" stroke="#000" stroke-miterlimit="10" stroke-width="2.33"/><path d="M390.75,648.36c-.05-.88,8.75-21-8.16-25.46s-17.81,5.31-21.81,7.41" transform="translate(-96.67 -33.63)" fill="#fff" stroke="#000" stroke-miterlimit="10" stroke-width="2.33"/><circle cx="212.84" cy="382.35" r="2.92"/><path d="M276.15,478.67s-7-4.46-21.42-.53-16.84,5.66-16.51,10.92" transform="translate(-96.67 -33.63)" fill="none" stroke="#000" stroke-miterlimit="10" stroke-width="1.11"/><path d="M375.12,461.06s-3.4,50-31,45.21-30.82-7.35-36-4" transform="translate(-96.67 -33.63)" fill="none" stroke="#000" stroke-linecap="round" stroke-linejoin="round" stroke-width="2.96"/><path d="M246,451.65l9.13-1.88s-1.36-3.53-8.39-6.26-15.12-2.6-15.19,2,1.66,5.61,1.66,5.61,2.2-7.17,8.64-5.46S246,451.65,246,451.65Z" transform="translate(-96.67 -33.63)"/></svg>