<svg id="_003-CryptoDex" data-name="003-CryptoDex" xmlns="http://www.w3.org/2000/svg" xmlns:xlink="http://www.w3.org/1999/xlink" width="679.64" height="743.93" viewBox="0 0 679.64 743.93"><defs><clipPath id="clip-path" transform="translate(-206.48 -226.04)"><rect x="230.56" y="246.97" width="586.86" height="471.56" transform="translate(1047.99 965.51) rotate(180)" fill="none"/></clipPath></defs><polygon points="0 568.82 339.82 0 679.64 568.82 0 568.82"/><path d="M546.31,397.79,739.19,720.66H353.42L546.31,397.79m0-17.3-208.53,349H754.83l-208.52-349Z" transform="translate(-206.48 -226.04)" fill="#fff"/><g clip-path="url(#clip-path)"><path d="M663.58,483.32c.84-.42,17.33-5.19,17.33-5.19s3.17-6.28,8.42-6.79,10.37,3.5,10.37,3.5l19.1-4.23s8.61-2.17,16.58.69,8.06,4.64,10.47,3.18a16,16,0,0,0,6.22-8.05c.85-3,6.43-8.16,12.3-8.45s10,3.18,10.47,5.28a30.89,30.89,0,0,0,1.77,5.15c.42.84,8.48,4.43,7.62,11.14s-8.65,13.71-8.65,13.71,5.95,7.79,6.14,11.88-7.53-5.69-12.57-3.19-7.3,17.49-.31,26.85,10,1.08,10,1.08,1.28-6.39,2.13-9.43,3.77,2.32,4.18,5.26a23,23,0,0,1,.09,5.45s7.62,8,8.67,10.1,4.49,4.85,1.12,8.09-4,2-10.51,5.2-11,6.78-14.81,7.08-10.38-3.5-12.38-.67.17,12-4.57,16.66-16.49,6.86-25,15.54-11.92,17.69-11.22,29.12-3.43,19-3.32,18.66,8.11,55.68,8.11,55.68,3.85,8.83,9.29,11.89,10,39.88,10,39.88,23.13,43.51,22.6,44-29.83,11.11-29.83,11.11L713,744.68s-17.6-8-20.31-11.92c.7,8.81-.92,22.44,6.39,31.38s13.16,17,14.62,17.89,6.5,2.54,17.73.9,24.65-2,35.2,10.83c0,0-55.69,28.12-57,28.74a12.51,12.51,0,0,1-12.17.27c-6.5-3.06-11.54-1.09-11.54-1.09s-8,2.39-18-9.92-33.38-24.56-36.2-26-19-12.55-19-12.55l-11.45,4.89s9.59,16.71,10,31.71.34,22.87,3.48,26.55,6.16,6.63,6.16,6.63.3,3.26,4.61,3,14.59-2.78,19,1.32C631.73,854.32,585,877.75,585,877.75s-1.46-3.46-6.49-3.58-6.83,1-16-13.8-25.05-34.71-36.7-33.91c-1.82,9-4.76,41.1-13.32,57.64-1.4,12-.78,13.74,1.09,18a28.47,28.47,0,0,0,3.23,6s18.24,2.48,21.06,6.58-21.65,11.25-23.12,12S474.47,948,474.47,948s-5.77.51-13.29-9.9-13.63-29.63-22.08-43-17.59-38.66-17.59-38.66-.54,5.24-2.43,4.08-12.94-18.19-11.23-25.84c-2.85,3.76-3.58,2.82-3.58,2.82s-7.29-13.67-5.91-19.85l-1.89,3s-5.27-22.79-5.15-28.87c-10.8-.14-12.05-3.19-15.16-12.64s-7.58-22.69-.65-54.13,14.73-70.65,32.83-84.85,43-25.23,62.54-35.44,33.1-16.14,46.61-39.59,54.43-26.44,54.43-26.44,11.43.35,19.23-10.84,8.55-13.92,20.21-18.92c0,0-1.72-17.73,5.11-20.33s9.13-1.64,16.15.37c4.25,1.23,15.61,6.14,21.92,2S652.45,488.83,663.58,483.32Z" transform="translate(-206.48 -226.04)" fill="#8bd5d8" stroke="#000" stroke-linecap="round" stroke-linejoin="round" stroke-width="1.25"/><path d="M678.21,498.58s1.67,2.31,11.54,1.09,14-7.19,17.87-10.43,5.35-.82,8.71-.39a8,8,0,0,0,2.28,0c2-.34,4.83-1,5.39-4.6.75-4.83-8.78-7.69-8.78-7.69s2.61,1.06,1.67,2.31-4.2-1.06-8.29-.34,1.57.53,1.57,1.58-6-.45-9.86.69.31.63,1.35,1.69-3.88.61-7.56,2.17,4,.65,4.93,1.49-2.53,2.3-2.53,2.3" transform="translate(-206.48 -226.04)" fill="none" stroke="#000" stroke-miterlimit="10" stroke-width="1.25"/><path d="M697.31,497.49a23.31,23.31,0,0,0,9.74,2.76c9.65.46,12.93-6.14,9.28-11.4" transform="translate(-206.48 -226.04)" fill="none" stroke="#000" stroke-miterlimit="10" stroke-width="0.94"/><path d="M704.45,494.48c1.77,3.57,5.34,3.11,7.55,2s4.21-3.14,2.12-7.34c-1.09-2.2-5.86-1.19-7.13.92C705.28,492.89,703.62,492.79,704.45,494.48Z" transform="translate(-206.48 -226.04)" fill="#e4f6f9" stroke="#000" stroke-miterlimit="10" stroke-width="1.25"/><circle cx="505.64" cy="264.37" r="1.88"/><path d="M759.26,475.2c1.34-.36,3.73-.2,4.32-1.23s-1-3.88-2.54-5.86-2.4-4.83.75-6.21,4.58,9.23,4.58,9.23.86,3.95-3,5S756.84,475.85,759.26,475.2Z" transform="translate(-206.48 -226.04)"/><path d="M772.45,467.57s.76-5.49-1.07-5.86S772.45,467.57,772.45,467.57Z" transform="translate(-206.48 -226.04)"/><path d="M644.75,522.63a16.26,16.26,0,0,0-2.39-6.3c-2.18-3.66-4.74-3.31-6.85-7.56s-4.88-4.33-6.26-7.48-8.17-6.91-8.17-6.91-2.7-2.49-4.31-1.33-2.29,6.43-2.29,6.43" transform="translate(-206.48 -226.04)" fill="#8bd5d8" stroke="#000" stroke-linecap="round" stroke-linejoin="round" stroke-width="2.5"/><path d="M722.69,493.87s.93,4.83-2,7.75a23,23,0,0,1-6.75,4.43,8.66,8.66,0,0,0,2.71-.06c.58-.29-4.55,3-7.11,3" transform="translate(-206.48 -226.04)" fill="none" stroke="#000" stroke-miterlimit="10" stroke-width="0.94"/><path d="M747,474a16.56,16.56,0,0,1-11.42,2.74c-7.09-.69-8.57,3.33-9.3,3.69" transform="translate(-206.48 -226.04)" fill="none" stroke="#000" stroke-miterlimit="10" stroke-width="1.25"/><path d="M717.56,516.31s-8.82,12-11.41,21.54c0,0,4.57-9.93,9.12-14a69.21,69.21,0,0,0-5.11,16.22c3.83-6.65,3.4-10.09,6.78-14.32" transform="translate(-206.48 -226.04)" fill="none" stroke="#000" stroke-miterlimit="10" stroke-width="0.94"/><path d="M726.52,528.85c-.37.36-6.33,10.44-6.79,15.41,3.09-4.45,2.66-7.89,9.27-13.72,0,0-4.15,12.64-3.94,17.47,4.71-10,2.38-11.77,8-17.82" transform="translate(-206.48 -226.04)" fill="none" stroke="#000" stroke-miterlimit="10" stroke-width="0.94"/><path d="M641.66,543.42s-.75,18.07,4.09,25.86-2.7-5.93,2.56-11c0,0,2.48,12.84,10.82,20.35" transform="translate(-206.48 -226.04)" fill="#8bd5d8" stroke="#000" stroke-linecap="round" stroke-linejoin="round" stroke-width="2.5"/><path d="M611.36,508.93s-.7,4.73,1.63,7,1.15,5.26,2.6,7.21-.11,3.69,2.41,5.84.27,3.5,2.31,4.67-.11,2.72,3,4.09,6.41,1.68,10.78,1.21" transform="translate(-206.48 -226.04)" fill="#8bd5d8" stroke="#000" stroke-linecap="round" stroke-linejoin="round" stroke-width="2.5"/><path d="M767.15,486.81" transform="translate(-206.48 -226.04)" fill="none" stroke="#000" stroke-miterlimit="10" stroke-width="0.94"/><path d="M762.86,490.39s-18.31,9.07-20.68,19a55.93,55.93,0,0,0-1.72,10.31c-.17,4,.69,6.83,3,8.94,4,3.61,11,6.45,11,6.45a18.2,18.2,0,0,0,5.63,1.09c3.21.11,6.1,5,8.53,5s11.18-.93,12.94-2.77,1.67-5.44-4.74-5.17S766,524.71,765,521.6s-1.25-17.5,4.69-20.05,1.43-5.78,1.43-5.78Z" transform="translate(-206.48 -226.04)" fill="#23859b" stroke="#000" stroke-miterlimit="10" stroke-width="1.25"/><path d="M762,527.91s-12-10.56-18.56-6.7c-8.51,5,11,13.86,11,13.86l7.48.9,2.45-6.79Z" transform="translate(-206.48 -226.04)" fill="#194c54"/><path d="M739.85,537.94" transform="translate(-206.48 -226.04)" fill="none" stroke="#000" stroke-miterlimit="10" stroke-width="0.94"/><path d="M764.44,513.57c-1.26-1-6.35-12.4-16.34-7.1-10.76,5.71-1.52-4.54-1.52-4.54a51.55,51.55,0,0,1,10-7.82c6.31-3.85,10.41-5.93,10.41-5.93s6.86,2.44,9.78,6.47S782.4,506,782.4,506s-1.42,2.67-5-1.29L772.82,500l-2.86-2.6s-6,3-5.67,3,.54,3,2.57,6.78A6.61,6.61,0,0,1,768,511C768.22,512.29,768.67,517,764.44,513.57Z" transform="translate(-206.48 -226.04)" fill="#e4f6f9" stroke="#000" stroke-miterlimit="10" stroke-width="1.25"/><path d="M784.66,535.38a30.52,30.52,0,0,0,.71-8.36c-.37-3.7-3.45-8.55-4.44-6.57a22.06,22.06,0,0,0-1.68,7.42c-.21,2.53-.41,3.6-2.45,5.34a15.57,15.57,0,0,1-4.09,2.51s-2.63,1.55-4-3.12-4.14-9.83-4.93-8-3.63,10.29-1.88,11.36,3.88,1.48,5.14,3,2.51,3.12,6.5,1.87S782.41,540.13,784.66,535.38Z" transform="translate(-206.48 -226.04)" fill="#e4f6f9" stroke="#000" stroke-miterlimit="10" stroke-width="1.25"/><path d="M771.63,481.34s-1.43,4.25-7.58,8.47" transform="translate(-206.48 -226.04)" fill="#e4f6f9" stroke="#000" stroke-miterlimit="10" stroke-width="1.25"/><path d="M670,572.55s-2.07,6.92,5.74,21.89c-11.76-11.05-14.06-27.58-14.06-27.58" transform="translate(-206.48 -226.04)" fill="#8bd5d8" stroke="#000" stroke-linecap="round" stroke-linejoin="round" stroke-width="2.5"/><path d="M665.19,591.42s19.27,23.82,19.66,45.22,0,30.21.91,53.35,4.79,25.5,5.69,36.83.86,23.14,4,31.8" transform="translate(-206.48 -226.04)" fill="#8bd5d8" stroke="#000" stroke-linecap="round" stroke-linejoin="round" stroke-width="2.5"/><path d="M557.32,659.79s32.66,19.94,34.15,43.55,4,34.94,4,34.94l4.44-8.48s5.2,40.61,18.4,46.64" transform="translate(-206.48 -226.04)" fill="#8bd5d8" stroke="#000" stroke-linecap="round" stroke-linejoin="round" stroke-width="2.5"/><line x1="320.41" y1="407.2" x2="334.55" y2="411.97" fill="#8bd5d8" stroke="#000" stroke-linecap="round" stroke-linejoin="round" stroke-width="2.5"/><line x1="328.54" y1="420.45" x2="344.88" y2="428.06" fill="#8bd5d8" stroke="#000" stroke-linecap="round" stroke-linejoin="round" stroke-width="2.5"/><path d="M387.16,725.26s6.22,20.48,5.21,39-.13,34.62-.13,34.62" transform="translate(-206.48 -226.04)" fill="none" stroke="#000" stroke-miterlimit="10" stroke-width="1.25"/><path d="M562.11,729.67s-22.44,26-27.85,43.64-7.08,42.77-7.08,42.77-3,43.1-9.94,52.83" transform="translate(-206.48 -226.04)" fill="#8bd5d8" stroke="#000" stroke-linecap="round" stroke-linejoin="round" stroke-width="2.5"/><path d="M345.2,666" transform="translate(-206.48 -226.04)" fill="none" stroke="#000" stroke-miterlimit="10" stroke-width="0.94"/><path d="M641,969.21c-12.75-3.29-32.79-8.66-36.57-10.17,2-2.08,11.33-9.2,20.27-15.43,8.16-5.68,12.44-29.4,11.89-35.36-.06-.72-.21-1.48-.81-1.75a1.26,1.26,0,0,0-.57-.12c-3.36,0-20.17,12.5-22.08,13.93-3.2,2.39-6,6.15-8.45,9.48-2.33,3.15-4.54,6.13-6.43,7a10.22,10.22,0,0,1-4.18.82,18,18,0,0,1-5-.79l-.27-.07c-.88-.26-23.65-8.88-34.35-12.94l14.81-6.46c.22-.12,17.08-9.09,21.84-11.08,4-1.68,6.18-4.63,9.45-9.1.86-1.17,1.79-2.46,2.87-3.85,2.49-3.25,2.36-8.72-.4-15.82a69.63,69.63,0,0,0-11-18.32c-8.09-9.8-10.24-16.4-13-24.75l-.67-2-.13-.12c-6.17-6.33-22.42-9-39.63-11.86-10.23-1.7-20.82-3.45-29.57-6-16.22-4.79-18.86-11.23-21.66-18.06a35,35,0,0,0-4.58-8.67c-7.72-10-17.67-15.23-41.82-24.89-19.56-7.82-32.17-14.17-37.48-18.86a45.56,45.56,0,0,1-6.88-8.34l-.77-1.22-.57,1.33c-.1.25-10.75,25.32-16.26,32.61a60.51,60.51,0,0,0-8.09,14l0,.12v.12c-.32,7.75-3.12,11.21-9.07,11.21-.5,0-1,0-1.56-.07l-.54,0c-6.69,0-9.75,10.87-10.49,14-4.06-1.14-23.29-6.51-35.74-9.85,6.61-7.24,18.84-15.88,25.89-18.18,6.39-2.09,8.92-15.61,10.41-27.15l.17-1.29a37.68,37.68,0,0,1,1.68-6c1.57-4.67,3.51-10.48,2.28-15.44-1.63-6.59,4.68-12.82,4.75-12.88L375,696.14l-.12-.38c0-.1-3-9.81-4.46-16.7-1.33-6.46-.68-15.11-.6-16.1.41-1.16,3.67-11.21-1.29-17.5s-3.29-15.42-2.74-18.4c.61-3.27-.1-6.07-.84-9-.24-.94-.48-1.91-.69-2.93l-.17-.84a23.5,23.5,0,0,1-.42-10.33l0-.3-.17-.24c-2.83-4.06-1.85-7-1.81-7.12l.25-.72-.72-.25-5.18-1.71c-.19,0-9.92-2-16.42-3.38-5.3-1.15-6.17-2.38-9.41-7-.59-.84-1.25-1.78-2-2.85-3.56-4.89-10.05-7.13-15.25-8.94a38.65,38.65,0,0,1-6.48-2.63c-4.73-2.78-4.54-6.9-2.8-12.22l.24-.76-.77-.2c-.47-.13-3.87-1.26-5.31-1.74-1.15-1-12.25-10.63-9.25-25.28,2.57-12.56,9.05-13.6,16-13.6h1.88c.48,0,1,0,1.41,0,6.17-.19,7.66-1.73,11.64-5.85.54-.57,1.14-1.19,1.81-1.86a27.14,27.14,0,0,1,13-7.52c3-.79,3.49-5.31,3.51-5.5,1.93-8.33,7-9.69,11.11-10.78l.72-.19c1.23-.34,3.88-1.34,7.57-2.73,9.28-3.51,24.81-9.38,35.55-11.28A70.93,70.93,0,0,1,404.91,468c6.6,0,10.78,1.58,16,3.82,5.68,2.45,9.47,12.53,12.24,19.89,1,2.7,1.89,5,2.74,6.72,3.3,6.63,7.93,7.1,15.61,7.88l.87.09c48.69,1,62.38,22.87,69.74,34.6.74,1.18,1.44,2.3,2.09,3.25,3.23,4.73,9,15.75,18,41.45,1.26,3.58,2.81,6,4.6,7.29a4.24,4.24,0,0,0,2.11.84,190.78,190.78,0,0,1,16.35,14c4.16,3.83,9.84,9.07,18.28,16.61a161,161,0,0,1,28.69,32.93c2.31,3.36,4.3,6.27,6.49,8.88,7.86,9.33,19,14.56,28.93,18.45,4.61,1.81,10.13,3.67,15.47,5.46,6.62,2.23,12.87,4.33,15.59,5.78,16,8.58,22.6,27.31,24.76,33.47,8.43,24,25.93,44.42,26.1,44.62s20.84,24,14.93,53.45c-5.64,28.08-16.53,38.53-40.18,38.53H703c-23-.36-37.22-24.18-39.79-30.54l-.65-1.61-.73,1.58c-5.58,12-1.73,37.29,1.08,45a56.79,56.79,0,0,0,2.51,5.6c2.7,5.52,5.26,10.74,2.16,16.22-4.44,7.87-9.47,34.21-10.54,43.25-.88,7.38-3.5,7.38-5.81,7.38H649.3c-3.48,0-4,4.41-4.6,8.66-.15,1.15-.3,2.33-.51,3.38C643.48,968.54,641.5,969.12,641,969.21Z" transform="translate(-206.48 -226.04)" fill="#fff"/><path d="M404.91,468.76c6.46,0,10.57,1.56,15.67,3.76,5.38,2.33,9.11,12.23,11.83,19.47,1,2.71,1.91,5.06,2.77,6.79,3.49,7,8.55,7.51,16.21,8.29l.88.09h.12c48.22,1,61.77,22.64,69.05,34.25.74,1.19,1.45,2.31,2.11,3.28,3.2,4.69,8.9,15.65,17.9,41.27,1.31,3.73,2.95,6.31,4.87,7.66a5.19,5.19,0,0,0,2.27,1,189.28,189.28,0,0,1,16.12,13.87c4.16,3.83,9.84,9.07,18.29,16.62a160.68,160.68,0,0,1,28.57,32.8c2.32,3.38,4.32,6.29,6.53,8.93,8,9.47,19.25,14.75,29.23,18.67,4.63,1.82,10.16,3.68,15.5,5.48,6.59,2.21,12.82,4.3,15.48,5.73a38.61,38.61,0,0,1,10.82,8.55c5.43,6,10,14.29,13.59,24.5,8.48,24.13,26.07,44.66,26.26,44.88s20.58,23.69,14.74,52.79c-5.55,27.65-16.24,37.93-39.44,37.93l-1.31,0c-22.54-.34-36.57-23.8-39.1-30.06l-1.3-3.23-1.47,3.16c-5.65,12.22-1.78,37.78,1.06,45.54a59.56,59.56,0,0,0,2.54,5.67c2.62,5.34,5.09,10.38,2.19,15.52-4.57,8.07-9.53,34.17-10.64,43.53-.8,6.72-2.87,6.72-5.06,6.72h-.84l-.92,0h-.13c-4.14,0-4.78,5-5.35,9.33-.15,1.13-.3,2.3-.5,3.33-.56,2.86-2,3.51-2.42,3.65-11.7-3-29.64-7.81-35.17-9.68,3-2.71,11.42-9,19.3-14.52,8.93-6.22,12.68-30.87,12.21-36.05-.06-.56-.18-1.88-1.25-2.37a2.18,2.18,0,0,0-.89-.18c-3.44,0-18.12,10.77-22.53,14.07-3.29,2.46-6.11,6.28-8.6,9.64-2.28,3.07-4.43,6-6.14,6.75a9.41,9.41,0,0,1-3.87.76,17.69,17.69,0,0,1-4.78-.76l-.26-.08c-.95-.29-18.87-7.06-32.57-12.26L569.59,918l.06,0,.05,0c.17-.09,17-9.05,21.72-11,4.21-1.76,6.54-5,9.77-9.36.84-1.14,1.79-2.45,2.85-3.83,6.17-8-3.72-25.78-11.4-35.08-8-9.69-10-15.9-12.85-24.5l-.61-1.88-.11-.33-.25-.25c-6.35-6.5-22.72-9.21-40.05-12.08-10.21-1.69-20.77-3.44-29.48-6-15.87-4.68-18.44-11-21.17-17.61a35.82,35.82,0,0,0-4.68-8.85c-7.83-10.16-17.85-15.42-42.14-25.13-19.48-7.79-32-14.09-37.26-18.73a45.12,45.12,0,0,1-6.75-8.17l-1.53-2.45-1.13,2.66c-.11.25-10.72,25.24-16.17,32.45a61.78,61.78,0,0,0-8.2,14.17l-.08.23v.23c-.39,9.25-4.42,10.5-8.32,10.5-.47,0-1,0-1.49-.07-.21,0-.41,0-.62,0-6.8,0-10,9.75-11,13.79-5.11-1.43-22-6.14-33.78-9.31,6.69-7,18.05-14.89,24.71-17.07s9.41-16,10.93-27.77c.06-.49.12-.92.17-1.27a36.72,36.72,0,0,1,1.65-5.86c1.59-4.76,3.57-10.69,2.3-15.86-1.53-6.16,4.47-12.1,4.53-12.16l.07-.07.06-.07,16-20.27.5-.62-.24-.76c0-.1-3-9.77-4.44-16.64-1.28-6.19-.7-14.47-.59-15.78.53-1.59,3.64-11.68-1.44-18.13-4.78-6.06-3.14-14.89-2.6-17.79.64-3.43-.08-6.31-.85-9.36-.23-.94-.48-1.91-.68-2.9l-.18-.85a22.91,22.91,0,0,1-.41-10.07l.09-.58-.34-.49c-2.58-3.7-1.75-6.33-1.72-6.42l.53-1.46-1.47-.49-5.18-1.72-.09,0-.09,0c-.1,0-9.83-2-16.32-3.36-5-1.08-5.69-2.05-8.95-6.69-.6-.84-1.26-1.78-2-2.85-3.7-5.08-10.31-7.37-15.62-9.21a39.23,39.23,0,0,1-6.34-2.57c-3.77-2.22-4.44-5.29-2.47-11.33l.5-1.52-1.54-.41c-.4-.11-3.26-1-5.14-1.68-1.6-1.33-11.75-10.42-8.88-24.46,2.45-12,8.63-13,15.29-13h1.88l1.43,0c6.48-.2,8.14-1.93,12.16-6.09l1.8-1.85a26.47,26.47,0,0,1,12.65-7.32c3.24-.86,3.94-5.2,4.05-6.05,1.85-7.9,6.48-9.14,10.56-10.23l.73-.2c1.26-.34,3.94-1.35,7.64-2.75,9.25-3.5,24.74-9.35,35.41-11.23a69.69,69.69,0,0,1,12-1.25h0m0-1.51a70.63,70.63,0,0,0-12.21,1.27c-15,2.64-38.9,12.84-43.19,14s-10.21,2.25-12.38,11.62c0,0-.45,4.19-2.95,4.85a28,28,0,0,0-13.33,7.72c-5.45,5.51-6.25,7.28-12.94,7.49l-1.38,0h-1.88c-6.34,0-14,.63-16.77,14.21-3.28,16,9.62,26.1,9.62,26.1s4.87,1.63,5.49,1.8c-1.8,5.49-2,10.07,3.14,13.1s16.4,4.37,21.5,11.37,5.31,8.7,11.89,10.13,16.34,3.36,16.34,3.36L361,596s-1.22,3.32,1.9,7.8c-.78,5.43-.27,7.22.6,11.43s2.29,7.57,1.53,11.68-2.06,12.71,2.89,19,1.14,16.88,1.14,16.88-.85,9.39.6,16.41S374.18,696,374.18,696l-16,20.27s-6.7,6.5-4.95,13.6-3.28,16-4,21.15-2.8,25.44-10.06,27.82-20.31,11.5-27,19.32c13.93,3.71,37.68,10.37,37.68,10.37s2.82-14.16,9.91-14.16l.49,0c.56,0,1.1.08,1.62.08,6.35,0,9.48-3.76,9.83-11.94a60.33,60.33,0,0,1,8-13.79C385.29,761.27,396,736,396,736a45.93,45.93,0,0,0,7,8.5c3.75,3.32,12.83,9.06,37.7,19s34.11,15.06,41.5,24.65,3.26,20.1,26.62,27,59.25,7.83,68.89,17.69c3.11,9.45,5,16.24,13.72,26.87s16.45,26.6,11.38,33.2-7.16,10.69-12,12.71S569,916.65,569,916.65l-16.51,7.2s35.23,13.37,36.16,13.61a19.42,19.42,0,0,0,5.45.9,10.85,10.85,0,0,0,4.49-.9c4.15-1.88,8.81-11.9,15-16.55,6-4.46,19-13.77,21.63-13.77a.5.5,0,0,1,.26.05c1.78.8-2.24,29.57-11.2,35.8s-21,15.29-20.92,16.3S641,970,641,970s3-.19,4-4.91.72-11.42,4.38-11.44h.12c.59,0,1.18,0,1.76,0,3,0,5.67-.61,6.55-8,1.08-9,6.07-35.19,10.46-43s-1.94-15.1-4.63-22.45-6.56-32.58-1.1-44.38c2.4,5.94,16.7,30.64,40.47,31h1.34c22.9,0,35-9.49,40.92-39.14,6.06-30.21-15.09-54.08-15.09-54.08s-17.49-20.24-26-44.38S684,698,679,695.34s-20.63-7.16-31.14-11.28-21.07-9.26-28.62-18.24-13-22-35.25-41.88-24.66-23.15-34.88-30.85H549a3.37,3.37,0,0,1-1.85-.72c-1.23-.86-2.85-2.76-4.31-6.92-2.83-8.05-11.17-31.49-18.09-41.62s-18.31-37-72.37-38.18c-8.07-.83-12.65-1.06-15.89-7.56s-7.33-23.5-15.36-27c-5.36-2.32-9.59-3.89-16.26-3.89Z" transform="translate(-206.48 -226.04)"/><path d="M353.83,503.67c-2.41,3.82.5,7.76,4.86,8.92a8.16,8.16,0,0,0,10-5.79c1.17-4.36-.92-6.38-5.28-7.54S357.28,498.18,353.83,503.67Z" transform="translate(-206.48 -226.04)" fill="none" stroke="#000" stroke-miterlimit="10" stroke-width="0.85"/><path d="M328.12,519.69l16.34-6.58c2.35-1.36,6.09,2.69,8.11-5.57,2.55-10.38,10.83-8.28,10.83-8.28s12.08,4.43,14.88,2.64c0,0,2.85-1.56.14-7.59" transform="translate(-206.48 -226.04)" fill="none" stroke="#000" stroke-miterlimit="10" stroke-width="0.85"/><path d="M356.38,501.14a4.48,4.48,0,1,0,8.66,2.31c.64-2.39-.51-3.78-2.91-4.42S357,498.75,356.38,501.14Z" transform="translate(-206.48 -226.04)" fill="#e4f6f9" stroke="#000" stroke-miterlimit="10" stroke-width="1.14"/><path d="M354.28,462.18c-51.38-35.58-49-73.55-49-73.55s-4.17,37.42,14.45,65.93a218.75,218.75,0,0,0,26.06,30.18l28.65-10.49Z" transform="translate(-206.48 -226.04)" fill="#e4f6f9" stroke="#000" stroke-miterlimit="10" stroke-width="1.14"/><path d="M342.56,490.39c-.93-.25-.1,11.58-2.54,13.25" transform="translate(-206.48 -226.04)" fill="none" stroke="#000" stroke-miterlimit="10" stroke-width="0.85"/><path d="M413.09,501.89s-2.27,6,5,6,21.48-1,36.3,5.58c0,0-9.08,26.2-31.64,22.51s-11.7-10.41-22.47-7.31" transform="translate(-206.48 -226.04)" fill="none" stroke="#000" stroke-miterlimit="10" stroke-width="0.85"/><path d="M449.11,515.88s-27.43-5.12-42.93,6.3" transform="translate(-206.48 -226.04)" fill="none" stroke="#000" stroke-miterlimit="10" stroke-width="0.85"/><path d="M407.14,474.45s16.7.8,17.36,18.22" transform="translate(-206.48 -226.04)" fill="none" stroke="#000" stroke-miterlimit="10" stroke-width="0.85"/><path d="M292.46,524.11c-5.85,1.52-9.62,3.74-15.29,8.86C272,537.67,266,551.21,279,554.68c19.72,5.25,30.35-28,30.35-28a8.55,8.55,0,0,0-7.06-.89c-4,1.26-4.6,16-15.51,18.41s-1.41-9.66-1.41-9.66l6.32-6.27Z" transform="translate(-206.48 -226.04)" fill="#23859b" stroke="#000" stroke-miterlimit="10" stroke-width="1.14"/><path d="M701.2,779.25s39.54,15.84,24.46,51.27-39.27,1.8-39.27,1.8l-7.89-12.71S693.4,806,701.2,779.25Z" transform="translate(-206.48 -226.04)" fill="none" stroke="#000" stroke-miterlimit="10" stroke-width="0.85"/><path d="M704,746.2s4.91,10.12-3.16,34.39" transform="translate(-206.48 -226.04)" fill="none" stroke="#000" stroke-miterlimit="10" stroke-width="0.85"/><path d="M579.25,742.58s-21,30.83,2,88.62" transform="translate(-206.48 -226.04)" fill="none" stroke="#000" stroke-miterlimit="10" stroke-width="0.85"/><path d="M550.57,740.54s19.93,9.32,20.71,25.94" transform="translate(-206.48 -226.04)" fill="none" stroke="#000" stroke-miterlimit="10" stroke-width="0.85"/><path d="M553.35,724.07c-.67,1-43.48,14.44-82.69-5.22" transform="translate(-206.48 -226.04)" fill="none" stroke="#000" stroke-miterlimit="10" stroke-width="0.85"/><path d="M474.8,688.32c-.68,1-12.16,27.59-36.16,32s-28.07,1.18-38.8,15.41" transform="translate(-206.48 -226.04)" fill="none" stroke="#000" stroke-miterlimit="10" stroke-width="0.85"/><path d="M390.82,590.26c-2.07.25-6.19,9.23-26,5.53" transform="translate(-206.48 -226.04)" fill="none" stroke="#000" stroke-miterlimit="10" stroke-width="0.85"/><path d="M381.18,606.91c-1.12-.3-4.64,2.37-12.26-2.06" transform="translate(-206.48 -226.04)" fill="none" stroke="#000" stroke-miterlimit="10" stroke-width="0.85"/><path d="M457.18,547.09c-1.59,0-57.74,19.85-68.45,93.07" transform="translate(-206.48 -226.04)" fill="none" stroke="#000" stroke-linecap="round" stroke-linejoin="round" stroke-width="2.28"/><path d="M420.25,544.45s-1.44,32.45-31.67,39.21" transform="translate(-206.48 -226.04)" fill="none" stroke="#000" stroke-linecap="round" stroke-linejoin="round" stroke-width="2.28"/><path d="M322.69,383.32s-2.57,50.7,78.12,88.78c0,0,20,7,11.95,21.08s-33.06-2.84-33.06-2.84S357,477.32,338,449.06,322.69,383.32,322.69,383.32Z" transform="translate(-206.48 -226.04)" fill="#e4f6f9" stroke="#000" stroke-miterlimit="10" stroke-width="1.14"/><path d="M443.22,585.4c-.79.45-42.73,16-44.75,49.3,0,0,2.67,24.8,1,29.43s-6.8,3.94-11.14,13.61S382,691.53,377.46,697" transform="translate(-206.48 -226.04)" fill="none" stroke="#000" stroke-miterlimit="10" stroke-width="0.85"/><path d="M420.28,681.4c0-.68,6.73-16.11-6.27-19.58s-13.69,4.09-16.77,5.7" transform="translate(-206.48 -226.04)" fill="none" stroke="#000" stroke-miterlimit="10" stroke-width="0.85"/><circle cx="151.35" cy="276.7" r="2.24"/><path d="M332.19,550.94s-5.39-3.42-16.47-.41-13,4.36-12.7,8.41" transform="translate(-206.48 -226.04)" fill="none" stroke="#000" stroke-miterlimit="10" stroke-width="0.85"/><path d="M408.27,537.41s-2.62,38.42-23.85,34.75-23.69-5.65-27.7-3.07" transform="translate(-206.48 -226.04)" fill="none" stroke="#000" stroke-linecap="round" stroke-linejoin="round" stroke-width="2.28"/><path d="M309,530.17l7-1.44s-1-2.71-6.45-4.82-11.62-2-11.68,1.53,1.28,4.32,1.28,4.32,1.69-5.52,6.65-4.2S309,530.17,309,530.17Z" transform="translate(-206.48 -226.04)"/></g></svg>