<svg xmlns="http://www.w3.org/2000/svg" width="1103" height="834" viewBox="0 0 1103 834"><path d="M971.18,514.71c57.4-11.69,88.92-30,93.75-48.17-33-35.47-85.21-44.6-85.21-44.6S989.09,460.45,971.18,514.71Z" fill="#fffffa" stroke="#020202" stroke-miterlimit="10" stroke-width="5.11"/><path d="M978.52,447.16s50.44,2.42,73.83,22.66c0,0-15.62,26.29-86.56,41.51C971.69,496.78,982.33,462.66,978.52,447.16Z" fill="#020202"/><path d="M766.26,262.4c22.45-54.11,46.4-81.55,65.21-82.81C860,218.72,859,271.75,859,271.75S823,255.2,766.26,262.4Z" fill="#fffffa" stroke="#020202" stroke-miterlimit="10" stroke-width="5.11"/><path d="M831.64,268.91s7.27-50-8.12-76.8c0,0-28.79,10.3-57.3,77C781.63,266.13,817.16,262.2,831.64,268.91Z" fill="#020202"/><path d="M899.88,596.76l9.32-9.8a28.41,28.41,0,0,0,7.87,12.19s5.16,5.8,8.25,1.62-10.81-13,3-27.43l29.33-30.8s9.89-10.39,10.75-20.68a127.73,127.73,0,0,0-4.2-157l-56-68a127.74,127.74,0,0,0-150-35.67c-10.74-7.08-28.71,4.4-28.71,4.4l-35.84,22.9c-16.84,10.76-22.8-4.56-27.49-2.32s0,8.4,0,8.4a28.37,28.37,0,0,0,10.46,10.05l-11.4,7.29c-16.84,10.75-22.8-4.56-27.49-2.33s0,8.41,0,8.41c8.43,13.19,20.5,14.07,29.19,12.47a127.7,127.7,0,0,0-12.36,175.41l56,68a127.71,127.71,0,0,0,169.5,25c-1.11,7.26.32,15.84,8.64,23.77,0,0,5.16,5.8,8.25,1.62S886.1,611.23,899.88,596.76Z" fill="#d7f9ff" stroke="#231f20" stroke-miterlimit="10" stroke-width="8.17"/><ellipse cx="673.87" cy="554.69" rx="5.75" ry="142.11" transform="translate(-198.93 555.13) rotate(-39.49)" fill="#020202"/><path d="M840.92,391.73c-42.16,34.21-104.21,2-100.5-52.25,2.46-34.36,34.23-60.53,68.42-56.37,54,6.76,73.71,73.78,32.08,108.62Zm-.24-.29c18.34-14.8,26.15-40.87,19-63.32-12.34-40.35-62.08-55.33-94.61-28.42s-27.43,78.46,9.81,98.3c20.68,11.29,47.75,8.62,65.79-6.56Z" fill="#020202"/><path d="M840.92,391.73c-16.24,18.82-46.62,21.89-67.41,8.87a48.19,48.19,0,0,1-16.92-17l.29-.24a59.42,59.42,0,0,0,18,14.63,60.58,60.58,0,0,0,45.29,4.37,59.71,59.71,0,0,0,20.49-10.91l.24.29Z" fill="#020202"/><circle cx="788.47" cy="341.97" r="77.87" fill="none" stroke="#020202" stroke-miterlimit="10" stroke-width="4.94"/><path d="M862,411.83c-18.25,14.75-25.86,40.91-18.11,63.05,12.67,38.46,60.75,52.14,91.78,26.36,31.28-25.63,27-75.28-8.33-95.14-20.25-11.83-47.38-9.35-65.34,5.73Zm-.24-.29c18.14-15.32,45.41-18.06,66.27-6.72,37.69,20,43,72.21,10,99.34s-83.18,12-95.59-28.85c-7.14-22.64.77-48.89,19.28-63.77Z" fill="#020202"/><path d="M842.68,393.41c-35,28.39-86.49,1.71-83.44-43.39,2.06-28.53,28.41-50.23,56.81-46.79,44.82,5.6,61.19,61.26,26.63,90.18Zm-.2-.24c15.22-12.3,21.72-33.93,15.78-52.57C848,307.09,806.75,294.68,779.72,317s-22.79,65.13,8.15,81.61c17.16,9.39,39.63,7.14,54.61-5.44Z" fill="#020202"/><path d="M860.15,410.1a48.22,48.22,0,0,0-5.68,68.73c16.52,19.49,47.45,22,66.85,5.51,19.88-15.89,23.38-46.74,7.39-66.68a48.23,48.23,0,0,0-68.56-7.56Zm-.2-.24c15.07-12.7,37.71-15,55-5.57,31.3,16.6,35.67,59.93,8.35,82.47s-69.06,9.94-79.36-24c-6-18.8.64-40.57,16-52.94Z" fill="#020202"/><circle cx="815.98" cy="360.73" r="43.51" fill="#020202"/><circle cx="886.65" cy="442.54" r="43.51" fill="#020202"/><circle cx="897.86" cy="474.73" r="77.87" fill="none" stroke="#020202" stroke-miterlimit="10" stroke-width="4.94"/><path d="M816.25,420.59l.52-5.35a5.16,5.16,0,0,1,7.32-4.18l6,2.81a10.53,10.53,0,0,1,5.78,7l1.61,6.44a5.17,5.17,0,0,1-5.5,6.39l-5.36-.52A11.55,11.55,0,0,1,816.25,420.59Z" fill="#fff" stroke="#231f20" stroke-miterlimit="10" stroke-width="2.04"/><path d="M817.41,430s-18.13,11.49-30-3.88" fill="none" stroke="#020202" stroke-linecap="round" stroke-miterlimit="10" stroke-width="2.62"/><path d="M817.93,430s-15.24,15.1-2.9,30.08" fill="none" stroke="#020202" stroke-linecap="round" stroke-miterlimit="10" stroke-width="2.62"/><path d="M704.5,410.91c-27.68,26.63-57.88,23.85-62.18.54S663,358.68,663,358.68s10.81-15.87,25.6-8.18S715.3,400.53,704.5,410.91Z" fill="#fff" stroke="#020202" stroke-miterlimit="10" stroke-width="3.58"/><path d="M649.13,424.24s-4.89-8.65,3.13-26.06" fill="none" stroke="#020202" stroke-linecap="round" stroke-linejoin="round" stroke-width="2.04"/><path d="M663,430.61a32.68,32.68,0,0,1,5.31-21.15" fill="none" stroke="#020202" stroke-linecap="round" stroke-linejoin="round" stroke-width="2.04"/><path d="M812.88,542.44c-31.43,22.08-34.47,52.26-12.42,60.93s55.75-10.15,55.75-10.15,17.64-7.58,12.91-23.57S825.14,533.83,812.88,542.44Z" fill="#fff" stroke="#020202" stroke-miterlimit="10" stroke-width="3.58"/><path d="M789.22,594.24s7.55,6.45,26.17,1.92" fill="none" stroke="#020202" stroke-linecap="round" stroke-linejoin="round" stroke-width="2.04"/><path d="M785.6,579.45a32.72,32.72,0,0,0,21.78-1.16" fill="none" stroke="#020202" stroke-linecap="round" stroke-linejoin="round" stroke-width="2.04"/><circle cx="822.36" cy="355.4" r="11.04" fill="#fff" stroke="#231f20" stroke-miterlimit="10" stroke-width="1.02"/><circle cx="814.23" cy="381.5" r="5.4" fill="#fff" stroke="#231f20" stroke-miterlimit="10" stroke-width="1.02"/><circle cx="886.42" cy="426.48" r="11.04" fill="#fff" stroke="#231f20" stroke-miterlimit="10" stroke-width="1.02"/><circle cx="874.07" cy="448.02" r="5.4" fill="#fff" stroke="#231f20" stroke-miterlimit="10" stroke-width="1.02"/><path d="M973.82,427.53a98.4,98.4,0,0,0-33.27-40.41A87.85,87.85,0,0,0,911.17,374,89.24,89.24,0,0,1,932,380.19a97.39,97.39,0,0,1,34.86,26.38,106.5,106.5,0,0,1,9.78,13.51c1,1.63,1.87,3.18,2.77,5a3.06,3.06,0,1,1-5.62,2.43Z" fill="#231f20"/><path d="M853.24,271.93c17.25,13.88,30.08,33.51,35,55.13a89.79,89.79,0,0,1,2.07,21.65,88.06,88.06,0,0,0-12.11-40.86A101.68,101.68,0,0,0,858,283.38a76,76,0,0,0-8.25-6.43,3.07,3.07,0,1,1,3.53-5Z" fill="#231f20"/><path d="M1022.67,621.83c37.7-11.05,57.73-25,59.93-37.48-24-21.84-59.45-25-59.45-25S1031.58,584.56,1022.67,621.83Z" fill="#fffffa" stroke="#020202" stroke-miterlimit="10" stroke-width="3.43"/><path d="M1023.77,576.28s33.84-1.23,50.61,11c0,0-9,18.45-55.5,32.62C1022,609.82,1027.19,586.41,1023.77,576.28Z" fill="#020202"/><path d="M871.51,464.78c12-37.43,26.41-57.12,38.91-59,21.26,24.54,23.56,60,23.56,60S909,456.77,871.51,464.78Z" fill="#fffffa" stroke="#020202" stroke-miterlimit="10" stroke-width="3.43"/><path d="M915.56,465.44s2.05-33.81-9.75-50.86c0,0-18.66,8.5-33.95,54.7C882,466.4,905.51,461.77,915.56,465.44Z" fill="#020202"/><path d="M979.65,680.68l5.68-7.08a19,19,0,0,0,5.94,7.7s3.78,3.59,5.61.62-8-8,.44-18.49l17.86-22.24s6-7.5,6-14.42a85.68,85.68,0,0,0-11.66-104.72l-41.29-42.29A85.65,85.65,0,0,0,866,464.39C858.39,460.27,847,469,847,469l-22.67,17.32c-10.64,8.14-15.49-1.76-18.5,0s.49,5.61.49,5.61a18.92,18.92,0,0,0,7.55,6.13l-7.21,5.51c-10.64,8.14-15.49-1.76-18.5,0s.49,5.61.49,5.61c6.38,8.35,14.49,8.25,20.21,6.69a85.63,85.63,0,0,0,1.63,117.92L851.81,676a85.66,85.66,0,0,0,114.68,7.13c-.33,4.91,1.1,10.56,7.11,15.39,0,0,3.78,3.59,5.61.62S971.26,691.12,979.65,680.68Z" fill="#d7f9ff" stroke="#231f20" stroke-miterlimit="10" stroke-width="5.48"/><ellipse cx="826.25" cy="665.3" rx="3.86" ry="95.3" transform="translate(-229.73 766.42) rotate(-44.31)" fill="#020202"/><path d="M928.69,547c-11.25,11.44-29.33,14.83-44.15,8.81-27.64-11.08-34.7-46.88-13.48-67.85,21.48-20.68,57.07-12.78,67.49,15.12,5.67,15,1.85,32.95-9.86,43.92Zm-.18-.18c15.69-15.12,16-40.95.64-56.41-15.1-15.66-40.89-15.95-56.32-.63-20.28,19.7-13.9,54,12.1,65.13a40.08,40.08,0,0,0,43.58-8.09Z" fill="#020202"/><path d="M928.69,547c-9.81,13.5-29.9,17.18-44.54,9.73a32.43,32.43,0,0,1-12.27-10.41l.18-.18a40.09,40.09,0,0,0,12.87,8.75,40.55,40.55,0,0,0,30.5.37,40.11,40.11,0,0,0,13.08-8.44l.18.18Z" fill="#020202"/><circle cx="890.84" cy="516.7" r="52.22" fill="none" stroke="#020202" stroke-miterlimit="10" stroke-width="3.31"/><path d="M943.88,559.24c-20,19.79-13.31,53.48,12.76,63.9,31.48,12.22,62.29-17.85,50.83-49.62-9.79-26.31-43.32-33.77-63.59-14.28Zm-.17-.18c15.58-15.47,41.62-15.17,56.86.64,15.49,15.61,15.19,41.69-.64,56.95-15.64,15.46-41.72,15.13-56.95-.73-15.44-15.62-15.11-41.65.73-56.86Z" fill="#020202"/><path d="M930,548c-21.54,21.05-57.88,5.89-58.2-24.29a34.47,34.47,0,0,1,35.31-34.47C937.25,490.33,951.52,527,930,548Zm-.15-.15c16.82-16.36,11.48-45-10.13-54.13-27.12-11.39-54.47,15.31-43.74,42.7,8.63,21.82,37.11,27.85,53.87,11.43Z" fill="#020202"/><path d="M942.58,558.18c-16.58,16.38-11,44.46,10.59,53.06,26,10.2,51.78-14.9,42.2-41.2-8.08-21.82-36-28-52.79-11.86Zm-.15-.15c16.87-16.59,45.59-10.53,54.34,11.46,10.89,27.77-16.7,54.69-44.2,43.14-21.76-9.27-27.14-38.13-10.14-54.6Z" fill="#020202"/><circle cx="910.28" cy="527.68" r="29.18" fill="#020202"/><circle cx="962.12" cy="578.37" r="29.18" fill="#020202"/><circle cx="971.42" cy="599.25" r="52.22" fill="none" stroke="#020202" stroke-miterlimit="10" stroke-width="3.31"/><path d="M913.84,567.67l0-3.61a3.45,3.45,0,0,1,4.65-3.2l4.18,1.53a7.07,7.07,0,0,1,4.26,4.37l1.44,4.21a3.47,3.47,0,0,1-3.32,4.58l-3.61,0A7.74,7.74,0,0,1,913.84,567.67Z" fill="#fff" stroke="#231f20" stroke-miterlimit="10" stroke-width="1.37"/><path d="M915.13,573.86s-11.46,8.7-20.24-.9" fill="none" stroke="#020202" stroke-linecap="round" stroke-miterlimit="10" stroke-width="1.75"/><path d="M915.49,573.89s-9.33,11-.24,20.26" fill="none" stroke="#020202" stroke-linecap="round" stroke-miterlimit="10" stroke-width="1.75"/><path d="M838.61,567.5c-17,19.35-37.34,19.2-41.52,3.87s10.81-36.43,10.81-36.43,6.33-11.22,16.64-6.91S845.24,560,838.61,567.5Z" fill="#fff" stroke="#020202" stroke-miterlimit="10" stroke-width="2.4"/><path d="M802.36,579.53s-3.75-5.51.62-17.59" fill="none" stroke="#020202" stroke-linecap="round" stroke-linejoin="round" stroke-width="1.37"/><path d="M812,583a21.91,21.91,0,0,1,2.36-14.44" fill="none" stroke="#020202" stroke-linecap="round" stroke-linejoin="round" stroke-width="1.37"/><path d="M918.45,649.28c-19.75,16.53-20.09,36.87-4.86,41.42s36.68-9.93,36.68-9.93,11.36-6.06,7.3-16.47S926.16,642.84,918.45,649.28Z" fill="#fff" stroke="#020202" stroke-miterlimit="10" stroke-width="2.4"/><path d="M905.56,685.24s5.41,3.88,17.6-.2" fill="none" stroke="#020202" stroke-linecap="round" stroke-linejoin="round" stroke-width="1.37"/><path d="M902.31,675.56a21.91,21.91,0,0,0,14.48-2" fill="none" stroke="#020202" stroke-linecap="round" stroke-linejoin="round" stroke-width="1.37"/><circle cx="914.24" cy="523.76" r="7.4" fill="#fff" stroke="#231f20" stroke-miterlimit="10" stroke-width="0.69"/><circle cx="910.28" cy="541.66" r="3.62" fill="#fff" stroke="#231f20" stroke-miterlimit="10" stroke-width="0.69"/><circle cx="961.06" cy="567.65" r="7.4" fill="#fff" stroke="#231f20" stroke-miterlimit="10" stroke-width="0.69"/><circle cx="954.02" cy="582.74" r="3.62" fill="#fff" stroke="#231f20" stroke-miterlimit="10" stroke-width="0.69"/><path d="M1019.52,563.42A65.91,65.91,0,0,0,1001,542.26a59.35,59.35,0,0,0-26.34-11.07,62.37,62.37,0,0,1,21.09,5.74,69.8,69.8,0,0,1,20.55,15.57,64,64,0,0,1,6.86,9,2.06,2.06,0,1,1-3.62,1.94Z" fill="#231f20"/><path d="M930.17,466.24c16.37,11,28,29.38,29.11,49.22a60.84,60.84,0,0,0-3.63-14,63.83,63.83,0,0,0-18.89-25.65,61,61,0,0,0-8.7-6,2.06,2.06,0,1,1,2.11-3.53Z" fill="#231f20"/><path d="M248.86,374.19c-26.1-44.46-50.3-65.5-66.85-64.32-20.13,37.56-12.83,83.67-12.83,83.67S198.57,374.76,248.86,374.19Z" fill="#fffffa" stroke="#020202" stroke-miterlimit="10" stroke-width="4.5"/><path d="M190.53,387.35s-12.38-42.69-2.2-67.94c0,0,26.34,5.5,59.26,60.24C233.79,378.88,202.34,379.75,190.53,387.35Z" fill="#020202"/><path d="M97.24,616.78c-51.46-3.25-81.14-15.37-87.55-30.67,24.44-34.9,68.89-49.17,68.89-49.17S75.07,571.64,97.24,616.78Z" fill="#fffffa" stroke="#020202" stroke-miterlimit="10" stroke-width="4.5"/><path d="M84,560.49s-43.69,8.2-61.63,28.67c0,0,16.79,21,80.48,25.73C96,602.92,82.55,574.46,84,560.49Z" fill="#020202"/><path d="M337.52,410.15l-10.82-5a25,25,0,0,0,7.9-10s3.36-6-1-7.33-7.71,12.69-23.68,5.34l-34-15.63s-11.46-5.27-20.28-3.05a112.43,112.43,0,0,0-129.57,48.29L85.41,488.85A112.43,112.43,0,0,0,98.51,624c-2.82,11,11.86,22.64,11.86,22.64l29.29,23.32c13.76,11,2.71,20.28,5.91,23.55s7-2.41,7-2.41A25,25,0,0,0,158,679.49l9.31,7.41c13.76,11,2.71,20.28,5.91,23.55s7-2.41,7-2.41c8.58-10.78,5.87-21.09,2.06-27.86A112.39,112.39,0,0,0,331.8,640.43l40.64-66.06a112.4,112.4,0,0,0-27.56-148.25c6.36-1.15,13.1-4.79,17.32-14,0,0,3.36-5.95-1-7.33S353.5,417.5,337.52,410.15Z" fill="#d7f9ff" stroke="#231f20" stroke-miterlimit="10" stroke-width="7.19"/><ellipse cx="366.96" cy="610.33" rx="125.07" ry="5.06" transform="translate(-345.16 603.07) rotate(-58.4)" fill="#020202"/><path d="M183.63,517.73c40.49,25.38,31.42,86.15-14.85,98.58-29.32,7.74-60.13-11.23-66.44-40.89-9.78-46.87,40.41-82.41,81.29-57.69Zm-.18.28c-17.56-11-41.48-10.12-58.14,2.24-30.08,21.8-28.35,67.44,3.32,86.87s73.14.47,79-36.21c3.52-20.44-6.46-42.19-24.22-52.9Z" fill="#020202"/><path d="M183.63,517.73c20.31,8.18,31.41,32.56,26.6,53.59a42.65,42.65,0,0,1-9.32,18.95l-.29-.18a52.6,52.6,0,0,0,7-19.18,52.7,52.7,0,0,0-24.2-52.9l.18-.28Z" fill="#020202"/><circle cx="157.16" cy="575.59" r="68.54" fill="none" stroke="#020202" stroke-miterlimit="10" stroke-width="4.35"/><path d="M194.36,494.48a51.1,51.1,0,0,0,70.87-17.92c13.87-23.26,5.74-55.13-17.44-68.92-22.77-14.48-54.9-7.39-69.4,15.5a51.1,51.1,0,0,0,16,71.34Zm-.17.28c-17.92-10.75-28-32.65-24.5-53.26,5.9-37.09,47.85-56.35,79.84-36.7s33.69,65.83,3.24,87.81c-16.81,12.42-40.91,13.3-58.58,2.15Z" fill="#020202"/><path d="M184.52,515.78c33.63,21,26.08,71.57-12.32,81.85-24.35,6.43-49.93-9.33-55.17-34-8.12-38.92,33.55-68.42,67.49-47.9Zm-.14.23a43.7,43.7,0,0,0-48.28,1.86c-25,18-23.52,56,2.76,72.14s60.73.39,65.62-30.07A43.67,43.67,0,0,0,184.38,516Z" fill="#020202"/><path d="M193.44,496.47a42.42,42.42,0,0,0,58.84-14.87c11.52-19.31,4.76-45.78-14.48-57.23-13.81-8.74-32.67-8.25-46.13,1.11-25.13,17.16-24.29,55,1.77,71Zm-.15.24A44,44,0,0,1,173,452.49c4.9-30.8,39.73-46.79,66.3-30.48s28,54.72,2.68,72.92a44,44,0,0,1-48.64,1.78Z" fill="#020202"/><circle cx="164.93" cy="547.33" r="38.3" fill="#020202"/><circle cx="212.89" cy="465.15" r="38.3" fill="#020202"/><circle cx="236.49" cy="446.64" r="68.54" fill="none" stroke="#020202" stroke-miterlimit="10" stroke-width="4.35"/><path d="M214.69,530l-4.6,1.1a4.54,4.54,0,0,1-5.57-4.9l.62-5.81a9.33,9.33,0,0,1,4.19-6.82l4.91-3.17a4.54,4.54,0,0,1,6.88,2.76l1.1,4.61A10.16,10.16,0,0,1,214.69,530Z" fill="#fff" stroke="#231f20" stroke-miterlimit="10" stroke-width="1.8"/><path d="M222.16,526.4s14.74,11.81,5.32,26.06" fill="none" stroke="#020202" stroke-linecap="round" stroke-miterlimit="10" stroke-width="2.3"/><path d="M222.08,525.94S239,534.32,248,519.78" fill="none" stroke="#020202" stroke-linecap="round" stroke-miterlimit="10" stroke-width="2.3"/><path d="M238.51,625.84c30.06,15.45,36.37,41.4,18.19,51.62s-49.83-2.12-49.83-2.12-16.29-4.47-14.11-19S226.79,619.81,238.51,625.84Z" fill="#fff" stroke="#020202" stroke-miterlimit="10" stroke-width="3.15"/><path d="M265.4,668.14s-5.81,6.54-22.59,4.83" fill="none" stroke="#020202" stroke-linecap="round" stroke-linejoin="round" stroke-width="1.8"/><path d="M266.76,654.81a28.75,28.75,0,0,1-19.12,1.62" fill="none" stroke="#020202" stroke-linecap="round" stroke-linejoin="round" stroke-width="1.8"/><path d="M317.11,498.08c27.35,19.87,53.34,13.8,54.27-7S347,447.52,347,447.52s-11.34-12.52-23.31-4S306.44,490.34,317.11,498.08Z" fill="#fff" stroke="#020202" stroke-miterlimit="10" stroke-width="3.15"/><path d="M367,503s3.22-8.13-5.87-22.34" fill="none" stroke="#020202" stroke-linecap="round" stroke-linejoin="round" stroke-width="1.8"/><path d="M355.71,510.24a28.81,28.81,0,0,0-7.19-17.8" fill="none" stroke="#020202" stroke-linecap="round" stroke-linejoin="round" stroke-width="1.8"/><circle cx="158.67" cy="543.55" r="9.72" fill="#fff" stroke="#231f20" stroke-miterlimit="10" stroke-width="0.9"/><circle cx="182.72" cy="542.87" r="4.75" fill="#fff" stroke="#231f20" stroke-miterlimit="10" stroke-width="0.9"/><circle cx="199.58" cy="469.93" r="9.72" fill="#fff" stroke="#231f20" stroke-miterlimit="10" stroke-width="0.9"/><circle cx="221.04" cy="474.07" r="4.75" fill="#fff" stroke="#231f20" stroke-miterlimit="10" stroke-width="0.9"/><path d="M175.52,396.86a86.56,86.56,0,0,0-24.15,39.23,77.28,77.28,0,0,0-2.54,28.2,78.94,78.94,0,0,1-.8-19.13,85.62,85.62,0,0,1,12-36.55,93.36,93.36,0,0,1,8.46-12c1.78-1.8,4.25-6.39,7.2-3.74a2.7,2.7,0,0,1-.19,4Z" fill="#231f20"/><path d="M80.36,541.65c8.76-24.31,28.41-45.16,53.35-52.78a78.15,78.15,0,0,0-16.69,9A83,83,0,0,0,92.56,526a80.51,80.51,0,0,0-7,17.11,2.7,2.7,0,1,1-5.19-1.5Z" fill="#231f20"/><path d="M504.6,166.18c2.9-58.51-7-93.57-23.44-102.76-42.53,23.13-64.32,71.49-64.32,71.49S456.46,135.38,504.6,166.18Z" fill="#fffffa" stroke="#020202" stroke-miterlimit="10" stroke-width="5.11"/><path d="M441,142.33s14.84-48.27,40.24-65.91c0,0,21.6,21.64,18.76,94.15C487.35,161.25,456.93,142.47,441,142.33Z" fill="#020202"/><path d="M209.37,302.18C162.52,267,141.86,237,145.31,218.48c45-17.93,96.09-3.78,96.09-3.78S216.44,245.47,209.37,302.18Z" fill="#fffffa" stroke="#020202" stroke-miterlimit="10" stroke-width="5.11"/><path d="M231.88,240.45S185.27,221,155.46,229.29c0,0,2.85,30.44,60.43,74.59C216.8,288.21,221.8,252.81,231.88,240.45Z" fill="#020202"/><path d="M566.41,255.6c-2.37-3.8-4.82-7.7-7.18-11.47a28.37,28.37,0,0,0,13.76-4.6s6.89-3.56,3.61-7.59-15.23,7.26-25.83-9.68l-22.58-36s-7.6-12.15-17.36-15.54a127.75,127.75,0,0,0-153.2-34.85l-79.77,37.44a127.73,127.73,0,0,0-71.75,136.53c-9.51,8.65-2.85,28.9-2.85,28.9s7.06,21.43,13.3,40.4-10.06,21-9.06,26.06,8.14,2.07,8.14,2.07A28.43,28.43,0,0,0,228,399.58l4.23,12.85c6.24,19-10.07,20.95-9.07,26.05s8.15,2.07,8.15,2.07c14.87-4.9,18.71-16.38,19.31-25.19A127.69,127.69,0,0,0,417.48,470.8l79.78-37.43a127.71,127.71,0,0,0,66.2-158c6.76,2.87,15.43,3.61,25.17-2.49,0,0,6.9-3.56,3.61-7.58S577,272.53,566.41,255.6Z" fill="#d7f9ff" stroke="#231f20" stroke-miterlimit="10" stroke-width="8.17"/><ellipse cx="469.64" cy="464.12" rx="142.11" ry="5.75" transform="translate(-152.68 243.47) rotate(-25.14)" fill="#020202"/><path d="M353.17,261.9c22.69,49.32-23.84,101.47-75.53,84.41C245,335.41,227.49,298.15,240,266.06c19.93-50.65,89.74-53.13,113.18-4.16Zm-.34.16C343,240.62,319.72,226.6,296.2,228c-42.15,2-69,46.43-51,84.61s69.22,46,97.67,14.86c16.06-17.23,20.18-44.13,9.95-65.36Z" fill="#020202"/><path d="M353.17,261.9c14.2,20.4,9.66,50.59-8.11,67.51a48.36,48.36,0,0,1-20.67,12.18l-.16-.35a59.44,59.44,0,0,0,18.63-13.84,60.56,60.56,0,0,0,15.46-42.79,59.6,59.6,0,0,0-5.49-22.55l.34-.16Z" fill="#020202"/><circle cx="291.97" cy="300.38" r="77.87" fill="none" stroke="#020202" stroke-miterlimit="10" stroke-width="4.94"/><path d="M377.86,246.5c9.77,21.33,33.22,35.19,56.59,33.17,40.4-2.74,65.57-45.94,48.28-82.38-17.07-36.66-66.23-44.84-94.23-15.52-16.48,16.69-20.8,43.59-10.64,64.73Zm-.34.16c-10.35-21.37-6.25-48.48,9.91-65.87,28.7-31.56,80.61-23.73,98.73,14.89s-9,83.55-51.65,85.46c-23.7,1.3-47.17-12.86-57-34.48Z" fill="#020202"/><path d="M355.24,260.61c18.81,41-19.79,84.22-62.72,70.08-27.13-9.06-41.62-40-31.26-66.63,16.54-42,74.52-44.1,94-3.45Zm-.29.13c-8.15-17.79-27.48-29.45-47-28.32-35,1.64-57.26,38.53-42.33,70.25s57.45,38.22,81.08,12.33c13.36-14.3,16.75-36.62,8.27-54.26Z" fill="#020202"/><path d="M375.74,247.82a48.19,48.19,0,0,0,65.17,22.53c23-11.16,33-40.52,21.9-63.39-10.46-23.2-39.48-34.23-62.76-23.68a48.21,48.21,0,0,0-24.31,64.54Zm-.29.14c-8.57-17.76-5.19-40.25,8.24-54.69,23.84-26.21,66.9-19.7,82,12.35s-7.49,69.37-42.88,70.95c-19.69,1.1-39.15-10.68-47.33-28.61Z" fill="#020202"/><circle cx="316.96" cy="278.38" r="43.51" fill="#020202"/><circle cx="413.73" cy="230.19" r="43.51" fill="#020202"/><circle cx="447.7" cy="227.3" r="77.87" fill="none" stroke="#020202" stroke-miterlimit="10" stroke-width="4.94"/><path d="M375,293,370,291.12a5.15,5.15,0,0,1-2.23-8.12l4.21-5.14a10.55,10.55,0,0,1,8.22-3.86l6.64,0a5.17,5.17,0,0,1,4.82,6.92L389.8,286A11.55,11.55,0,0,1,375,293Z" fill="#fff" stroke="#231f20" stroke-miterlimit="10" stroke-width="2.04"/><path d="M384.38,294.15s6.64,20.41-11.19,28.08" fill="none" stroke="#020202" stroke-linecap="round" stroke-miterlimit="10" stroke-width="2.62"/><path d="M384.59,293.67s10.85,18.5,28.42,10.26" fill="none" stroke="#020202" stroke-linecap="round" stroke-miterlimit="10" stroke-width="2.62"/><path d="M338,398.82c18.93,33.41,8.75,62-14.89,60.37s-46-33.06-46-33.06-12.69-14.41-1.57-26.83S330.56,385.78,338,398.82Z" fill="#fff" stroke="#020202" stroke-miterlimit="10" stroke-width="3.58"/><path d="M337.13,455.76s-9.59,2.59-24.47-9.49" fill="none" stroke="#020202" stroke-linecap="round" stroke-linejoin="round" stroke-width="2.04"/><path d="M346.73,444a32.7,32.7,0,0,1-19.17-10.39" fill="none" stroke="#020202" stroke-linecap="round" stroke-linejoin="round" stroke-width="2.04"/><path d="M492.23,326.42c13.6,35.91,42.08,46.34,55.95,27.13s4-56.53,4-56.53-3-19-19.63-18.35S486.92,312.41,492.23,326.42Z" fill="#fff" stroke="#020202" stroke-miterlimit="10" stroke-width="3.58"/><path d="M536.55,362.18s8.12-5.72,8.34-24.89" fill="none" stroke="#020202" stroke-linecap="round" stroke-linejoin="round" stroke-width="2.04"/><path d="M521.33,362a32.7,32.7,0,0,0,4.26-21.39" fill="none" stroke="#020202" stroke-linecap="round" stroke-linejoin="round" stroke-width="2.04"/><circle cx="313.37" cy="270.88" r="11.04" fill="#fff" stroke="#231f20" stroke-miterlimit="10" stroke-width="1.02"/><circle cx="336.64" cy="285.22" r="5.4" fill="#fff" stroke="#231f20" stroke-miterlimit="10" stroke-width="1.02"/><circle cx="398.11" cy="226.43" r="11.04" fill="#fff" stroke="#231f20" stroke-miterlimit="10" stroke-width="1.02"/><circle cx="415.92" cy="243.73" r="5.4" fill="#fff" stroke="#231f20" stroke-miterlimit="10" stroke-width="1.02"/><path d="M420.79,142a98.31,98.31,0,0,0-47.4,22.22,87.7,87.7,0,0,0-20,25.21,88.88,88.88,0,0,1,11.15-18.67,97.41,97.41,0,0,1,34.2-27.24,105.73,105.73,0,0,1,15.51-6.13c1.82-.54,3.54-1,5.54-1.44a3.07,3.07,0,1,1,1,6.05Z" fill="#231f20"/><path d="M240.16,220.28C257.89,207,280.08,199.43,302.25,200a89.34,89.34,0,0,1,21.48,3.36,88.06,88.06,0,0,0-42.58,1.6,101.87,101.87,0,0,0-28.73,13.56,76.8,76.8,0,0,0-8.27,6.4,3.07,3.07,0,1,1-4-4.66Z" fill="#231f20"/><path d="M789.67,195.32c26.42-34.69,35.12-60.37,28.89-72.94C782.72,118.67,749,139.17,749,139.17S773.1,156.15,789.67,195.32Z" fill="#fffffa" stroke="#020202" stroke-miterlimit="10" stroke-width="3.8"/><path d="M760.67,153.89s29.43-23.38,52.45-23.51c0,0,4.15,22.38-28.12,65.69C781.16,185,770.4,160.69,760.67,153.89Z" fill="#020202"/><path d="M551.21,154.47c-14-41.3-14-68.42-4.08-78.34,35.15,7.93,60.58,38.14,60.58,38.14S579.43,122.65,551.21,154.47Z" fill="#fffffa" stroke="#020202" stroke-miterlimit="10" stroke-width="3.8"/><path d="M591,126.07s-20.43-31.56-42.2-39c0,0-11.08,19.88,5.67,71.23C561.65,149,579.62,129.41,591,126.07Z" fill="#020202"/><path d="M790,276.22c.14-3.32.29-6.75.43-10.06a21,21,0,0,0,10.38,3s5.73.72,5.41-3.13-12.4-2-11.78-16.82l1.32-31.63s.45-10.66-4.11-16.85a95.08,95.08,0,0,0-79.35-85.9l-64.73-10.62A95.1,95.1,0,0,0,546,157.78c-9.48,1.3-13.91,16.53-13.91,16.53s-4.7,16.12-8.85,30.4-15,8.63-16.54,12.18,4.13,4.7,4.13,4.7a21.14,21.14,0,0,0,10.79.5c-.93,3.18-1.89,6.47-2.82,9.67-4.15,14.28-15,8.62-16.53,12.17s4.13,4.7,4.13,4.7c11.19,3.26,18.38-2.17,22.46-7.33a95,95,0,0,0,79.08,104.3l64.73,10.62A95.07,95.07,0,0,0,779.84,287.1c2.94,4.61,7.94,8.72,16.49,9.08,0,0,5.73.72,5.41-3.14S789.34,291.08,790,276.22Z" fill="#d7f9ff" stroke="#231f20" stroke-miterlimit="10" stroke-width="6.08"/><ellipse cx="642.76" cy="363.46" rx="4.28" ry="105.77" transform="translate(180.07 938.94) rotate(-80.69)" fill="#020202"/><path d="M656.43,190.3c-6.87,39.84-57.34,52.23-81.9,20-15.46-20.46-10.5-50.66,10.68-65.11,33.55-22.68,77.45,5.19,71.22,45.1Zm-.28,0a44.47,44.47,0,0,0-20.4-44.78c-26.7-16.54-61.86-.55-66.91,30.46s23.09,57.38,53.68,50.24a44.48,44.48,0,0,0,33.63-35.92Z" fill="#020202"/><path d="M656.43,190.3c.12,18.52-15.41,35-33.41,38a36.1,36.1,0,0,1-17.81-1.23l0-.28a44.38,44.38,0,0,0,17.26-.65,44.53,44.53,0,0,0,33.63-35.9l.28,0Z" fill="#020202"/><circle cx="602.66" cy="188.15" r="57.96" fill="none" stroke="#020202" stroke-miterlimit="10" stroke-width="3.68"/><path d="M678.07,191.25a43.09,43.09,0,0,0,68.37,41.48c23.89-17.65,22.69-54.36-2.15-70.57-25.88-17-61.21-1.65-66.22,29.09Zm-.28-.05A44.84,44.84,0,0,1,711.61,155c30.91-7.28,59.44,19.37,54.33,50.71s-40.71,47.47-67.68,30.7a44.83,44.83,0,0,1-20.47-45.16Z" fill="#020202"/><path d="M658.24,190.38c-5.59,33-47.7,43.39-68,16.61-12.84-17-8.72-42.06,8.87-54.06,27.8-18.88,64.37,4.41,59.13,37.45Zm-.23,0a36.94,36.94,0,0,0-16.93-37.18c-22.13-13.74-51.41-.43-55.57,25.29s19.22,47.68,44.58,41.71A36.91,36.91,0,0,0,658,190.34Z" fill="#020202"/><path d="M676.21,191.16c-4.21,25.52,19.51,47,44.38,40.44,29.94-8,36.4-47.41,10.6-64.59-21.48-14.16-50.82-1.37-55,24.15Zm-.23,0A37.19,37.19,0,0,1,704.06,161c25.63-6.07,49.38,16.12,45.11,42.1s-33.85,39.43-56.2,25.49a37.22,37.22,0,0,1-17-37.49Z" fill="#020202"/><circle cx="627.27" cy="185.17" r="32.39" fill="#020202"/><circle cx="706.95" cy="196.34" r="32.39" fill="#020202"/><circle cx="729.01" cy="208.87" r="57.96" fill="none" stroke="#020202" stroke-miterlimit="10" stroke-width="3.68"/><path d="M656.77,218.56l-2.34-3.25a3.84,3.84,0,0,1,2.05-5.93l4.74-1.38a7.85,7.85,0,0,1,6.68,1.1l4.06,2.82a3.84,3.84,0,0,1,0,6.27l-3.25,2.34A8.6,8.6,0,0,1,656.77,218.56Z" fill="#fff" stroke="#231f20" stroke-miterlimit="10" stroke-width="1.52"/><path d="M662,223.24s-4.51,15.32-18.68,12.52" fill="none" stroke="#020202" stroke-linecap="round" stroke-miterlimit="10" stroke-width="1.95"/><path d="M662.34,223S661.21,239,675.46,241.3" fill="none" stroke="#020202" stroke-linecap="round" stroke-miterlimit="10" stroke-width="1.95"/><path d="M589.43,267.93c-2.45,28.48-20.73,41.73-34.55,30.78S540.55,259,540.55,259s-1.72-14.18,10.33-17.12S590.39,256.82,589.43,267.93Z" fill="#fff" stroke="#020202" stroke-miterlimit="10" stroke-width="2.66"/><path d="M565,302.54s-7-2.45-11-16.13" fill="none" stroke="#020202" stroke-linecap="round" stroke-linejoin="round" stroke-width="1.52"/><path d="M575.82,299.33a24.32,24.32,0,0,1-7.39-14.45" fill="none" stroke="#020202" stroke-linecap="round" stroke-linejoin="round" stroke-width="1.52"/><path d="M714.61,288.46c-6.77,27.77,6.32,46.16,22.92,40.21s26.24-33,26.24-33,6.17-12.89-4.32-19.53S717.26,277.62,714.61,288.46Z" fill="#fff" stroke="#020202" stroke-miterlimit="10" stroke-width="2.66"/><path d="M726.76,329.07s7.39-.09,15.6-11.76" fill="none" stroke="#020202" stroke-linecap="round" stroke-linejoin="round" stroke-width="1.52"/><path d="M717.48,322.56a24.29,24.29,0,0,0,11.62-11.33" fill="none" stroke="#020202" stroke-linecap="round" stroke-linejoin="round" stroke-width="1.52"/><circle cx="628.22" cy="179.06" r="8.22" fill="#fff" stroke="#231f20" stroke-miterlimit="10" stroke-width="0.76"/><circle cx="636.46" cy="197.66" r="4.02" fill="#fff" stroke="#231f20" stroke-miterlimit="10" stroke-width="0.76"/><circle cx="698.95" cy="187.45" r="8.22" fill="#fff" stroke="#231f20" stroke-miterlimit="10" stroke-width="0.76"/><circle cx="702.6" cy="205.58" r="4.02" fill="#fff" stroke="#231f20" stroke-miterlimit="10" stroke-width="0.76"/><path d="M748.41,145.2A73.16,73.16,0,0,0,710,138.88a65.3,65.3,0,0,0-22.88,7.06,66.33,66.33,0,0,1,14.71-6.77,72.41,72.41,0,0,1,32.45-2.31,77.38,77.38,0,0,1,12.1,2.77c2,.82,6.37,1.28,5.24,4.43a2.29,2.29,0,0,1-3.18,1.14Z" fill="#231f20"/><path d="M604.59,117.17C626.42,116.23,649,124.92,663,142a66.38,66.38,0,0,0-12.41-10.17,70.36,70.36,0,0,0-29.87-10.11,68.92,68.92,0,0,0-15.66,0,2.28,2.28,0,1,1-.47-4.54Z" fill="#231f20"/><polygon points="196.85 732.04 551.92 137.69 906.99 732.04 196.85 732.04"/><path d="M551.92,141.79,903.29,729.94H200.55L551.92,141.79m0-8.19L193.15,734.14H910.69L551.92,133.6Z" fill="#fff"/><path d="M551.92,314.92,755.57,655.8H348.28L551.92,314.92m0-18.26L331.77,665.17h440.3L551.92,296.66Z" fill="#fff"/><path d="M762.09,472.79c35.11-66.1,42.71-112,28.67-131.57C729,344.89,677.56,389,677.56,389S723.13,411.05,762.09,472.79Z" fill="#fffffa" stroke="#020202" stroke-miterlimit="10" stroke-width="6.53"/><path d="M701.45,410.68s43.37-47.78,82.32-54.39c0,0,13.23,36.75-29.4,119.07C744.82,457.72,719.83,419.5,701.45,410.68Z" fill="#020202"/><path d="M346.84,469.85c-35.11-66.1-42.71-112-28.67-131.57,61.74,3.67,113.19,47.77,113.19,47.77S385.79,408.11,346.84,469.85Z" fill="#fffffa" stroke="#020202" stroke-miterlimit="10" stroke-width="6.53"/><path d="M406.37,410.68S363,362.9,324.05,356.29c0,0-13.23,36.75,29.4,119.07C363,457.72,388,419.5,406.37,410.68Z" fill="#020202"/><path d="M785.05,609.75c-.69-5.68-1.39-11.51-2.08-17.16a36.23,36.23,0,0,0,18.41,2.14s9.91-.37,8.3-6.81-21.55.13-24.63-25.21-6.54-54-6.54-54-2.2-18.18-11.65-27.4A163.2,163.2,0,0,0,608.6,357.91H496a163.18,163.18,0,0,0-157.07,119c-15.7,4.84-19,31.88-19,31.88s-3.46,28.61-6.54,54-23,18.77-24.62,25.21,8.3,6.81,8.3,6.81a36.17,36.17,0,0,0,18.4-2.14c-.68,5.65-1.39,11.48-2.08,17.16-3.07,25.34-23,18.77-24.62,25.21s8.3,6.81,8.3,6.81c19.86,2.41,30.53-8.78,36-18.64A163.13,163.13,0,0,0,496,777.82H608.6A163.15,163.15,0,0,0,770.92,631c6.26,7,15.88,12.55,30.46,10.78,0,0,9.91-.37,8.3-6.81S788.13,635.09,785.05,609.75Z" fill="#d7f9ff" stroke="#231f20" stroke-miterlimit="10" stroke-width="10.44"/><ellipse cx="559.96" cy="798.4" rx="181.55" ry="7.35" fill="#020202"/><path d="M535,501.31c-.53,69.36-82.65,104.41-133.17,56.63C370,527.6,370,475,401.85,444.69,452.39,396.93,534.47,432,535,501.31Zm-.48,0c.3-30.11-19-59-47-70.19-49.81-20.61-105,16.26-104.88,70.19-.1,53.93,55.07,90.79,104.88,70.19,27.94-11.21,47.3-40.08,47-70.19Z" fill="#020202"/><path d="M535,501.31c5.35,31.3-16.29,63.75-46,73.67a61.75,61.75,0,0,1-30.52,2.87v-.49a77.77,77.77,0,0,0,29-5.93c23-9.5,40.66-30.83,45.43-55.31a76.62,76.62,0,0,0,1.58-14.81Z" fill="#020202"/><circle cx="443.34" cy="512.59" r="99.49" fill="none" stroke="#020202" stroke-miterlimit="10" stroke-width="6.31"/><path d="M571.92,496.9c-.28,30,19.33,58.72,47.45,69.07,48.21,18.75,100.76-17.54,100.55-69.07.15-51.66-52.26-87.81-100.56-69.09-28.12,10.36-47.72,39.11-47.44,69.09Zm-.48,0c-.37-30.34,19.08-59.46,47.21-70.81C669,405.17,724.76,442.4,724.76,496.9S669,588.63,618.65,567.7c-28.13-11.35-47.59-40.47-47.21-70.8Z" fill="#020202"/><path d="M538.1,500.93c-.44,57.59-68.62,86.7-110.57,47-26.47-25.18-26.46-68.84,0-94,42-39.65,110.12-10.57,110.56,47Zm-.4,0c.25-25-15.82-49-39-58.28-41.36-17.11-87.17,13.51-87.09,58.28-.08,44.78,45.73,75.39,87.09,58.28,23.19-9.3,39.27-33.28,39-58.28Z" fill="#020202"/><path d="M568.75,497.27c-.23,24.89,16,48.76,39.39,57.35,40,15.57,83.67-14.56,83.49-57.35.13-42.89-43.39-72.91-83.49-57.36-23.35,8.6-39.62,32.47-39.39,57.36Zm-.4,0c-.31-25.18,15.84-49.37,39.2-58.79,41.78-17.37,88.1,13.54,88.1,58.79s-46.33,76.17-88.1,58.79c-23.35-9.42-39.51-33.6-39.2-58.79Z" fill="#020202"/><circle cx="484.18" cy="500.71" r="55.59" fill="#020202"/><circle cx="622.26" cy="497.5" r="55.59" fill="#020202"/><circle cx="663.11" cy="512.59" r="99.49" fill="none" stroke="#020202" stroke-miterlimit="10" stroke-width="6.31"/><path d="M543.43,549.07l-4.86-4.85a6.6,6.6,0,0,1,1.82-10.62l7.66-3.65a13.49,13.49,0,0,1,11.61,0l7.65,3.65a6.6,6.6,0,0,1,1.83,10.62l-4.86,4.85A14.74,14.74,0,0,1,543.43,549.07Z" fill="#fff" stroke="#231f20" stroke-miterlimit="10" stroke-width="2.61"/><path d="M553.6,555.55s-3.4,27.2-28.17,26.39" fill="none" stroke="#020202" stroke-linecap="round" stroke-miterlimit="10" stroke-width="3.34"/><path d="M554.1,555.1s2.51,27.29,27.3,27.29" fill="none" stroke="#020202" stroke-linecap="round" stroke-miterlimit="10" stroke-width="3.34"/><path d="M443.09,651.4c3.76,48.92-23.52,76.44-50,61.74s-35.28-63.21-35.28-63.21-6.86-23.55,12.74-31.88S441.63,632.31,443.09,651.4Z" fill="#fff" stroke="#020202" stroke-miterlimit="10" stroke-width="4.57"/><path d="M411.24,716.81s-12.49-2.2-23.15-24.25" fill="none" stroke="#020202" stroke-linecap="round" stroke-linejoin="round" stroke-width="2.61"/><path d="M428.76,708.36a41.76,41.76,0,0,1-16.54-22.42" fill="none" stroke="#020202" stroke-linecap="round" stroke-linejoin="round" stroke-width="2.61"/><path d="M660.82,651.4c-3.76,48.92,23.52,76.44,50,61.74s35.28-63.21,35.28-63.21,6.87-23.55-12.73-31.88S662.29,632.31,660.82,651.4Z" fill="#fff" stroke="#020202" stroke-miterlimit="10" stroke-width="4.57"/><path d="M692.67,716.81s12.5-2.2,23.16-24.25" fill="none" stroke="#020202" stroke-linecap="round" stroke-linejoin="round" stroke-width="2.61"/><path d="M675.15,708.36a41.76,41.76,0,0,0,16.54-22.42" fill="none" stroke="#020202" stroke-linecap="round" stroke-linejoin="round" stroke-width="2.61"/><circle cx="484.11" cy="490.09" r="14.1" fill="#fff" stroke="#231f20" stroke-miterlimit="10" stroke-width="1.31"/><circle cx="503.23" cy="519.31" r="6.9" fill="#fff" stroke="#231f20" stroke-miterlimit="10" stroke-width="1.31"/><circle cx="606.24" cy="484.67" r="14.1" fill="#fff" stroke="#231f20" stroke-miterlimit="10" stroke-width="1.31"/><circle cx="617.45" cy="514.35" r="6.9" fill="#fff" stroke="#231f20" stroke-miterlimit="10" stroke-width="1.31"/><path d="M678.27,399.36a125.55,125.55,0,0,0-66.87,0,112.31,112.31,0,0,0-36.78,18.32,113.81,113.81,0,0,1,35.88-21.11A129.24,129.24,0,0,1,652,389.16a131.62,131.62,0,0,1,24.82,1.92c1.2.22,2.32.44,3.64.76a3.92,3.92,0,1,1-2.17,7.52Z" fill="#231f20"/><path d="M426.9,391.84c27.68-5.74,57.49-2.45,82.79,10.26a114.69,114.69,0,0,1,23,15.55,112.55,112.55,0,0,0-50.12-21.26,130,130,0,0,0-40.58.09,96.41,96.41,0,0,0-13,2.9,3.92,3.92,0,1,1-2.11-7.54Z" fill="#231f20"/></svg>