<svg id="Layer_1" data-name="Layer 1" xmlns="http://www.w3.org/2000/svg" viewBox="0 0 379.46 317.59"><polygon points="379.46 317.59 0 317.59 189.73 0 379.46 317.59"/><path d="M147.47,129.2l-4.29-9a9.22,9.22,0,0,1-1.19.66l4.57,9.1C146.88,129.72,147.17,129.46,147.47,129.2Z" transform="translate(-4.21 -6.27)" fill="#fff"/><path d="M149.52,132.86l-.88.7,2.88,5a1.46,1.46,0,0,1,1-.39Z" transform="translate(-4.21 -6.27)" fill="#fff"/><path d="M130.2,142.05a17.17,17.17,0,0,1-1.19,1.37l9.06,9.83a1.38,1.38,0,0,1,1.21-.2Z" transform="translate(-4.21 -6.27)" fill="#fff"/><path d="M136.79,132.1l-.36.31-.46.39-.1.09-.4.38,6.11,8.69a5.07,5.07,0,0,0,.54-.36l.06,0,.1-.1.16-.21Z" transform="translate(-4.21 -6.27)" fill="#fff"/><path d="M144.91,144.62a5.91,5.91,0,0,1-.85.64l7.59,10.1a1.75,1.75,0,0,1,.46-.93Z" transform="translate(-4.21 -6.27)" fill="#fff"/><path d="M144.42,152.38a1.27,1.27,0,0,1,.11-.13L133.46,138a4.39,4.39,0,0,1-.55.6l-.37.33,11.38,14.13C144.09,152.85,144.26,152.62,144.42,152.38Z" transform="translate(-4.21 -6.27)" fill="#fff"/><path d="M147.23,155.49a8.87,8.87,0,0,1-.59.78l2.5,2.92.7-.58Z" transform="translate(-4.21 -6.27)" fill="#fff"/><path d="M143,132a5.32,5.32,0,0,1-.93.71L153.39,150a2,2,0,0,1,1-.12Z" transform="translate(-4.21 -6.27)" fill="#fff"/><path d="M153.63,129.47a2.26,2.26,0,0,1,.37-.26l-6.19-15a4.81,4.81,0,0,1-.76.51,2.48,2.48,0,0,1-.73.27L153,129.68A1.68,1.68,0,0,1,153.63,129.47Z" transform="translate(-4.21 -6.27)" fill="#fff"/><path d="M155.8,132.94a3.54,3.54,0,0,1-1,.48l5.92,11.93a1.64,1.64,0,0,1,1,.1Z" transform="translate(-4.21 -6.27)" fill="#fff"/><path d="M167.09,82.13l0-2.13a7.93,7.93,0,0,1-1.91.63l.34,2C166,82.46,166.55,82.29,167.09,82.13Z" transform="translate(-4.21 -6.27)" fill="#fff"/><path d="M172.6,109.73l-4.7-23.54c-.52.16-1,.33-1.54.51l5,23.46C171.78,110,172.19,109.86,172.6,109.73Z" transform="translate(-4.21 -6.27)" fill="#fff"/><path d="M177.77,135.55l-4.35-21.75-1.18.43,4.56,21.33A1.88,1.88,0,0,1,177.77,135.55Z" transform="translate(-4.21 -6.27)" fill="#fff"/><path d="M177.68,139.71l.71,3.31a2,2,0,0,1,.83-.24l-.72-3.59A2.24,2.24,0,0,1,177.68,139.71Z" transform="translate(-4.21 -6.27)" fill="#fff"/><path d="M173.71,70.14a5.53,5.53,0,0,1-.68.19,2.9,2.9,0,0,1-1.4-.08L173.43,85a1.74,1.74,0,0,1,.39,0h1.24Z" transform="translate(-4.21 -6.27)" fill="#fff"/><path d="M175.63,89.05l-.21,0a1.91,1.91,0,0,1-1,.28,2.85,2.85,0,0,1-.29,0L179.87,127a2.3,2.3,0,0,1,.26,0,2.23,2.23,0,0,1,.88.18Z" transform="translate(-4.21 -6.27)" fill="#fff"/><path d="M181.52,130.76a1.89,1.89,0,0,1-1,.31l1.21,7.86a2.34,2.34,0,0,1,.51-.23,1.92,1.92,0,0,1,.38-.25Z" transform="translate(-4.21 -6.27)" fill="#fff"/><path d="M182,70.2l-1.4-12.49c-.49.15-1,.29-1.49.41a2.63,2.63,0,0,1-.83.08l1.94,12.19C180.83,70.34,181.42,70.25,182,70.2Z" transform="translate(-4.21 -6.27)" fill="#fff"/><path d="M183.54,107.48l2.12,23.86a2,2,0,0,1,1,.08l-1.83-23.94Z" transform="translate(-4.21 -6.27)" fill="#fff"/><path d="M184.54,103.37,182.32,74.3c-.57,0-1.14.14-1.72.19l2.57,28.88Z" transform="translate(-4.21 -6.27)" fill="#fff"/><path d="M155,98.29a8.66,8.66,0,0,1-1.39.62L162.1,123c.38-.15.75-.32,1.12-.49Z" transform="translate(-4.21 -6.27)" fill="#fff"/><path d="M163.47,126.88l1.33,3.78a2,2,0,0,1,1.12-.16l-1.38-4.09C164.19,126.58,163.83,126.74,163.47,126.88Z" transform="translate(-4.21 -6.27)" fill="#fff"/><path d="M156.33,119.69l-4.15-12c-.51.33-1,.64-1.56.94l4.62,11.65C155.59,120,156,119.86,156.33,119.69Z" transform="translate(-4.21 -6.27)" fill="#fff"/><path d="M163,138.08c.18-.13.35-.25.51-.39l.09-.07-5.69-14.11-.29.12c-.09.05-.25.13-.3.17s-.29.18-.44.27l5.93,14.14Z" transform="translate(-4.21 -6.27)" fill="#fff"/><path d="M164.39,142.09l1.83,4.35a1.74,1.74,0,0,1,.77-.31l-1.84-4.57C164.9,141.74,164.65,141.92,164.39,142.09Z" transform="translate(-4.21 -6.27)" fill="#fff"/><path d="M162.3,99.62c.24-.15.48-.3.7-.47,0,0,0,0,0,0l-1.41-8a16,16,0,0,1-1.92,1l2,7.8A5.28,5.28,0,0,0,162.3,99.62Z" transform="translate(-4.21 -6.27)" fill="#fff"/><path d="M168.85,125l.4-.23c.19-.11.36-.23.54-.35l-5.65-21.08a8,8,0,0,1-1.3.6L168.78,125Z" transform="translate(-4.21 -6.27)" fill="#fff"/><path d="M170.9,128.51a10.16,10.16,0,0,1-1,.46l2.89,10.25.16.07a1.66,1.66,0,0,1,.33-.15,1.7,1.7,0,0,1,.45-.08Z" transform="translate(-4.21 -6.27)" fill="#fff"/><path d="M188.28,44.4l1,30.7H191l-.52-30.83C189.76,44.35,189,44.38,188.28,44.4Z" transform="translate(-4.21 -6.27)" fill="#fff"/><path d="M191.07,122.24l.05,0,.23,0h0l.25,0-.57-43.12H189.4l1.1,42.88A2.19,2.19,0,0,1,191.07,122.24Z" transform="translate(-4.21 -6.27)" fill="#fff"/><path d="M191.68,126.41a6.27,6.27,0,0,1-1.07-.08l.19,7.14a1.69,1.69,0,0,1,1,.9l-.11-8Z" transform="translate(-4.21 -6.27)" fill="#fff"/><path d="M107.72,176.64a6.46,6.46,0,0,1-.13,1.25l17.86,7,.43-.86Z" transform="translate(-4.21 -6.27)" fill="#fff"/><path d="M129.7,185.55c-.13.27-.26.54-.4.81l3.87,1.51c.1-.27.22-.52.32-.79Z" transform="translate(-4.21 -6.27)" fill="#fff"/><path d="M122.85,191.4l-10-2.7a3.37,3.37,0,0,1-.38,1l10.39,2.65A1.57,1.57,0,0,1,122.85,191.4Z" transform="translate(-4.21 -6.27)" fill="#fff"/><path d="M102.74,192v1.18l9.83,1.85a1.48,1.48,0,0,1,.52-.94Z" transform="translate(-4.21 -6.27)" fill="#fff"/><path d="M97.57,197.39a4.74,4.74,0,0,1-.22,1.46,0,0,0,0,1,0,0l17.83,1.75c.07-.34.13-.67.17-1Z" transform="translate(-4.21 -6.27)" fill="#fff"/><path d="M119.4,200.17c0,.32-.08.64-.13,1l6.9.85c0-.3.07-.59.11-.89Z" transform="translate(-4.21 -6.27)" fill="#fff"/><path d="M114,166.74c-.21.42-.45.82-.69,1.22l9.36,4.66a2,2,0,0,1-.15-1.28Z" transform="translate(-4.21 -6.27)" fill="#fff"/><path d="M117.53,174.09a10.44,10.44,0,0,1-.41,1l14.73,6.87c.12-.26.25-.51.37-.77Z" transform="translate(-4.21 -6.27)" fill="#fff"/><path d="M122.8,152.75c-.19.35-.84,1.19-1.06,1.52l14.42,10.38a1.91,1.91,0,0,1,1-.39Z" transform="translate(-4.21 -6.27)" fill="#fff"/><path d="M125.7,162a6.81,6.81,0,0,0,.33-.73l0,0-3.16-3.5a.79.79,0,0,0-1.17.19h0a.78.78,0,0,0,.17,1.06l3.7,3.25Z" transform="translate(-4.21 -6.27)" fill="#fff"/><path d="M129.42,163.72c-.15.32-.31.64-.47.95l9.12,6.53c.17-.24.36-.48.54-.72Z" transform="translate(-4.21 -6.27)" fill="#fff"/><path d="M126.45,149c0-.08.12-.17.13-.2l.18-.3c0-.09.1-.18.14-.27l-1.48-2.19a5.63,5.63,0,0,1-.42.76,2.57,2.57,0,0,1-.45.53l1.71,1.92C126.32,149.2,126.39,149.12,126.45,149Z" transform="translate(-4.21 -6.27)" fill="#fff"/><path d="M130,151.14c-.21.32-.43.64-.66.93l11,10.1a1.93,1.93,0,0,1,.72-.64Z" transform="translate(-4.21 -6.27)" fill="#fff"/><path d="M118.34,162.39l-.11.19a2.79,2.79,0,0,1-.7.75l14.22,9a1.67,1.67,0,0,1,.74-.65Z" transform="translate(-4.21 -6.27)" fill="#fff"/><path d="M271,196.39c0-.08-.05-.26-.07-.36a1.22,1.22,0,0,0-.07-.17h0l-8.9,1.62a1.49,1.49,0,0,1-.35,1l9.41-1.59C271,196.71,271,196.55,271,196.39Z" transform="translate(-4.21 -6.27)" fill="#fff"/><path d="M287.81,193.13l-12.89,2a5.51,5.51,0,0,1,.15,1.08l13-1.73A8.49,8.49,0,0,1,287.81,193.13Z" transform="translate(-4.21 -6.27)" fill="#fff"/><path d="M268.7,163.71l-3.85,2.37a1.81,1.81,0,0,1,.37,1l4.06-2.43C269.07,164.36,268.88,164,268.7,163.71Z" transform="translate(-4.21 -6.27)" fill="#fff"/><path d="M262.52,174.54l12.15-5.66.13-1.56h0a.4.4,0,0,0-.41,0L262,173.64Q262.25,174.09,262.52,174.54Z" transform="translate(-4.21 -6.27)" fill="#fff"/><path d="M258.86,176.42l-.24-.43c-.08-.14-.15-.28-.24-.42l-4.81,2.55a1.72,1.72,0,0,1,0,1Z" transform="translate(-4.21 -6.27)" fill="#fff"/><path d="M280.8,177.52c-.1-.16-.62-.79-.13-.26a2.58,2.58,0,0,1-.62-1l-10,4.37a5.87,5.87,0,0,1,.5.88l10.33-3.87A1.34,1.34,0,0,1,280.8,177.52Z" transform="translate(-4.21 -6.27)" fill="#fff"/><path d="M266.68,183c-.11-.14-.21-.26,0,0h0a2.73,2.73,0,0,1-.5-.81l-7.7,3a1.75,1.75,0,0,1,.07.85Z" transform="translate(-4.21 -6.27)" fill="#fff"/><path d="M277.6,171.42,265,177.21a1.41,1.41,0,0,1-.17.32,3.56,3.56,0,0,1,.46.6l12.9-5.72C278,172.08,277.81,171.75,277.6,171.42Z" transform="translate(-4.21 -6.27)" fill="#fff"/><path d="M251.24,164.34h0l0,0-.23-.17-4.73,3.77a1.36,1.36,0,0,1,.74.38l0,0,4.58-3.56C251.48,164.62,251.35,164.49,251.24,164.34Z" transform="translate(-4.21 -6.27)" fill="#fff"/><path d="M254.43,161.78a2.69,2.69,0,0,1,.27.32l.13.15,10.46-8.44-.31-.36v0l-.05,0a2.73,2.73,0,0,1-.49-.41l-10.23,8.55Z" transform="translate(-4.21 -6.27)" fill="#fff"/><path d="M266.8,159.54a2.1,2.1,0,0,1-.34-1L251.4,169c.13.22.27.43.42.64l.12.16,15-10.07Z" transform="translate(-4.21 -6.27)" fill="#fff"/><path d="M285.07,186.4l-9.8,3.18a5.42,5.42,0,0,1,.28,1l10-2.79C285.42,187.35,285.25,186.88,285.07,186.4Z" transform="translate(-4.21 -6.27)" fill="#fff"/><path d="M271.51,191.2a1.56,1.56,0,0,1-.05-.16l-.11-.2a1.19,1.19,0,0,1-.13-.25l-14.82,3.7c.07.27.14.54.2.82l14.92-3.53C271.52,191.46,271.52,191.33,271.51,191.2Z" transform="translate(-4.21 -6.27)" fill="#fff"/><path d="M291.43,198.54l-16.85,2a1.9,1.9,0,0,1,.49,1l16.82-1.76C291.74,199.36,291.59,199,291.43,198.54Z" transform="translate(-4.21 -6.27)" fill="#fff"/><path d="M283.63,182.46c-.05-.13-.11-.26-.17-.39l-13.67,4.14a1.84,1.84,0,0,1,.28,1l13.82-3.9C283.81,183,283.73,182.73,283.63,182.46Z" transform="translate(-4.21 -6.27)" fill="#fff"/><path d="M260.84,149.32a2.6,2.6,0,0,1-.84-.77l-13.74,13.39a.92.92,0,0,1,.21.17c.16.08.32.17.49.24l.1,0,14.13-12.85C261.07,149.47,261,149.4,260.84,149.32Z" transform="translate(-4.21 -6.27)" fill="#fff"/><path d="M244.59,121.58l-.05,0-4.18,7.34a6.88,6.88,0,0,1,1,.71l4.65-7.3A8.51,8.51,0,0,1,244.59,121.58Z" transform="translate(-4.21 -6.27)" fill="#fff"/><path d="M238.5,132.57l-.13-.09-.06,0h0l-8.86,15.13a1.68,1.68,0,0,1,.7.67l9.06-15A8.05,8.05,0,0,0,238.5,132.57Z" transform="translate(-4.21 -6.27)" fill="#fff"/><path d="M220.75,78.88l-.12-.07-4.57,25.67a2,2,0,0,1,1.09.2l.26.13,5.09-25.49A5,5,0,0,1,220.75,78.88Z" transform="translate(-4.21 -6.27)" fill="#fff"/><path d="M215.32,108.37a.47.47,0,0,0-.09-.06l-7,32a1.62,1.62,0,0,1,.89.28l7.35-31.69Z" transform="translate(-4.21 -6.27)" fill="#fff"/><path d="M233.51,100.31l-.58-.23-.15,0a2.65,2.65,0,0,1-.42-.18l-3.14,8.74h0a2.1,2.1,0,0,1,1.28.41l3.38-8.49A3,3,0,0,0,233.51,100.31Z" transform="translate(-4.21 -6.27)" fill="#fff"/><path d="M228,112l-9.82,27.43a2.21,2.21,0,0,1,.68.89l10.32-27.68A1.94,1.94,0,0,1,228,112Z" transform="translate(-4.21 -6.27)" fill="#fff"/><path d="M217.2,143.16a2,2,0,0,1-.35,0l-1.63,4.55.78.31,1.84-4.93A2.09,2.09,0,0,1,217.2,143.16Z" transform="translate(-4.21 -6.27)" fill="#fff"/><path d="M216.93,126.47l-1.62,5.65a1.88,1.88,0,0,1,.94.57l1.73-5.76A2,2,0,0,1,216.93,126.47Z" transform="translate(-4.21 -6.27)" fill="#fff"/><path d="M218,122.86a2.05,2.05,0,0,1,1.1.3l8.53-28.43c-.31-.19-.61-.4-.9-.61l-.26-.2-.18-.1h0l-8.34,29Z" transform="translate(-4.21 -6.27)" fill="#fff"/><path d="M206,74.34h.94a2.79,2.79,0,0,1,.58.07l1.31-12.26-.13,0a13,13,0,0,1-1.77-.09l-1.15,12.19Z" transform="translate(-4.21 -6.27)" fill="#fff"/><path d="M205.39,78.39l-1.45,15.39.08,0a12.49,12.49,0,0,0,1.23.37l.15,0,1.68-15.75A15.92,15.92,0,0,1,205.39,78.39Z" transform="translate(-4.21 -6.27)" fill="#fff"/><path d="M203.55,97.94l-.9,9.57a1.18,1.18,0,0,1,.27,0,6,6,0,0,1,1,.12l1-9.32A11.61,11.61,0,0,1,203.55,97.94Z" transform="translate(-4.21 -6.27)" fill="#fff"/><path d="M203.11,111.6c-.17,0-.57,0,.09,0a2.85,2.85,0,0,1-.92-.19l-1.6,17a1.37,1.37,0,0,1,1,.7l1.87-17.43Z" transform="translate(-4.21 -6.27)" fill="#fff"/><path d="M207.27,125.49l-.08,0-.68-.26-1.62,10.2a2,2,0,0,1,.9.47l1.77-10.26Z" transform="translate(-4.21 -6.27)" fill="#fff"/><path d="M208.09,121.42l.17.07,2.92-17-1.29-.64-2.75,17.35A2.11,2.11,0,0,1,208.09,121.42Z" transform="translate(-4.21 -6.27)" fill="#fff"/><path d="M211.38,100l.53.26,4.65-30.76c-.31-.1-.63-.21-.95-.28a5,5,0,0,0-.53-.11c-.08,0-.66,0-.15,0l-.25,0L210.54,99.8A2,2,0,0,1,211.38,100Z" transform="translate(-4.21 -6.27)" fill="#fff"/><path d="M228.67,127.73a3.87,3.87,0,0,1,.34.21l7.93-19.65a2.33,2.33,0,0,1-.24-.19l-.31-.18c-.34-.18-.68-.37-1-.58l-7.46,20.18A1.88,1.88,0,0,1,228.67,127.73Z" transform="translate(-4.21 -6.27)" fill="#fff"/><path d="M227.06,131.54h0l-.2-.11a1.87,1.87,0,0,1-.45-.33l-5.54,13a1.69,1.69,0,0,1,.8.53l5.66-12.88A3,3,0,0,0,227.06,131.54Z" transform="translate(-4.21 -6.27)" fill="#fff"/><path d="M240.92,115.72a3.56,3.56,0,0,1-.52-.24L232.1,132a3.3,3.3,0,0,1,1,.41L241.77,116Z" transform="translate(-4.21 -6.27)" fill="#fff"/><path d="M252.39,135.07l-.14-.15a7.29,7.29,0,0,0-.93-.73L240,148.24a3.76,3.76,0,0,1,.93.42l11.53-13.54S252.41,135.08,252.39,135.07Z" transform="translate(-4.21 -6.27)" fill="#fff"/><path d="M237.55,151.73a.7.7,0,0,1-.16-.1l-4.74,6.23.7.46,4.94-6.31A6.61,6.61,0,0,1,237.55,151.73Z" transform="translate(-4.21 -6.27)" fill="#fff"/><path d="M254.68,140.17a2,2,0,0,1-.2-.22l-12.8,13.9a1.7,1.7,0,0,1,1,.35l13-13.32C255.32,140.63,255,140.44,254.68,140.17Z" transform="translate(-4.21 -6.27)" fill="#fff"/><path d="M197.43,71.26h.82a2.48,2.48,0,0,1,.68.1l.62-26.85c-.79,0-1.59,0-2.38-.12v26.9A2.06,2.06,0,0,1,197.43,71.26Z" transform="translate(-4.21 -6.27)" fill="#fff"/><path d="M196.2,134.49l2.56-59.15-.22,0h-.83a2.52,2.52,0,0,1-.67-.09l-1.82,59.14C195.55,134.43,195.88,134.45,196.2,134.49Z" transform="translate(-4.21 -6.27)" fill="#fff"/><path d="M196,138.61l-.77-.11h-.15l-.16,5.06.87,0,.21-5Z" transform="translate(-4.21 -6.27)" fill="#fff"/><path d="M246.33,131.42a2,2,0,0,1-.74-.65L235.5,145.91a1.89,1.89,0,0,1,.68.75l10.36-15.13Z" transform="translate(-4.21 -6.27)" fill="#fff"/><path d="M134.08,306.71a9.76,9.76,0,0,0-1.23-.91l4-7a5,5,0,0,1,1.27.63Z" transform="translate(-4.21 -6.27)" fill="#fff"/><path d="M147.47,282.84l-7.29,13a8.1,8.1,0,0,0-1.19-.65l7.57-13.11C146.88,282.32,147.17,282.58,147.47,282.84Z" transform="translate(-4.21 -6.27)" fill="#fff"/><path d="M149.52,279.18l-.88-.7,2.88-5a1.45,1.45,0,0,0,1,.38Z" transform="translate(-4.21 -6.27)" fill="#fff"/><path d="M96.2,305A17.17,17.17,0,0,0,95,303.62l43.06-44.83a1.38,1.38,0,0,0,1.21.2Z" transform="translate(-4.21 -6.27)" fill="#fff"/><path d="M115.79,306.94l-.36-.32-.46-.39-.1-.08-.4-.38,27.11-35.69a5,5,0,0,1,.54.35l.06.05.1.11a1.56,1.56,0,0,0,.16.2Z" transform="translate(-4.21 -6.27)" fill="#fff"/><path d="M144.91,267.42a5.91,5.91,0,0,0-.85-.64l7.59-10.11a1.74,1.74,0,0,0,.46.94Z" transform="translate(-4.21 -6.27)" fill="#fff"/><path d="M103.16,306.55l21.72-25.37.07.06,0,0,.17.18.1.1a2.33,2.33,0,0,0,.56.61q-10.2,12.19-20.39,24.4Z" transform="translate(-4.21 -6.27)" fill="#fff"/><path d="M144.42,259.66a.63.63,0,0,0,.11.12L128.46,279a3.81,3.81,0,0,0-.55-.59l-.37-.33L143.92,259C144.09,259.18,144.26,259.42,144.42,259.66Z" transform="translate(-4.21 -6.27)" fill="#fff"/><path d="M147.23,256.54a8.87,8.87,0,0,0-.59-.78l2.5-2.91.7.58Z" transform="translate(-4.21 -6.27)" fill="#fff"/><path d="M128.67,302.4a6.59,6.59,0,0,0-1-1.2l12.13-18.46,0,0,.18.07.25.2a6.65,6.65,0,0,1,.45.57Z" transform="translate(-4.21 -6.27)" fill="#fff"/><path d="M143,280a5.8,5.8,0,0,0-.93-.7L153.39,262a1.8,1.8,0,0,0,1,.12Z" transform="translate(-4.21 -6.27)" fill="#fff"/><path d="M153.63,282.57a3.09,3.09,0,0,0,.37.26l-11.19,24a5.67,5.67,0,0,0-.76-.52,3.21,3.21,0,0,0-.73-.27L153,282.36A1.87,1.87,0,0,0,153.63,282.57Z" transform="translate(-4.21 -6.27)" fill="#fff"/><path d="M155.8,279.09a3.51,3.51,0,0,0-1-.47l5.92-11.93a1.64,1.64,0,0,0,1-.1Z" transform="translate(-4.21 -6.27)" fill="#fff"/><path d="M177.77,276.49l-4.35,21.74-1.18-.42,4.56-21.33A2.12,2.12,0,0,0,177.77,276.49Z" transform="translate(-4.21 -6.27)" fill="#fff"/><path d="M177.68,272.33l.71-3.31a1.84,1.84,0,0,0,.83.23l-.72,3.59A2.35,2.35,0,0,0,177.68,272.33Z" transform="translate(-4.21 -6.27)" fill="#fff"/><path d="M177.63,306l-.21,0a1.83,1.83,0,0,0-1-.29,2.85,2.85,0,0,0-.29,0L179.87,284l.26,0a2.23,2.23,0,0,0,.88-.17Z" transform="translate(-4.21 -6.27)" fill="#fff"/><path d="M181.52,280.28a1.9,1.9,0,0,0-1-.32l1.21-7.86a2.9,2.9,0,0,1,.89.49Z" transform="translate(-4.21 -6.27)" fill="#fff"/><path d="M183.54,304.56l2.12-23.87a1.92,1.92,0,0,0,1-.07l-1.83,23.94Z" transform="translate(-4.21 -6.27)" fill="#fff"/><path d="M157,306.75a8.66,8.66,0,0,0-1.39-.62L162.1,289c.38.15.75.31,1.12.49Z" transform="translate(-4.21 -6.27)" fill="#fff"/><path d="M163.47,285.15l1.33-3.77a1.87,1.87,0,0,0,1.12.15l-1.38,4.09C164.19,285.45,163.83,285.3,163.47,285.15Z" transform="translate(-4.21 -6.27)" fill="#fff"/><path d="M163,274a4.91,4.91,0,0,1,.51.39l.09.07-5.69,14.1-.29-.11-.3-.17-.44-.28,5.93-14.13Z" transform="translate(-4.21 -6.27)" fill="#fff"/><path d="M164.39,270l1.83-4.35a1.87,1.87,0,0,0,.77.31l-1.84,4.56Z" transform="translate(-4.21 -6.27)" fill="#fff"/><path d="M168.85,287.08l.4.23.54.34-4.65,19.08a8.94,8.94,0,0,0-1.3-.59l4.94-19.09Z" transform="translate(-4.21 -6.27)" fill="#fff"/><path d="M170.9,283.53a8.27,8.27,0,0,0-1-.46l2.89-10.25.16-.08a1.68,1.68,0,0,0,.33.16,1.7,1.7,0,0,0,.45.08Z" transform="translate(-4.21 -6.27)" fill="#fff"/><path d="M191.07,288.8l.05,0,.23,0h0l.25,0,.43,17.12h-1.59s0,0-.08-1l.1-16.88C190.7,288.93,190.89,288.88,191.07,288.8Z" transform="translate(-4.21 -6.27)" fill="#fff"/><path d="M191.68,284.62a7.48,7.48,0,0,0-1.07.08l.19-7.13a1.69,1.69,0,0,0,1-.9l-.11,7.95Z" transform="translate(-4.21 -6.27)" fill="#fff"/><path d="M100.72,239,63.28,254.42c-.22-.6-.46-1.18-.72-1.76l38.06-15c0,.05,0,.05,0,0h0A2.7,2.7,0,0,0,100.72,239Z" transform="translate(-4.21 -6.27)" fill="#fff"/><path d="M104.72,237.39a6.36,6.36,0,0,0-.13-1.24l17.86-7c.15.28.29.57.43.86Z" transform="translate(-4.21 -6.27)" fill="#fff"/><path d="M126.7,228.49c-.13-.27-.26-.54-.4-.81l3.87-1.51c.1.26.22.52.32.78Z" transform="translate(-4.21 -6.27)" fill="#fff"/><path d="M122.85,220.64l-10,2.7a3.55,3.55,0,0,0-.38-1l10.39-2.64A1.57,1.57,0,0,0,122.85,220.64Z" transform="translate(-4.21 -6.27)" fill="#fff"/><path d="M77.44,232.26c-.13-.53-.25-1.06-.37-1.6l31.23-7.24a1.91,1.91,0,0,0,.44.83.86.86,0,0,1,.07.1.13.13,0,0,1,0,.06h0Z" transform="translate(-4.21 -6.27)" fill="#fff"/><path d="M69,242.87a9,9,0,0,0-.49-1.6l46.63-14.8a1.59,1.59,0,0,0,.5.32,8.27,8.27,0,0,0,.92.31Z" transform="translate(-4.21 -6.27)" fill="#fff"/><path d="M80,224a8.93,8.93,0,0,0-.07-1.64l18.67-2.76v1.24Z" transform="translate(-4.21 -6.27)" fill="#fff"/><path d="M102.74,220v-1.18l9.83-1.84a1.53,1.53,0,0,0,.52.94Z" transform="translate(-4.21 -6.27)" fill="#fff"/><path d="M85.62,216.31a4.53,4.53,0,0,0-.21-1.46,0,0,0,0,1,0,0l29.77-3.41c.07.33.13.67.17,1Z" transform="translate(-4.21 -6.27)" fill="#fff"/><path d="M119.4,211.87c0-.32-.08-.65-.13-1l6.9-.84c0,.29.07.59.11.89Z" transform="translate(-4.21 -6.27)" fill="#fff"/><path d="M98,254.29c-.21-.41-.45-.81-.69-1.21l25.36-13.66a2,2,0,0,0-.15,1.28Z" transform="translate(-4.21 -6.27)" fill="#fff"/><path d="M62.74,273.82l-10.67,5.91c-.3-.6-.61-1.21-.93-1.81l11-5.9A14.31,14.31,0,0,1,62.74,273.82Z" transform="translate(-4.21 -6.27)" fill="#fff"/><path d="M66.42,271.78c-.2-.58-.44-1.15-.69-1.72l27.93-15a9.29,9.29,0,0,1,.73,1.26Z" transform="translate(-4.21 -6.27)" fill="#fff"/><path d="M75.79,258.05a2.76,2.76,0,0,0-.16-.93c-.08-.23-.18-.46-.27-.7l24.72-11.51.11.2a4,4,0,0,0,.21.5c0,.18.09.35.13.53Z" transform="translate(-4.21 -6.27)" fill="#fff"/><path d="M71.94,259a1.54,1.54,0,0,0,.53.7l-11.7,5.64a1.72,1.72,0,0,0-1.22-.23,4.54,4.54,0,0,0-.62.19,1.88,1.88,0,0,0-1.6-.43l14.3-6.66C71.74,258.42,71.85,258.68,71.94,259Z" transform="translate(-4.21 -6.27)" fill="#fff"/><path d="M113.85,239.72l-9.56,4.61a9.83,9.83,0,0,0-.49-1.16l9.61-4.47a.27.27,0,0,1,0,.07c.09.18.17.37.24.55s.07.19.1.28l0-.08A1.67,1.67,0,0,0,113.85,239.72Z" transform="translate(-4.21 -6.27)" fill="#fff"/><path d="M117.53,238c-.12-.34-.26-.66-.41-1l14.73-6.86c.12.26.25.51.37.76Z" transform="translate(-4.21 -6.27)" fill="#fff"/><path d="M120.8,261.28c-.19-.34-.4-.68-.62-1l16-12.88a1.82,1.82,0,0,0,1,.39Z" transform="translate(-4.21 -6.27)" fill="#fff"/><path d="M117.55,264,66.66,305.84a22.2,22.2,0,0,0-1-2.29L117,262.84A6,6,0,0,1,117.55,264Z" transform="translate(-4.21 -6.27)" fill="#fff"/><path d="M46.54,306.41,85,278.88l.48.7.45.72-35.41,26A30.56,30.56,0,0,0,46.54,306.41Z" transform="translate(-4.21 -6.27)" fill="#fff"/><path d="M125.7,250a6.66,6.66,0,0,1,.33.72l0,0L89.2,277.86c-.29-.46-.59-.92-.9-1.37l37.28-26.71Z" transform="translate(-4.21 -6.27)" fill="#fff"/><path d="M129.42,248.31c-.15-.31-.31-.63-.47-.94l9.12-6.54c.17.25.36.49.54.73Z" transform="translate(-4.21 -6.27)" fill="#fff"/><path d="M126.45,263l.13.19.18.31c0,.09.1.18.14.27L105.42,284a6.2,6.2,0,0,0-.42-.75,2.93,2.93,0,0,0-.45-.54l21.71-19.91C126.32,262.83,126.39,262.91,126.45,263Z" transform="translate(-4.21 -6.27)" fill="#fff"/><path d="M130,260.89q-.32-.48-.66-.93l11-10.09a2,2,0,0,0,.72.64Z" transform="translate(-4.21 -6.27)" fill="#fff"/><path d="M102,286.26a5.77,5.77,0,0,1,.22.58l0,.12L81,306.5l-.93-1.93,21.5-19.15A8.16,8.16,0,0,1,102,286.26Z" transform="translate(-4.21 -6.27)" fill="#fff"/><path d="M82.37,271.85a1.61,1.61,0,0,0,.29.47L55.75,289.57a16,16,0,0,1-.49-2.12l26.66-16.64C82.08,271.15,82.24,271.49,82.37,271.85Z" transform="translate(-4.21 -6.27)" fill="#fff"/><path d="M109.54,254.28c.13.19.23.39.34.59L86.09,270.12l0-.1a12.5,12.5,0,0,0-.63-1.4l23.9-14.92A1.76,1.76,0,0,0,109.54,254.28Z" transform="translate(-4.21 -6.27)" fill="#fff"/><path d="M113.34,252.65l-.11-.19a2.65,2.65,0,0,0-.7-.75l19.22-12a1.63,1.63,0,0,0,.74.66Z" transform="translate(-4.21 -6.27)" fill="#fff"/><path d="M271,215.65c0,.08-.05.25-.07.35a1.34,1.34,0,0,1-.07.18h0l-8.9-1.61a1.53,1.53,0,0,0-.35-1l9.41,1.6C271,215.32,271,215.48,271,215.65Z" transform="translate(-4.21 -6.27)" fill="#fff"/><path d="M296.81,220.91l-21.89-4a5.62,5.62,0,0,0,.15-1.08l22,3.72A8.87,8.87,0,0,0,296.81,220.91Z" transform="translate(-4.21 -6.27)" fill="#fff"/><path d="M351.2,299.15l-16.74-10.31c.28-.34.57-.68.87-1a2.68,2.68,0,0,0,.48-.69l16.86,10.09Q352,298.22,351.2,299.15Z" transform="translate(-4.21 -6.27)" fill="#fff"/><path d="M330.94,286.67,315.27,277a.52.52,0,0,1,.1-.11,5.94,5.94,0,0,1,1.55-1l15.39,9.21C331.83,285.59,331.37,286.12,330.94,286.67Z" transform="translate(-4.21 -6.27)" fill="#fff"/><path d="M311.74,274.85,272.2,250.49l.2-.37c.13-.22.28-.43.41-.64L313,273.54A8.81,8.81,0,0,0,311.74,274.85Z" transform="translate(-4.21 -6.27)" fill="#fff"/><path d="M268.7,248.33,264.85,246a1.78,1.78,0,0,0,.37-1l4.06,2.43C269.07,247.68,268.88,248,268.7,248.33Z" transform="translate(-4.21 -6.27)" fill="#fff"/><path d="M305.2,259.49l35.12,18.71a12.6,12.6,0,0,0-1.21,1.83L304.3,260.84Z" transform="translate(-4.21 -6.27)" fill="#fff"/><path d="M262.52,237.5l39,20.09c-.27.41-.54.8-.81,1.2a1.17,1.17,0,0,1,0,.11L262,238.39C262.17,238.09,262.34,237.79,262.52,237.5Z" transform="translate(-4.21 -6.27)" fill="#fff"/><path d="M258.86,235.62l-.24.43c-.08.14-.15.28-.24.42l-4.81-2.56a1.69,1.69,0,0,0,0-1Z" transform="translate(-4.21 -6.27)" fill="#fff"/><path d="M322.76,252.26l-8.85-4,.16-.2c.1-.15.61-.78.13-.26a2.45,2.45,0,0,0,.61-1l8.84,3.47C323.33,250.93,323,251.59,322.76,252.26Z" transform="translate(-4.21 -6.27)" fill="#fff"/><path d="M310.8,245.52c-.1.15-.62.78-.13.26a2.44,2.44,0,0,0-.62,1l-40-15.38a5.32,5.32,0,0,0,.5-.87l40.33,14.86Z" transform="translate(-4.21 -6.27)" fill="#fff"/><path d="M266.68,229.08c-.11.13-.21.26,0,0h0a2.73,2.73,0,0,0-.5.81l-7.7-3a1.71,1.71,0,0,0,.07-.84Z" transform="translate(-4.21 -6.27)" fill="#fff"/><path d="M389.37,292" transform="translate(-4.21 -6.27)" fill="#fff"/><path d="M331.11,265.22,291.39,247l.72-1.16,40.26,17.85A12.13,12.13,0,0,0,331.11,265.22Z" transform="translate(-4.21 -6.27)" fill="#fff"/><path d="M287.62,245.22l-6.25-2.87c.21-.35.42-.7.64-1l6.3,2.8Q288,244.66,287.62,245.22Z" transform="translate(-4.21 -6.27)" fill="#fff"/><path d="M277.6,240.61,265,234.83a1.73,1.73,0,0,0-.17-.33,3.5,3.5,0,0,0,.46-.59l12.9,5.72Z" transform="translate(-4.21 -6.27)" fill="#fff"/><path d="M316.66,299.11l.77-.78,8,5.53c-.54.57-1.1,1.14-1.65,1.71l-8.07-6A1.65,1.65,0,0,0,316.66,299.11Z" transform="translate(-4.21 -6.27)" fill="#fff"/><path d="M300.78,285.42l13.39,10.38-.21.2a2.28,2.28,0,0,0-.68,1.61l-13.73-10.94C300,286.26,300.37,285.85,300.78,285.42Z" transform="translate(-4.21 -6.27)" fill="#fff"/><path d="M296.84,283.57a2.53,2.53,0,0,0-.43.6l-25.72-20.51c.16-.15.32-.32.49-.5a4.19,4.19,0,0,0,.26-.33l.09-.1,26,20.16C297.3,283.12,297.08,283.34,296.84,283.57Z" transform="translate(-4.21 -6.27)" fill="#fff"/><path d="M251.24,247.69h0l0,0a2,2,0,0,0-.23.18l-4.73-3.77a1.43,1.43,0,0,0,.74-.38.12.12,0,0,1,0-.05l4.58,3.55Z" transform="translate(-4.21 -6.27)" fill="#fff"/><path d="M254.43,250.26a3.92,3.92,0,0,0,.27-.33l.13-.15,13.46,10.45c-.1.12-.21.23-.31.36h0l-.05,0a2.79,2.79,0,0,0-.49.42L254.2,250.51Z" transform="translate(-4.21 -6.27)" fill="#fff"/><path d="M282.8,264.46l.34-.44,0,0,0,0,.1-.12,14.53,10a1.72,1.72,0,0,0-1.58.87L282.38,265C282.52,264.79,282.67,264.64,282.8,264.46Z" transform="translate(-4.21 -6.27)" fill="#fff"/><path d="M296.08,274l.34-.44,0,0,0,0,.1-.12,14.52,10a1.76,1.76,0,0,0-1.58.88l-13.84-9.79C295.8,274.36,296,274.21,296.08,274Z" transform="translate(-4.21 -6.27)" fill="#fff"/><path d="M274.2,257.82l.1-.15,5.61,3.87c-.14.17-.3.32-.42.49s-.22.3-.34.44l0,0v0a.27.27,0,0,0-.07.08l-5.74-4.05A2,2,0,0,0,274.2,257.82Z" transform="translate(-4.21 -6.27)" fill="#fff"/><path d="M270.8,255.5a2.1,2.1,0,0,0-.34,1L251.4,243.06c.13-.21.27-.43.42-.63l.12-.17,19,13.08Z" transform="translate(-4.21 -6.27)" fill="#fff"/><path d="M308.07,230.64l-32.8-8.19a5.42,5.42,0,0,0,.28-1l33,7.8C308.42,229.68,308.25,230.16,308.07,230.64Z" transform="translate(-4.21 -6.27)" fill="#fff"/><path d="M271.51,220.83s0,.11-.05.16l-.11.2a1.49,1.49,0,0,0-.13.25l-14.82-3.69c.07-.28.14-.55.2-.82l14.92,3.52C271.52,220.58,271.52,220.71,271.51,220.83Z" transform="translate(-4.21 -6.27)" fill="#fff"/><path d="M291.43,213.5l-16.85-2a1.84,1.84,0,0,0,.49-1l16.82,1.75C291.74,212.67,291.59,213.08,291.43,213.5Z" transform="translate(-4.21 -6.27)" fill="#fff"/><path d="M315.77,240.42l-22.37-7.23c.16-.41.3-.84.42-1.27l23,7A2.06,2.06,0,0,0,315.77,240.42Z" transform="translate(-4.21 -6.27)" fill="#fff"/><path d="M289.63,231.57c-.05.14-.11.26-.17.39l-19.67-6.13a1.86,1.86,0,0,0,.28-1l19.82,5.9C289.81,231,289.73,231.3,289.63,231.57Z" transform="translate(-4.21 -6.27)" fill="#fff"/><path d="M282.84,281.71a2.72,2.72,0,0,0-.84.77L246.26,250.1l.21-.17a4.44,4.44,0,0,1,.49-.24l.1-.05,36.13,31.86Z" transform="translate(-4.21 -6.27)" fill="#fff"/><path d="M252.59,303.45l-.05,0-12.18-20.34a6.25,6.25,0,0,0,1-.72L254,302.74A8.46,8.46,0,0,0,252.59,303.45Z" transform="translate(-4.21 -6.27)" fill="#fff"/><path d="M238.5,279.46l-.13.09-.06,0,0,0-8.86-15.13a1.68,1.68,0,0,0,.7-.67l9.06,15A7.93,7.93,0,0,1,238.5,279.46Z" transform="translate(-4.21 -6.27)" fill="#fff"/><path d="M215.32,303.67l-.09.06-7-32a1.55,1.55,0,0,0,.89-.29l7.35,31.69Z" transform="translate(-4.21 -6.27)" fill="#fff"/><path d="M293.87,305.73l-42-43.22A1.77,1.77,0,0,0,252,262a2,2,0,0,0,.51-.45l42.73,42.92A10.89,10.89,0,0,0,293.87,305.73Z" transform="translate(-4.21 -6.27)" fill="#fff"/><path d="M228,300l-9.82-27.44a2.18,2.18,0,0,0,.68-.88l10.32,27.67A2,2,0,0,0,228,300Z" transform="translate(-4.21 -6.27)" fill="#fff"/><path d="M217.2,268.88a2,2,0,0,0-.35,0l-1.63-4.56.78-.3,1.84,4.92A2.1,2.1,0,0,0,217.2,268.88Z" transform="translate(-4.21 -6.27)" fill="#fff"/><path d="M216.93,285.57l-1.62-5.65a1.89,1.89,0,0,0,.94-.58l1.73,5.77A1.94,1.94,0,0,0,216.93,285.57Z" transform="translate(-4.21 -6.27)" fill="#fff"/><path d="M218,289.18a2.15,2.15,0,0,0,1.1-.3l4.53,15.42c-.31.19-.61.4-.9.62l-.26.19-.18.11h0l-4.34-16Z" transform="translate(-4.21 -6.27)" fill="#fff"/><path d="M203.11,300.43c-.17,0-.57,0,.09,0a2.62,2.62,0,0,0-.92.2l-1.6-17a1.38,1.38,0,0,0,1-.71l1.87,17.44A3.06,3.06,0,0,1,203.11,300.43Z" transform="translate(-4.21 -6.27)" fill="#fff"/><path d="M207.27,285.54l-.08,0-.68.25-1.62-10.2a1.87,1.87,0,0,0,.9-.47l1.77,10.27C207.46,285.46,207.37,285.51,207.27,285.54Z" transform="translate(-4.21 -6.27)" fill="#fff"/><path d="M208.09,287.62l.17-.08,2.92,17-1.37.11-2.75-17.35C207.46,287.82,207.79,287.77,208.09,287.62Z" transform="translate(-4.21 -6.27)" fill="#fff"/><path d="M228.67,284.31a3.87,3.87,0,0,0,.34-.21l9.93,20.64c-.1.09-.26.2-.24.19a3.14,3.14,0,0,1-.31.18c-.34.19-.68.38-1,.58l-9.46-21.17A2.06,2.06,0,0,0,228.67,284.31Z" transform="translate(-4.21 -6.27)" fill="#fff"/><path d="M227.06,280.5h0l-.2.11a1.83,1.83,0,0,0-.45.32l-5.54-13a1.69,1.69,0,0,0,.8-.53l5.66,12.88Z" transform="translate(-4.21 -6.27)" fill="#fff"/><path d="M244.92,304.32a2.75,2.75,0,0,0-.52.24l-12.3-24.48a3.28,3.28,0,0,0,1-.4L245.77,304Z" transform="translate(-4.21 -6.27)" fill="#fff"/><path d="M271.08,304.74l-7.28-9.64L264,295a7.15,7.15,0,0,0,1-.82l7.81,9.63A6.26,6.26,0,0,0,271.08,304.74Z" transform="translate(-4.21 -6.27)" fill="#fff"/><path d="M262.39,291a1.85,1.85,0,0,0-.14.14,8.39,8.39,0,0,1-.93.74L240,263.79a3.76,3.76,0,0,0,.93-.42l21.53,27.55S262.41,291,262.39,291Z" transform="translate(-4.21 -6.27)" fill="#fff"/><path d="M237.55,260.31a1.29,1.29,0,0,0-.16.09l-4.74-6.22.7-.47,4.94,6.32A6.61,6.61,0,0,0,237.55,260.31Z" transform="translate(-4.21 -6.27)" fill="#fff"/><path d="M268.68,288.87a1.37,1.37,0,0,0-.2.22l-26.8-30.9a1.71,1.71,0,0,0,1-.36l27,30.32C269.32,288.4,269,288.6,268.68,288.87Z" transform="translate(-4.21 -6.27)" fill="#fff"/><path d="M271.38,292c.3-.28.67-.47,1-.74L282.93,304c-.49.37-1,.76-1.44,1.18l-10.35-13A1.88,1.88,0,0,0,271.38,292Z" transform="translate(-4.21 -6.27)" fill="#fff"/><path d="M196.2,277.54l1.56,29.16-.22,0h-.83a2.53,2.53,0,0,0-.67.1l-.82-29.14C195.55,277.61,195.88,277.58,196.2,277.54Z" transform="translate(-4.21 -6.27)" fill="#fff"/><path d="M196,273.43c-.25,0-.51.08-.77.1h-.15l-.16-5.05.87,0,.21,5Z" transform="translate(-4.21 -6.27)" fill="#fff"/><path d="M262.19,305.28l-.19.13-14.28-21a1.76,1.76,0,0,0,.44-.15l.72-.39,14.55,20.55C263,304.73,262.6,305,262.19,305.28Z" transform="translate(-4.21 -6.27)" fill="#fff"/><path d="M246.33,280.62a2,2,0,0,0-.74.65L235.5,266.12a1.76,1.76,0,0,0,.68-.75l10.36,15.13Z" transform="translate(-4.21 -6.27)" fill="#fff"/><path d="M286.4,284.32l23.13,19.51a14.56,14.56,0,0,1-1.55,1.68L285,285.2C285.46,284.9,285.93,284.62,286.4,284.32Z" transform="translate(-4.21 -6.27)" fill="#fff"/><path d="M294.1,205.51l-17,.49a1.82,1.82,0,0,1,.39,1.07l16.92-.28Z" transform="translate(-4.21 -6.27)" fill="#fff"/><path d="M91,205.38c-.84,0-.51.63-.65,1.46h0v0l22.11-.28a8.7,8.7,0,0,0,0-1Z" transform="translate(-4.21 -6.27)" fill="#fff"/><path d="M116.62,205.6c0,.32,0,.65,0,1l7-.05c0-.3,0-.6,0-.89Z" transform="translate(-4.21 -6.27)" fill="#fff"/><path d="M170,214.28a7.5,7.5,0,0,1-7.87,7.87H150.52a7.5,7.5,0,0,1-7.87-7.87v-8.75h8v7.2a1.7,1.7,0,0,0,1.88,1.89h7.6a1.7,1.7,0,0,0,1.88-1.89V182h8Zm-26.21,0a6.39,6.39,0,0,0,6.76,6.76H162.1a6.39,6.39,0,0,0,6.76-6.76V183.14H163.1v29.59a2.74,2.74,0,0,1-3,3h-7.6a2.74,2.74,0,0,1-3-3v-6.09h-5.76Z" transform="translate(-4.21 -6.27)" fill="#fff"/><path d="M182.22,221.93H174L186.82,182h9.31L209,221.93H200.4l-2.61-9H184.88Zm1.88-10.08h14.47l2.6,9h6.37l-12.13-37.68h-7.87L175.4,220.82h6ZM197,206.53l-5.2-18H191l-5.32,18Zm-5.59-15.74,4.21,14.63h-8.54Z" transform="translate(-4.21 -6.27)" fill="#fff"/><path d="M222.12,211.73v10.2h-7.87V182h7.87v18.73L235.92,182h9.36L233,197.77l12.85,24.16h-9l-9.2-17.35ZM221,220.82v-9.36l6.6-8.43h.49l9.48,17.79h6.49L231.93,198v-.55l11.19-14.3h-6.76l-14.52,19.73H221V183.14h-5.65v37.68Z" transform="translate(-4.21 -6.27)" fill="#fff"/><path d="M193.94,45.87l151.4,253.42H42.54L193.94,45.87m0-14.53L29.41,306.74H358.47L193.94,31.34Z" transform="translate(-4.21 -6.27)"/><circle cx="224.29" cy="159.07" r="2.11" fill="#fff"/><path d="M146.85,177.06" transform="translate(-4.21 -6.27)" fill="#fff"/><circle cx="142.65" cy="177.17" r="4.39" fill="#fff"/><path d="M192,234.06" transform="translate(-4.21 -6.27)" fill="#fff"/><circle cx="187.79" cy="231.47" r="2.53" fill="#fff"/><path d="M226,240.25" transform="translate(-4.21 -6.27)" fill="#fff"/><circle cx="221.79" cy="238.97" r="3.43" fill="#fff"/><path d="M197.59,160.55" transform="translate(-4.21 -6.27)" fill="none" stroke="#fff" stroke-linecap="round" stroke-miterlimit="10" stroke-width="0.6"/><circle cx="182.28" cy="150.6" r="1.26" fill="#fff" stroke="#020000" stroke-linecap="round" stroke-miterlimit="10" stroke-width="0.31"/><path d="M186.76,152.48c0-.1-.06-.11-.09-.17s-.07-.08-.13-.05a.2.2,0,0,0-.11,0h0a.25.25,0,0,0-.15.23l0,1.72a.14.14,0,0,0,.08.17.09.09,0,0,0,.06.12c.1,0,.16,0,.21,0l.07-.23Z" transform="translate(-4.21 -6.27)" fill="#fff"/><path d="M186.49,159.45c0-.1-.06-.11-.08-.17a.1.1,0,0,0-.14-.05.19.19,0,0,0-.1,0h0a.25.25,0,0,0-.15.23L186,161.2a.15.15,0,0,0,.09.17.09.09,0,0,0,.06.12c.1,0,.16,0,.2,0l.08-.23Z" transform="translate(-4.21 -6.27)" fill="#fff"/><path d="M190.1,154.59c.08-.07.07-.12.1-.18s0-.1,0-.13-.07-.07-.07-.07h0a.26.26,0,0,0-.28,0l-1.4,1a.16.16,0,0,0-.1.18c-.08,0-.06.11-.06.11s.14.11.15.15l.22-.07Z" transform="translate(-4.21 -6.27)" fill="#fff"/><path d="M184.35,158.53c.07-.07.06-.12.09-.18s0-.1,0-.13a.28.28,0,0,0-.08-.08h0a.31.31,0,0,0-.28,0l-1.4,1a.14.14,0,0,0-.09.17.09.09,0,0,0-.06.12c.07.08.13.11.14.15l.23-.07Z" transform="translate(-4.21 -6.27)" fill="#fff"/><path d="M190.1,159.14c.1,0,.13,0,.2,0a.09.09,0,0,0,.1-.1.17.17,0,0,0,0-.1h0a.28.28,0,0,0-.15-.24l-1.52-.79a.15.15,0,0,0-.2,0,.08.08,0,0,0-.13,0c0,.1,0,.16-.07.19l.17.17Z" transform="translate(-4.21 -6.27)" fill="#fff"/><path d="M183.94,155.88c.1,0,.13,0,.2,0s.1,0,.09-.1a.12.12,0,0,0,0-.09h0a.26.26,0,0,0-.15-.24l-1.53-.79a.15.15,0,0,0-.19,0,.11.11,0,0,0-.14,0c0,.1,0,.17-.06.2l.17.17Z" transform="translate(-4.21 -6.27)" fill="#fff"/><circle cx="153.44" cy="240.9" r="0.83" fill="#fff" stroke="#020000" stroke-linecap="round" stroke-miterlimit="10" stroke-width="0.38"/><path d="M157.87,249.22c0-.08-.05-.09-.08-.14a.07.07,0,0,0-.1,0,.17.17,0,0,0-.09,0h0a.23.23,0,0,0-.12.2l0,1.41a.12.12,0,0,0,.07.15c0,.07.05.1.05.1s.13,0,.17,0l.06-.18Z" transform="translate(-4.21 -6.27)" fill="#fff"/><path d="M157.48,243.85l0,1.42a.12.12,0,0,0,.07.15c0,.07.05.09.05.09a.62.62,0,0,1,.17,0l.06-.18.08-1.48" transform="translate(-4.21 -6.27)" fill="#fff"/><path d="M155.67,247.5c.09,0,.1-.05.15-.07a.08.08,0,0,0,0-.11.17.17,0,0,0,0-.09h0a.24.24,0,0,0-.2-.12l-1.41,0a.13.13,0,0,0-.15.07.09.09,0,0,0-.1.05c0,.09,0,.14,0,.17l.19.06Z" transform="translate(-4.21 -6.27)" fill="#fff"/><path d="M161.07,247.5c.08,0,.09-.05.14-.07a.08.08,0,0,0,0-.11.17.17,0,0,0,0-.09h0a.23.23,0,0,0-.2-.12l-1.41,0a.13.13,0,0,0-.15.07.09.09,0,0,0-.1.05c0,.09,0,.14,0,.17l.18.06Z" transform="translate(-4.21 -6.27)" fill="#fff"/><path d="M156.32,248.88s0-.08,0-.12a.07.07,0,0,0,0-.08l-.05,0h0a.15.15,0,0,0-.16,0l-.65.68a.09.09,0,0,0,0,.12s0,.07,0,.07.08.06.1.09l.11-.06Z" transform="translate(-4.21 -6.27)" fill="#fff"/><path d="M159.57,245l-.66.69s0,.09,0,.11,0,.08,0,.08.09.06.1.08l.12-.05.7-.7a.26.26,0,0,0,0-.11" transform="translate(-4.21 -6.27)" fill="#fff"/><path d="M155.32,245.07c0,.05-.06.08-.09.1l.06.11.69.71a.3.3,0,0,0,.12,0s.06,0,.08,0l0,0h0a.15.15,0,0,0,0-.16l-.68-.65" transform="translate(-4.21 -6.27)" fill="#fff"/><path d="M159.68,249.45a.3.3,0,0,0,.11,0s.07,0,.08,0a.11.11,0,0,0,0-.05h0a.14.14,0,0,0,0-.15l-.69-.66s-.08,0-.11,0-.08,0-.08,0-.06.09-.08.1l0,.12Z" transform="translate(-4.21 -6.27)" fill="#fff"/><circle cx="160.12" cy="156.6" r="1.65" fill="#fff" stroke="#020000" stroke-linecap="round" stroke-miterlimit="10" stroke-width="0.6"/><path d="M264.4,200.24" transform="translate(-4.21 -6.27)" fill="#020000" stroke="#fff" stroke-linecap="round" stroke-miterlimit="10" stroke-width="0.6"/><circle cx="260.2" cy="198.96" r="3.43" fill="#fff"/></svg>