<svg xmlns="http://www.w3.org/2000/svg" viewBox="0 0 321.74 125.03"><path d="M89.4,105.51C89.4,120,79.38,130,64.88,130H28.78c-14.5,0-24.52-10-24.52-24.52V78.22H29.13v22.45c0,3.8,2.07,5.88,5.87,5.88H58.66c3.8,0,5.87-2.08,5.87-5.88V5H89.4Zm-81.69,0c0,12.61,8.47,21.07,21.07,21.07h36.1c12.6,0,21.07-8.46,21.07-21.07V8.45H68v92.22c0,5.88-3.46,9.33-9.33,9.33H35c-5.87,0-9.33-3.45-9.33-9.33v-19h-18Z" transform="translate(-4.26 -5)" style="fill:#fff"/><path d="M127.57,129.34H101.84L141.9,5h29L211,129.34H184.21l-8.11-28H135.86Zm5.87-31.43h45.07l8.12,28h19.86L168.67,8.45H144.15L106.33,125.89h18.82Zm40.24-16.58L157.44,25.38H155l-16.58,56Zm-17.44-49,13.12,45.59H142.77Z" transform="translate(-4.26 -5)" style="fill:#fff"/><path d="M251.91,97.57v31.77H227.39V5h24.52V63.37L294.91,5H324.1L285.93,54.05,326,129.34H298l-28.67-54Zm-3.45,28.32V96.7L269,70.45h1.55l29.53,55.44H320.3L282.48,54.74V53L317.36,8.45H296.29L251.05,69.94h-2.59V8.45H230.84V125.89Z" transform="translate(-4.26 -5)" style="fill:#fff"/></svg>