<svg xmlns="http://www.w3.org/2000/svg" width="335.63" height="288.87" viewBox="0 0 335.63 288.87"><path d="M30.81,66.06a10.89,10.89,0,0,0-2.89,7.52V224a11.52,11.52,0,0,0,6.75,10.7c6,3,21.43,11.76,26.67,14.75a10.87,10.87,0,0,0,4.8,1.45c3.75.2,9.64-.73,9.64-8.6V154.91a10.85,10.85,0,0,1,2-6.45c2.08-2.83,6-5.51,12.6-1.87,10.41,5.72,45.11,25.63,50.31,28.62A15,15,0,0,0,156,175c9.85-5.63,47.3-27.31,47.3-27.31s16-9.85,16,7v41.68c.56,8.16-2.13,7.71-5.59,9.71l-60.62,35.18a11.24,11.24,0,0,0-5.59,9.72v42.24s-.56,5.63,9.85,11.54l75.81,43.05a11.26,11.26,0,0,1,1.7,1.19c2,1.64,8.38,5.7,18.79-.31,12.13-7,94.78-54.58,101.74-58.58.26-.15.53-.29.8-.42,1.48-.7,7.27-3.81,7.27-9.7V183.33a11,11,0,0,0-.4-3c-1-3.41-4.24-9.68-14.8-5.68a10.35,10.35,0,0,0-1.64.8l-24.57,14.69a8.94,8.94,0,0,1-.8.44c-1.1.52-5.38,3.06-5.38,11.15V253s.85,4.22-5.35,8.16C304.8,264.87,257,292,251,295.46a12,12,0,0,0-1.06.69,10,10,0,0,1-11.4.51c-5.39-3.28-22.69-13.21-28.33-16.43a11,11,0,0,1-4.05-4c-1.92-3.31-3.25-8.83,4.79-13.4,11.34-6.44,42.5-24.45,47.69-27.45a12.65,12.65,0,0,1,1.28-.63c1.78-.74,7.34-3.59,7.34-10.21V74.1c0-.35,0-.7,0-1A8.4,8.4,0,0,0,262,64.3a10.89,10.89,0,0,0-9.45.73c-49.69,28-95.69,54.63-95.69,54.63a15.36,15.36,0,0,1-9.06,3.51,14.11,14.11,0,0,1-7.8-2.49C131.36,115,50.27,69.14,43.32,65.2c-.24-.13-.47-.27-.7-.42A8.82,8.82,0,0,0,30.81,66.06Z" transform="translate(-27.91 -63.05)" fill="#231f20"/><path d="M363.27,71.77V105.6s1.63,5.41-7.42,11.07-24.4,14.58-24.4,14.58-10.31,5.29-14-5.66c-.25-13.07,0-35.58,0-35.58s-1.25-5.41,6.67-10.19,26.16-15.34,26.16-15.34S362.14,59.82,363.27,71.77Z" transform="translate(-27.91 -63.05)" fill="#231f20"/></svg>