<svg id="_001-MultiSig" data-name="001-MultiSig" xmlns="http://www.w3.org/2000/svg" xmlns:xlink="http://www.w3.org/1999/xlink" width="990.43" height="836.74" viewBox="0 0 990.43 836.74"><defs><clipPath id="clip-path" transform="translate(-53.01 -32.52)"><rect x="27.75" y="-66.29" width="1030.45" height="805.39" fill="none"/></clipPath></defs><polygon points="131.1 789.87 502.82 167.65 874.54 789.87 131.1 789.87"/><path d="M555.83,388l211,353.18h-422L555.83,388m0-18.92L327.73,750.92H783.92L555.83,369.11Z" transform="translate(-53.01 -32.52)" fill="#fff"/><path d="M555.83,388l211,353.18h-422L555.83,388m0-18.92L327.73,750.92H783.92L555.83,369.11Z" transform="translate(-53.01 -32.52)" fill="#fff"/><g clip-path="url(#clip-path)"><path d="M456.91,213l-62.23,19.74L369.36,246l-8.79,5.2a15.29,15.29,0,0,0-3.41,6l.34,4.4c1.95,5.8,7.43,9.58,13.41,10.89,5.47,1.2,15-.55,22-3.86,13.11-6.13,12.31-6.29,12.31-6.29l-4.19,4.2-8.65,8.19-9.27,9.57s-19.73,15.88-18.82,18.91c1.4,4.81,7.87,10.27,16.16,11.57s16.25-4.22,25-13.67c8.53-9.21,21.36-25.79,21.36-25.79l4,4.47-30.61,38.48a5.84,5.84,0,0,0,.92,8.18c4.88,4,13.17,8.37,20.23.42C432.14,314.75,446,292,446,292l38,10.35L521.93,248l-39.54-36.63Z" transform="translate(-53.01 -32.52)" fill="#23859b" stroke="#000" stroke-miterlimit="10" stroke-width="1.96"/><path d="M370.92,170.45a5.53,5.53,0,1,1-8.22,1.91l-34.79-26,24,38.72s14-3.33,36.18,13.26L395.85,188c-22.16-16.59-22.91-31-22.91-31L329,144.84l34.79,26A5.53,5.53,0,0,1,370.92,170.45Z" transform="translate(-53.01 -32.52)" fill="#c4c4c4" stroke="#000" stroke-linecap="round" stroke-linejoin="round" stroke-width="0.98"/><path d="M389.93,174.31,606.66,343.25a9.37,9.37,0,0,1,1.74,13h0a9.37,9.37,0,0,1-13,2l-222-161.75Z" transform="translate(-53.01 -32.52)" fill="#c4c4c4" stroke="#000" stroke-miterlimit="10" stroke-width="0.49"/><path d="M370.58,196.7c-5-3.73-1.52-9.91,3.67-16.84s10.14-12,15.13-8.27l91.53,68.52c2.77,2.08.81,9.38-4.38,16.32s-11.65,10.87-14.42,8.79Z" transform="translate(-53.01 -32.52)" fill="#c4c4c4" stroke="#000" stroke-miterlimit="10" stroke-width="0.46"/><path d="M608.4,356.27a9.37,9.37,0,0,1-13,2l-222-161.75" transform="translate(-53.01 -32.52)" fill="#c4c4c4" stroke="#000" stroke-miterlimit="10" stroke-width="0.49"/><path d="M370.58,196.7c-5-3.73-1.52-9.91,3.67-16.84s10.14-12,15.13-8.27l91.53,68.52c2.77,2.08.81,9.38-4.38,16.32s-11.65,10.87-14.42,8.79Z" transform="translate(-53.01 -32.52)" fill="#c4c4c4" stroke="#000" stroke-miterlimit="10" stroke-width="1.96"/><path d="M405.32,175.2l83.76-.44a16.17,16.17,0,0,1,5.43.91l9.93,3.48a14.16,14.16,0,0,1,4.12,2.26l62.88,50a28.6,28.6,0,0,1,4.72,4.74l5.64,7.16a28.83,28.83,0,0,1,6,14.2h0a28.78,28.78,0,0,1,0,7.36l-12,92.59a1.1,1.1,0,0,0,0,.18c-.2,3.29-5.83,95.85-4.88,97.27s22,318.37,21.76,327.81a2.35,2.35,0,0,1-.14.79c-1.18,3.53-35.18,38.28-55.16,33.87-21.44-4.73-70.05,25.32-82-25.06s10.46-270.14,17.92-304.12,11.29-53.34-2.37-77.16c-13-22.76-30.47-68.63-32-72.69a2.62,2.62,0,0,0-.29-.55l-53.85-81.9a3,3,0,0,1-.22-.39c-1.1-2.46-12-26.69-12.27-28.9s-4.73-15.52,5.61-20.77,12.58-5.14,14.7-4c0,0,4.41,2.72,23.66,21.1C435,240.83,468,279.74,470.1,282l.16.2,2.24,3a2.87,2.87,0,0,0,3.62.82l11.06-5.75a2.83,2.83,0,0,0,1.21-1.21c2.62-5.06,16.79-32.51,15-32.63S485.6,221.94,482,216.49a2.89,2.89,0,0,0-2-1.26l-39.48-5.61-.15,0-30-5.92-.41-.05c-2-.09-18.37-1.32-18.77-16-.39-14.39,11.54-12.79,13.49-12.43A2.12,2.12,0,0,0,405.32,175.2Z" transform="translate(-53.01 -32.52)" fill="#8bd5d8" stroke="#000" stroke-miterlimit="10" stroke-width="1.96"/><path d="M420.64,176.36s.41,7.29-8.14,6-15.15-2.66-15.15-2.66-2.15-3.52.5-4.25,7.47-.27,7.47-.27l14.21-.4Z" transform="translate(-53.01 -32.52)"/><path d="M375.85,242.37s3.67,3.07,0,7.47S365.67,261.23,362.09,262s-4,1.3-4.6-2.17,2.75-8.06,3.08-8.63S375.85,242.37,375.85,242.37Z" transform="translate(-53.01 -32.52)"/><path d="M390.46,202.76a48.61,48.61,0,0,0-12.07,5.07c-5.09,3.27-4.42,7.51-4.42,7.51s1,10.1,5,16.67,7.21,7.2,7.21,7.2,18.95-7.66,21.56-9.82,4.78-4.68,2.07-8.4S392.34,202.12,390.46,202.76Z" transform="translate(-53.01 -32.52)"/><path d="M383.16,284.3a4.41,4.41,0,0,1,1,5.64c-1.56,3.21-10.61,15.51-13.86,16.71s-2.86,1.28-4.88-1.21-1.07-4.32.91-6.28S383.16,284.3,383.16,284.3Z" transform="translate(-53.01 -32.52)"/><path d="M408.19,307.84s2.91-.76,2.5,2.18-6.6,19.08-9.56,16.43-1.9-5.6-.92-8.18S408.19,307.84,408.19,307.84Z" transform="translate(-53.01 -32.52)"/><line x1="428.2" y1="182.94" x2="436.7" y2="170.06" fill="none" stroke="#000" stroke-linecap="round" stroke-linejoin="round" stroke-width="1.96"/><path d="M502.57,245.36c.72.32,8.62-.14,8.62-.14l6.54-2.47" transform="translate(-53.01 -32.52)" fill="none" stroke="#000" stroke-linecap="round" stroke-linejoin="round" stroke-width="1.96"/><path d="M472.5,285.19l13.73,15.87,10.41,5.55" transform="translate(-53.01 -32.52)" fill="none" stroke="#000" stroke-linecap="round" stroke-linejoin="round" stroke-width="1.96"/><polyline points="427.18 260.95 449.38 260.86 453.46 260.61 477.6 244.51" fill="none" stroke="#000" stroke-linecap="round" stroke-linejoin="round" stroke-width="1.96"/><path d="M467.65,265.28l128,93.21a9.37,9.37,0,0,0,13-1.95h0a9.38,9.38,0,0,0-1.74-13l-125.26-97S479.76,254.43,467.65,265.28Z" transform="translate(-53.01 -32.52)" fill="#c4c4c4" stroke="#000" stroke-miterlimit="10" stroke-width="1.96"/><line x1="414.56" y1="247.57" x2="435.39" y2="246.53" fill="none" stroke="#000" stroke-miterlimit="10" stroke-width="1.96"/><path d="M841.86,390.12l47.34,45,17,22.93,5.63,8.52a15.37,15.37,0,0,1,.42,6.94l-2.23,3.8c-4.29,4.37-10.87,5.37-16.82,3.93-5.44-1.31-13.22-7-18.14-13.11-9.11-11.25-8.32-11-8.32-11l1.92,5.61,4.21,11.15L877,486.47s10.8,22.91,8.66,25.24c-3.36,3.7-11.57,5.79-19.59,3.34s-12.77-10.9-16.5-23.23c-3.64-12-7.93-32.53-7.93-32.53l-5.53,2.28,10.7,48a5.84,5.84,0,0,1-4.4,7c-6.13,1.44-15.51,1.76-18.38-8.47-4.39-15.61-6.93-42.13-6.93-42.13l-38.72-7.31-10.3-65.48,51.58-15.66Z" transform="translate(-53.01 -32.52)" fill="#23859b" stroke="#000" stroke-miterlimit="10" stroke-width="1.96"/><path d="M937.81,389.43a5.53,5.53,0,1,0,6.56,5.31L987,386.53l-38.53,24.33s-11.16-9.13-38.34-3.9l-2.44-12.68c27.18-5.23,34.15-17.85,34.15-17.85l44.81,8.29L944,392.93A5.52,5.52,0,0,0,937.81,389.43Z" transform="translate(-53.01 -32.52)" fill="#c4c4c4" stroke="#000" stroke-linecap="round" stroke-linejoin="round" stroke-width="0.98"/><path d="M919,384.59,650.24,441.77A9.37,9.37,0,0,0,643,452.71h0a9.37,9.37,0,0,0,10.86,7.45l270.41-48.39Z" transform="translate(-53.01 -32.52)" fill="#c4c4c4" stroke="#000" stroke-miterlimit="10" stroke-width="0.49"/><path d="M926.63,413.19c6.13-1.18,5.7-8.25,4.07-16.76s-3.87-15.22-10-14L808.43,404c-3.4.65-4.83,8.08-3.19,16.59s5.72,14.87,9.12,14.21Z" transform="translate(-53.01 -32.52)" fill="#c4c4c4" stroke="#000" stroke-miterlimit="10" stroke-width="0.46"/><path d="M643,452.71a9.37,9.37,0,0,0,10.86,7.45l270.41-48.39" transform="translate(-53.01 -32.52)" fill="#c4c4c4" stroke="#000" stroke-miterlimit="10" stroke-width="0.49"/><path d="M926.63,413.19c6.13-1.18,5.7-8.25,4.07-16.76s-3.87-15.22-10-14L808.43,404c-3.4.65-4.83,8.08-3.19,16.59s5.72,14.87,9.12,14.21Z" transform="translate(-53.01 -32.52)" fill="#c4c4c4" stroke="#000" stroke-miterlimit="10" stroke-width="1.96"/><path d="M904.79,378.66l-75.13-37a16.3,16.3,0,0,0-5.29-1.56l-10.45-1.21a14.23,14.23,0,0,0-4.69.24l-78.4,17.44a28.77,28.77,0,0,0-6.31,2.19l-8.2,4a28.81,28.81,0,0,0-11.57,10.18h0a29,29,0,0,0-3.22,6.62L671.84,468a1.22,1.22,0,0,1-.07.17c-1.25,3-36.66,88.75-38.14,89.61s-133.12,240-137,248.61c-.11.26-3.78,9.86-3.81,10.13-.48,3.7,23.63,1.31,42.56,9.07,19.9,8.15,48.33,57.24,82.76,13.63,32.09-40.63,80.55-175,88.7-208.83S720,577.5,742.72,562.05c21.68-14.75,57.42-48.39,60.57-51.37a2.64,2.64,0,0,1,.5-.38L888,460.2a2.36,2.36,0,0,0,.36-.26c2.07-1.73,22.46-18.76,23.67-20.62s11-11.89,4-21.13-9.07-10.13-11.48-10c0,0-5.15.51-30.51,8.63-24.69,7.9-71.4,28.45-74.28,29.59l-.24.1-3.31,1.7a2.86,2.86,0,0,1-3.61-.85l-7.43-10a2.78,2.78,0,0,1-.56-1.62c-.15-5.69-.89-36.57.79-35.89s26.68-14.24,32.28-17.59a2.86,2.86,0,0,1,2.34-.26l38,12.22.15,0L887.73,402a1.79,1.79,0,0,1,.39.13c1.82.78,17.09,6.84,23.89-6.24,6.65-12.77-4.78-16.54-6.69-17.07A2.41,2.41,0,0,1,904.79,378.66Z" transform="translate(-53.01 -32.52)" fill="#8bd5d8" stroke="#000" stroke-miterlimit="10" stroke-width="1.96"/><path d="M890.5,373s-3.55,6.38,4.7,9S910,386.22,910,386.22s3.48-2.23,1.41-4.06-6.6-3.5-6.6-3.5l-12.6-6.57Z" transform="translate(-53.01 -32.52)"/><path d="M901.93,452s-4.64,1.15-3.3,6.7,4.21,14.71,7.11,16.92,3,2.93,5.09.06,1-8.45,1-9.11S901.93,452,901.93,452Z" transform="translate(-53.01 -32.52)"/><path d="M906.11,409.94a48.69,48.69,0,0,1,8.63,9.84c3.15,5.17.69,8.69.69,8.69s-5.33,8.63-11.79,12.8-9.63,3.32-9.63,3.32-13.69-15.17-15.09-18.26-2.26-6.29,1.8-8.45S904.69,408.55,906.11,409.94Z" transform="translate(-53.01 -32.52)"/><path d="M877,486.47a4.4,4.4,0,0,0-3.35,4.64c0,3.57,2.76,18.58,5.16,21.09s2,2.4,4.91,1,2.86-3.42,1.93-6S877,486.47,877,486.47Z" transform="translate(-53.01 -32.52)"/><path d="M844.22,496.7s-2.29-2-3.2.86-2.41,20.05,1.41,19,4.15-4.21,4.4-7S844.22,496.7,844.22,496.7Z" transform="translate(-53.01 -32.52)"/><line x1="765.94" y1="349.17" x2="763.92" y2="333.87" fill="none" stroke="#000" stroke-linecap="round" stroke-linejoin="round" stroke-width="1.96"/><path d="M786.66,399.24c-.8,0-7.7-3.89-7.7-3.89l-4.79-5.09" transform="translate(-53.01 -32.52)" fill="none" stroke="#000" stroke-linecap="round" stroke-linejoin="round" stroke-width="1.96"/><path d="M796.28,448.21,777,456.48l-23.72,5.94" transform="translate(-53.01 -32.52)" fill="none" stroke="#000" stroke-linecap="round" stroke-linejoin="round" stroke-width="1.96"/><polyline points="732.75 419.77 712.82 409.99 709.26 407.98 694.59 382.94" fill="none" stroke="#000" stroke-linecap="round" stroke-linejoin="round" stroke-width="1.96"/><path d="M809.35,432.42,653.47,460.29a9.38,9.38,0,0,1-10.86-7.46h0a9.39,9.39,0,0,1,7.26-10.94L805,409.37S803.2,417.37,809.35,432.42Z" transform="translate(-53.01 -32.52)" fill="#c4c4c4" stroke="#000" stroke-miterlimit="10" stroke-width="1.96"/><line x1="749.95" y1="413.26" x2="731.67" y2="403.21" fill="none" stroke="#000" stroke-miterlimit="10" stroke-width="1.96"/><path d="M240.88,545.69l-37.14,53.69-12,25.93L188,634.79a15.24,15.24,0,0,0,1,6.88l3,3.27c5.09,3.39,11.74,3,17.26.41,5.07-2.4,11.51-9.6,15.08-16.55,6.62-12.87,5.89-12.5,5.89-12.5l-.74,5.88L227.64,634l-1.47,13.24s-5.88,24.64-3.31,26.48c4,2.94,12.5,3.31,19.86-.74s10.27-13.28,11.4-26.11c1.1-12.5,1.1-33.47,1.1-33.47l5.89,1.11-.67,49.16a5.86,5.86,0,0,0,5.74,5.92c6.29.15,15.53-1.45,16.26-12.06,1.1-16.18-1.84-42.65-1.84-42.65L317,599.75l-3.31-66.2L260,528.77Z" transform="translate(-53.01 -32.52)" fill="#23859b" stroke="#000" stroke-miterlimit="10" stroke-width="1.96"/><path d="M146.82,564.64a5.54,5.54,0,1,1-5.34,6.54L98,571.87l42.7,15.93s9.05-11.21,36.72-11.65l-.2-12.92c-27.68.44-37.08-10.48-37.08-10.48L98,570l43.45-.69A5.52,5.52,0,0,1,146.82,564.64Z" transform="translate(-53.01 -32.52)" fill="#c4c4c4" stroke="#000" stroke-linecap="round" stroke-linejoin="round" stroke-width="0.98"/><path d="M164.22,556.06l274.79,1a9.36,9.36,0,0,1,9.34,9.22h0a9.37,9.37,0,0,1-9.1,9.52l-274.59,7.94Z" transform="translate(-53.01 -32.52)" fill="#c4c4c4" stroke="#000" stroke-miterlimit="10" stroke-width="0.49"/><path d="M162.62,585.61c-6.24.1-7.27-6.91-7.41-15.57s.67-15.7,6.91-15.8l114.31-1.81c3.47-.06,6.39,6.92,6.53,15.58s-2.56,15.73-6,15.78Z" transform="translate(-53.01 -32.52)" fill="#c4c4c4" stroke="#000" stroke-miterlimit="10" stroke-width="0.46"/><path d="M448.35,566.27a9.37,9.37,0,0,1-9.1,9.52l-274.59,7.94" transform="translate(-53.01 -32.52)" fill="#c4c4c4" stroke="#000" stroke-miterlimit="10" stroke-width="0.49"/><path d="M162.62,585.61c-6.24.1-7.27-6.91-7.41-15.57s.67-15.7,6.91-15.8l114.31-1.81c3.47-.06,6.39,6.92,6.53,15.58s-2.56,15.73-6,15.78Z" transform="translate(-53.01 -32.52)" fill="#c4c4c4" stroke="#000" stroke-miterlimit="10" stroke-width="1.96"/><path d="M176.94,547.35l66-51.61a16.26,16.26,0,0,1,4.85-2.61l10-3.32a14.14,14.14,0,0,1,4.65-.73l80.3,1a29,29,0,0,1,6.63.86l8.84,2.21a28.85,28.85,0,0,1,13.41,7.59h0a29,29,0,0,1,4.5,5.83l47.17,80.56a1.4,1.4,0,0,0,.1.16c1.85,2.72,54,79.37,55.66,79.91S583,808.76,588.54,816.4a2.49,2.49,0,0,1,.38.72c1.23,3.52,9.53,29.48-9,38.22-19.86,9.38-50.2,26.48-90.47-6.07s-52.4-64.54-67.3-96-23.72-49.1-49.09-59.58c-24.24-10-66.1-35.63-69.8-37.9a2.89,2.89,0,0,0-.56-.27L210,623.73a3.65,3.65,0,0,1-.41-.18c-2.37-1.27-25.82-13.77-27.39-15.34S169,598.83,174,588.35s6.8-11.77,9.19-12.14c0,0,5.15-.55,31.63,2.21,25.79,2.68,75.71,13.25,78.76,13.77l.26,0,3.59,1a2.87,2.87,0,0,0,3.36-1.56L306,580.34a2.76,2.76,0,0,0,.22-1.7c-1-5.6-6.61-36-8.11-35s-29-8.47-35.2-10.61a2.83,2.83,0,0,0-2.34.23L225.87,553l-.14.08-27.31,13.65a2.67,2.67,0,0,0-.36.22c-1.62,1.13-15.33,10.18-24.66-1.22-9.12-11.14,1.3-17.17,3.06-18.08A3.88,3.88,0,0,0,176.94,547.35Z" transform="translate(-53.01 -32.52)" fill="#8bd5d8" stroke="#000" stroke-miterlimit="10" stroke-width="1.96"/><path d="M189.76,538.88s4.78,5.52-2.76,9.75-13.6,7.17-13.6,7.17-3.86-1.47-2.21-3.68,5.75-4.77,5.75-4.77l11-9Z" transform="translate(-53.01 -32.52)"/><path d="M194.73,618.5s4.78.19,4.59,5.89-1.1,15.26-3.49,18-2.39,3.49-5,1.1-2.76-8.06-2.85-8.72S194.73,618.5,194.73,618.5Z" transform="translate(-53.01 -32.52)"/><path d="M182,578.23a49,49,0,0,0-6.44,11.4c-2,5.7,1.11,8.65,1.11,8.65s7,7.35,14.16,10.11S201,609.68,201,609.68s10.3-17.66,11-21,.92-6.62-3.49-7.9S183.14,576.58,182,578.23Z" transform="translate(-53.01 -32.52)"/><path d="M226.17,647.19a4.41,4.41,0,0,1,4.23,3.86c.74,3.49,1.1,18.75-.74,21.7s-1.47,2.75-4.59,2-3.5-2.76-3.13-5.52S226.17,647.19,226.17,647.19Z" transform="translate(-53.01 -32.52)"/><path d="M260.37,650.5s1.84-2.39,3.31.18,6.46,19.14,2.5,18.86-4.93-3.28-5.74-5.92S260.37,650.5,260.37,650.5Z" transform="translate(-53.01 -32.52)"/><line x1="208.58" y1="500.23" x2="207.42" y2="484.84" fill="none" stroke="#000" stroke-linecap="round" stroke-linejoin="round" stroke-width="1.96"/><path d="M296.78,543.33c.77-.2,6.74-5.39,6.74-5.39l3.65-6" transform="translate(-53.01 -32.52)" fill="none" stroke="#000" stroke-linecap="round" stroke-linejoin="round" stroke-width="1.96"/><path d="M297.38,593.22l20.56,4.16,24.43,1" transform="translate(-53.01 -32.52)" fill="none" stroke="#000" stroke-linecap="round" stroke-linejoin="round" stroke-width="1.96"/><polyline points="255.51 562.55 273.01 548.89 276.09 546.2 285.33 518.7" fill="none" stroke="#000" stroke-linecap="round" stroke-linejoin="round" stroke-width="1.96"/><path d="M281.35,580.45l158.29-4.61a9.38,9.38,0,0,0,9.1-9.52h0a9.38,9.38,0,0,0-9.34-9.23L280.93,557S284.29,564.45,281.35,580.45Z" transform="translate(-53.01 -32.52)" fill="#c4c4c4" stroke="#000" stroke-miterlimit="10" stroke-width="1.96"/><line x1="237.34" y1="559.69" x2="253.18" y2="546.12" fill="none" stroke="#000" stroke-miterlimit="10" stroke-width="1.96"/></g><path d="M94.31,490.18,97,500.78c.71,2.82,1.24,6.25,4.37,7.34a1.8,1.8,0,1,0,1-3.47c-.5-.18-.9-1.17-1.12-1.93-.4-1.38-.71-2.79-1.06-4.18l-2.34-9.31c-.56-2.25-4-1.3-3.47.95Z" transform="translate(-53.01 -32.52)" fill="#fff"/><path d="M60.93,484.88a53.29,53.29,0,0,0-4.2,9.65,1.82,1.82,0,0,0,1.74,2.28,14.44,14.44,0,0,0,8.6-2.61c1.32-.86,2.56-1.84,3.81-2.81q.8-.63,1.62-1.23c.29-.21.57-.42.87-.62a6.06,6.06,0,0,1,.53-.35c.22-.09.11-.12-.33-.08l-.83-2c-1.19,3.29-3.38,6.12-5.41,8.92a33.79,33.79,0,0,0-5.22,9.34,1.82,1.82,0,0,0,2.65,2,8.4,8.4,0,0,0,3-3c1.21-2-1.91-3.79-3.11-1.81a4.67,4.67,0,0,1-1.7,1.66l2.64,2c1.07-3.33,3.19-6.18,5.22-9A38.23,38.23,0,0,0,76.22,488a1.84,1.84,0,0,0-.83-2c-1.52-1-3.14-.08-4.42.84s-2.63,2-4,3c-2.51,1.87-5.3,3.56-8.53,3.35l1.73,2.28A48.37,48.37,0,0,1,64,486.7c1.13-2-2-3.84-3.11-1.82Z" transform="translate(-53.01 -32.52)"/><path d="M81.18,484.05a52.22,52.22,0,0,0-8.26,5.65,1.85,1.85,0,0,0,0,2.55c1.28,1.59,3.45,1.26,5.21,1,2.18-.33,4.36-.7,6.52-1.11l-2-2.65c-1.81,2.39-4.44,4-6.78,5.85-2.55,1.95-5,4.09-6.39,7.08a1.84,1.84,0,0,0,1.08,2.64,11.54,11.54,0,0,0,12.16-3c1.58-1.7-1-4.25-2.54-2.55a8,8,0,0,1-8.66,2l1.07,2.64c1.24-2.73,3.53-4.62,5.88-6.37,2.64-2,5.28-3.89,7.29-6.55a1.78,1.78,0,0,0-.14-2,1.86,1.86,0,0,0-1.89-.64q-2.57.48-5.15.9c-.77.12-2.66.67-3.08.14v2.55A46.93,46.93,0,0,1,83,487.16c2-1.11.22-4.22-1.82-3.11Z" transform="translate(-53.01 -32.52)"/><path d="M96.14,485.58a21.08,21.08,0,0,0-9.72,5.09,1.81,1.81,0,0,0,.8,3,43.69,43.69,0,0,0,6.36.56c1,0,2,0,3-.1l.58,0a2.86,2.86,0,0,1,.4,0c-.12,0-.09,0,.1,0a.37.37,0,0,1-.17-.1.71.71,0,0,1-.24-.4.76.76,0,0,1,0-.16c-.1-.07.1-.15-.1.06l-.27.27c-.33.33-.7.63-1,.92-.68.57-1.38,1.1-2.11,1.6a36.48,36.48,0,0,1-5,2.88,1.81,1.81,0,0,0-.65,2.46,1.85,1.85,0,0,0,2.47.65,36.5,36.5,0,0,0,5.73-3.43c1-.71,1.89-1.44,2.78-2.23a4.49,4.49,0,0,0,1.76-3.22,3,3,0,0,0-2.29-2.8,10.66,10.66,0,0,0-3.24,0,35.73,35.73,0,0,1-7.08-.41l.8,3a17.47,17.47,0,0,1,8.13-4.16,1.81,1.81,0,0,0,1.26-2.21,1.84,1.84,0,0,0-2.22-1.26Z" transform="translate(-53.01 -32.52)"/><path d="M58.27,517.83q-2.37,5.42-4.33,11l3.54.48a20.21,20.21,0,0,1,2.87-10.8L57,517.61a29.35,29.35,0,0,0,2.28,8.64c1,2.21,3,4.23,5.64,4s4.68-2.41,6-4.6a21.06,21.06,0,0,0,2.83-7.8,1.86,1.86,0,0,0-1.25-2.22,1.82,1.82,0,0,0-2.22,1.26,18.4,18.4,0,0,1-1.91,6c-.72,1.36-1.83,3.43-3.48,3.78-1.3.29-2.13-1.3-2.6-2.43a25.44,25.44,0,0,1-1.7-6.6,1.89,1.89,0,0,0-1.32-1.74,1.84,1.84,0,0,0-2,.83,23.73,23.73,0,0,0-3.36,12.62,1.81,1.81,0,0,0,3.53.48c1.2-3.44,2.51-6.83,4-10.16a1.85,1.85,0,0,0-.65-2.46,1.8,1.8,0,0,0-2.46.65Z" transform="translate(-53.01 -32.52)"/><path d="M77.62,515.14a3.86,3.86,0,0,1,.12.57c0-.27,0,.13,0,.2a7.65,7.65,0,0,1,0,1.07c0,.35,0,.52-.08.69-.07.39-.13.79-.2,1.18a12.93,12.93,0,0,0-.15,4.07,5.33,5.33,0,0,0,5.57,4.77c3-.22,5.07-2.41,6-5.11a7,7,0,0,0,.23-4.44A5.84,5.84,0,0,0,86.54,515c-3-1.77-6.34-.87-9.35.23a1.81,1.81,0,0,0,1,3.48,22.14,22.14,0,0,1,3.48-1,4.67,4.67,0,0,1,2.49.16l.29.1c-.33-.13-.08,0,0,0l.59.34c.23.13-.27-.27,0,0l.21.2.2.22c-.26-.26,0,0,.07.12s.09.17.14.26c-.17-.29,0-.09,0,0s.07.24.1.36c.15.54,0-.14,0,.18a4.84,4.84,0,0,1,0,.85c0-.09.06-.26,0,.09,0,.19-.09.37-.14.56s-.14.43-.22.64,0,.08,0,0c-.06.12-.12.24-.19.36s-.24.42-.37.63c0,.05-.2.28,0,0-.1.13-.21.25-.32.37s-.3.29-.47.43c.25-.21-.18.12-.29.18s-.44.23-.2.12-.1,0-.15.05l-.38.1c-.32.11.13,0-.07,0s-.46,0-.7,0c.08,0,.36.08,0,0L82,524c-.31-.07-.09,0,0,0a2.21,2.21,0,0,1-.34-.18c-.09-.05-.32-.27-.07,0-.09-.08-.17-.18-.27-.26s.18.33,0,0l-.15-.25A2.1,2.1,0,0,1,81,523c.15.32,0,.09,0,0s-.13-.43-.17-.66c0-.06-.06-.38,0-.14s0-.25,0-.3a10.08,10.08,0,0,1,.06-1.56c0-.28,0,.28,0-.05l.09-.58c.06-.33.11-.65.17-1a11,11,0,0,0,0-4.54,1.81,1.81,0,0,0-2.21-1.26,1.83,1.83,0,0,0-1.26,2.21Z" transform="translate(-53.01 -32.52)"/><path d="M61.6,538.42A17.86,17.86,0,0,0,59.51,546a4.19,4.19,0,0,0,5.27,4,8.26,8.26,0,0,0,3.28-1.74c1.06-.82,2.1-1.66,3.11-2.52,2.11-1.78,4.13-3.65,6.08-5.6l-2.83-.36c.17.27.19.23,0-.11.07-.1,0,0,0,.2a5,5,0,0,0-.27.57c-.39.71-.82,1.4-1.24,2.1l-2.35,4-4.89,8.31a1.82,1.82,0,0,0,1.55,2.71,4.59,4.59,0,0,0,3.21-1.43,1.81,1.81,0,0,0,0-2.54,1.84,1.84,0,0,0-2.55,0c-.2.17-.41.38-.66.37l1.56,2.71,5.56-9.45q1.35-2.29,2.69-4.59c.82-1.39,1.56-3.21.48-4.68a1.84,1.84,0,0,0-2.83-.37c-1.5,1.5-3,3-4.63,4.35a49.06,49.06,0,0,1-4.68,3.85,3.42,3.42,0,0,1-1.74.73c-.56-.06-.56-.19-.53-.78a14.89,14.89,0,0,1,1.59-5.45,1.86,1.86,0,0,0-.65-2.46,1.82,1.82,0,0,0-2.46.65Z" transform="translate(-53.01 -32.52)"/><path d="M82.85,538.07c-1.5,1.27-3,2.56-4.41,3.89-1.28,1.17-3.48,2.64-3.46,4.58a2.54,2.54,0,0,0,1.57,2.35,5.08,5.08,0,0,0,2.84,0l6-1-1.76-3-4.2,5.45c-1.24,1.59-3.77,3.83-2.54,6.06,1.1,2,3.54,1.32,5.18.56a14.51,14.51,0,0,0,4.62-3.49c1.54-1.73-1-4.29-2.54-2.55a11.8,11.8,0,0,1-2.85,2.38,8.53,8.53,0,0,1-1.64.79c-.12,0-.27,0-.31.06.48.06.75.44.79,1.14a.67.67,0,0,0,.16-.24c1.06-1.11,1.93-2.51,2.87-3.72l3-3.89a1.82,1.82,0,0,0-1.75-3l-4.44.76a10.11,10.11,0,0,0-2.22.38l.06,0c-.73,0-.52.43.62,1.43a4.91,4.91,0,0,0,.41-.48c2.09-2,4.29-4,6.51-5.85a1.8,1.8,0,0,0-2.55-2.54Z" transform="translate(-53.01 -32.52)"/><path d="M94.43,536.52a14.24,14.24,0,0,0-8.13,6,1.82,1.82,0,0,0,1.08,2.65,13.76,13.76,0,0,0,4.85.76,15.62,15.62,0,0,0,2.64-.33,4,4,0,0,1,1.92-.19.34.34,0,0,1,.26.2l-.17-.23a9.16,9.16,0,0,0-.54.8l-.84,1.11-3.2,4.24A1.82,1.82,0,0,0,93,554a1.84,1.84,0,0,0,2.46-.65l3.7-4.9a5.56,5.56,0,0,0,1.37-2.8,3.33,3.33,0,0,0-1.08-2.77c-1.72-1.57-3.83-1-5.88-.67a10.31,10.31,0,0,1-5.19-.5l1.08,2.64a10.46,10.46,0,0,1,6-4.38,1.8,1.8,0,0,0-1-3.47Z" transform="translate(-53.01 -32.52)"/><path d="M65.38,567.51a105.57,105.57,0,0,0-4.21,11.55,1.85,1.85,0,0,0,1.26,2.22c1.67.65,2.84-.95,3.27-2.3s.75-2.4,1.12-3.6l2.31-7.45H65.66a22.47,22.47,0,0,0,6,11.71,1.82,1.82,0,0,0,2.83-.37,90.24,90.24,0,0,0,3.88-9.51,1.8,1.8,0,1,0-3.48-1,80,80,0,0,1-3.51,8.66l2.82-.37A19.08,19.08,0,0,1,69.13,567a1.8,1.8,0,0,0-1.73-1.32A1.85,1.85,0,0,0,65.66,567l-1.87,6-.92,3-.48,1.55a3,3,0,0,0-.2.64c0,.28,0,0,.12-.11l.9-.25.18,0L64.64,580a96.57,96.57,0,0,1,3.85-10.69,1.87,1.87,0,0,0-.65-2.47,1.81,1.81,0,0,0-2.46.65Z" transform="translate(-53.01 -32.52)"/><path d="M86,564.8a25.43,25.43,0,0,0-3.33,7.14,13.38,13.38,0,0,0-.73,3.95,3,3,0,0,0,3,3.12c2.81,0,4.58-2.9,5.43-5.2a16.8,16.8,0,0,0,.81-3.36,7.75,7.75,0,0,0-.38-4.37c-1.19-2.63-5.22-3.52-6.86-.81A1.8,1.8,0,0,0,87,567.09c.07-.12.18-.19-.06.06.12-.12.08,0,0,0l-.08.07c.13-.07.13-.07,0,0s-.17.1,0,0c.33-.18-.14.08-.12,0H87c.07,0,.24,0,0,0s.08,0,.14,0,.25.14-.07,0l.17.09c.4.22-.14-.12.11.07s0,0,0-.08c0,.08.1.15.14.23s.17.36.1.17.08.29.08.28,0,.17,0,.26c0,.29,0-.25,0,0s0,.41,0,.62,0,.43,0,.64c0,0,0,.41,0,.2l0,.29a16.26,16.26,0,0,1-.6,2.5l-.21.58c.1-.27,0,0,0,0l-.15.32a8.39,8.39,0,0,1-.67,1.11c-.17.23.15-.18,0,0l-.17.2c-.14.15-.29.27-.43.42s.22-.1,0,0l-.21.12c-.29.17-.07,0,0,0-.07,0-.45.06-.2.06s0,0,0,0a.86.86,0,0,1,.39.09c.21.11.24.27.33.46s0-.06,0-.15,0-.16,0-.24c0-.35,0-.07,0,0,0-.13,0-.26.07-.38a23.39,23.39,0,0,1,.7-2.86,21.31,21.31,0,0,1,2.8-5.71,1.82,1.82,0,0,0-.64-2.47,1.85,1.85,0,0,0-2.47.65Z" transform="translate(-53.01 -32.52)"/><path d="M59.27,590.27a48.22,48.22,0,0,1-6,14.23l3.11,1.82L65,592.09l-3.35-.91-1,8.19c-.15,1.22-.58,2.71,0,3.89a2.82,2.82,0,0,0,3.26,1.51,4.5,4.5,0,0,0,2.6-2.21c.78-1.22,1.55-2.46,2.32-3.69l4.48-7.1L70,590.38l-3.21,13c-.56,2.25,2.91,3.21,3.47,1l3.21-13A1.81,1.81,0,0,0,70.18,590c-2.35,3.73-4.85,7.41-7.08,11.21-.22.39-.11,0,.22.11l.66.85v-.23a6.4,6.4,0,0,0,.1-.88l.36-3.11.78-6.72c.21-1.86-2.51-2.32-3.36-.91L53.28,604.5c-1.2,2,1.88,3.78,3.11,1.82a51.18,51.18,0,0,0,6.35-15.09c.55-2.25-2.93-3.21-3.47-1Z" transform="translate(-53.01 -32.52)"/><path d="M72.66,603a60.68,60.68,0,0,1,2.69-5.66c.49-.92,1-1.83,1.55-2.72.14-.23.29-.46.44-.69s.14-.2,0-.08l.12-.14c.09-.09.17-.18.26-.26-.13.1-.11.09.06,0-.37,0-.22,0,.07.07l-1.74-1.32a47.11,47.11,0,0,1,.71,11.69,1.82,1.82,0,0,0,1.8,1.8,1.84,1.84,0,0,0,1.8-1.8,50.63,50.63,0,0,0-.84-12.65,1.82,1.82,0,0,0-1.73-1.32c-2.75-.35-4.26,3.09-5.34,5a66.91,66.91,0,0,0-3.37,7.11,1.8,1.8,0,0,0,1.26,2.21A1.83,1.83,0,0,0,72.66,603Z" transform="translate(-53.01 -32.52)"/><path d="M72.76,603.25A23.43,23.43,0,0,0,79.27,601a1.82,1.82,0,0,0,.64-2.47,1.84,1.84,0,0,0-2.46-.64c-.49.25-1,.48-1.51.7l.43-.18a22.08,22.08,0,0,1-4.56,1.34,1.8,1.8,0,0,0-1.08.83,1.79,1.79,0,0,0,.65,2.46,2,2,0,0,0,1.38.18Z" transform="translate(-53.01 -32.52)"/><path d="M84.07,593.6l-.64,2.72a3.74,3.74,0,0,0,.11,2.9c1,1.79,3.44,1.55,4.77.27a44.21,44.21,0,0,0,3.38-4.19l3.68-4.63-3-.8c.4,2.77-1.28,5.51-2.71,7.72-1.6,2.47-3.28,4.91-4,7.81-.57,2.24,2.9,3.2,3.47,1,.75-3,2.71-5.35,4.27-7.92,1.78-2.91,3-6.07,2.46-9.51a1.81,1.81,0,0,0-3-.8l-5.11,6.43-1.23,1.54c-.08.1-.76.87-.75.88.51-.11.86.15,1,.79h0c.14-.11.18-.76.23-1l.52-2.25c.53-2.25-2.94-3.21-3.47-.95Z" transform="translate(-53.01 -32.52)"/><path d="M99.67,592.26a16.85,16.85,0,0,1-3.52,8.36l3.08,1.27a18,18,0,0,1,1.44-5.73c.7-1.57,1.61-3.58,3.21-4.41-.09,0,.44-.1.12,0,.07,0,.57,0,.3,0,.06,0,.52.18.31.08,0,0,.5.26.25.16.35.15-.12.08,0,0s-.09.37,0,0a2,2,0,0,1-.56.69c-1.65,1.51-3.61,2.77-5.39,4.12a1.82,1.82,0,0,0,.91,3.36l4.48.2,1.08.05c-.15,0-.12,0,.1,0a.66.66,0,0,1-.17-.12c.16-1.21,0-1.56-.36-1.07l-.39.35-.69.59a19.26,19.26,0,0,1-6.64,3.42c-2.22.66-1.28,4.13,1,3.48a23.92,23.92,0,0,0,5.2-2.23,17.57,17.57,0,0,0,4.37-3.33,2.74,2.74,0,0,0-1.69-4.64,24.39,24.39,0,0,0-3-.2l-3.28-.14.91,3.35,3.83-2.9a11.74,11.74,0,0,0,3.33-3c1.63-2.79-.7-5.87-3.73-5.83s-5,2.9-6.18,5.29a22.45,22.45,0,0,0-2.39,8.51,1.82,1.82,0,0,0,3.07,1.28,20.38,20.38,0,0,0,4.45-10,1.87,1.87,0,0,0-1.26-2.21,1.82,1.82,0,0,0-2.22,1.26Z" transform="translate(-53.01 -32.52)"/><path d="M116.66,590.83q-1.92,1.41-3.77,2.91a45.41,45.41,0,0,0-3.6,3,2.06,2.06,0,0,0-.32,2.58,2.72,2.72,0,0,0,2.24,1.18,12,12,0,0,0,2.22-.27l1.06-.15a5.85,5.85,0,0,0,1.33-.2l.27,0-.47-.43a.73.73,0,0,1-.48-1c0,.09-.15.25,0,.06-.07.09-.12.23-.19.32.14-.2-.31.36-.36.41-.3.35-.59.72-.87,1.1a12.13,12.13,0,0,0-1.9,3.72c-1.08,3.83,4.29,3.86,6.68,3.52a12.25,12.25,0,0,0,7.5-4.11,1.84,1.84,0,0,0,0-2.54,1.8,1.8,0,0,0-2.54,0,8.8,8.8,0,0,1-4.17,2.79,8.1,8.1,0,0,1-2.43.41,9,9,0,0,1-1.37-.06c.21,0-.3-.06-.35-.07a2.71,2.71,0,0,1-.41-.09c-.38-.12-.27,0,.34.3l.25.91c0-.13,0-.22,0-.1a4.76,4.76,0,0,0,.19-.53c.09-.21.2-.42.3-.64a11.66,11.66,0,0,1,1-1.69c.8-1.06,1.9-2,1.87-3.46a2.43,2.43,0,0,0-1.13-2.1,3.62,3.62,0,0,0-2.57-.22l-2.27.33-1.06.16c-.38.05-.17,0-.3,0s-.11,0,0,0c.51,0,.81.43.9,1.18l-.53,1.27c2.18-1.91,4.42-3.74,6.74-5.46a1.86,1.86,0,0,0,.65-2.47,1.81,1.81,0,0,0-2.46-.64Z" transform="translate(-53.01 -32.52)"/><path d="M992.94,272a8.75,8.75,0,0,0-.21,6c.7,2.08,2.19,4.23,4.66,3.93,2.18-.27,4.06-2.16,5.77-3.41l5.88-4.3-2.9-1.18c.08-.24.06-.17,0,.18-.07.17-.13.33-.2.49-.17.43-.35.85-.53,1.28l-.91,2.19-2,4.93-4,9.68a2,2,0,0,0,1.38,2.43,2,2,0,0,0,2.43-1.38l4.32-10.41,2.12-5.11c.67-1.63,1.88-3.53,1.31-5.34a2,2,0,0,0-2.9-1.18q-4.38,3.21-8.75,6.4a6.47,6.47,0,0,1-1,.66c-.13.06-.6.15-.26.18.17.09.2.12.1.08s-.21-.32-.31-.49a4.6,4.6,0,0,1-.31-.68,5.34,5.34,0,0,1,.21-3.89,2,2,0,0,0-1.38-2.43,2,2,0,0,0-2.43,1.38Z" transform="translate(-53.01 -32.52)"/><path d="M1016.59,271.76a12.23,12.23,0,0,0-6.73,7.63,2,2,0,0,0,1.38,2.43c3.62,1.21,7.27-.35,10.5-1.94l-2-3.41a30.41,30.41,0,0,0-5.62,4.42,25.12,25.12,0,0,0-4.31,5.48,4.19,4.19,0,0,0-.37,3.91,3.59,3.59,0,0,0,3.21,1.87,11.52,11.52,0,0,0,6.92-2.29,2,2,0,0,0,.71-2.71,2,2,0,0,0-2.71-.71,8.45,8.45,0,0,1-4.29,1.74h-.63c0-.05.23.27.19.18s.26.54.19.51.08-.31.13-.43a12.26,12.26,0,0,1,1.27-1.89,25.76,25.76,0,0,1,7.31-6.68c2.18-1.34.27-4.52-2-3.41s-4.89,2.4-7.45,1.54l1.38,2.43a8.51,8.51,0,0,1,4.91-5.27,2,2,0,0,0,.71-2.7,2,2,0,0,0-2.7-.71Z" transform="translate(-53.01 -32.52)"/><path d="M1033.21,270.52a21.25,21.25,0,0,0-6.08,4.74,5.42,5.42,0,0,0-1.76,3.66c.09,1.85,1.56,2.74,3.23,2.91a33.62,33.62,0,0,0,4.26.1c1.26,0,2.53-.24,3.8-.24.1,0,.68.06.37,0a2.22,2.22,0,0,1,.37.09c-.16-.05-.06-.11-.05,0l.08.05-.13-.1-.15-.28c-.18-.11.27-.31-.19.09a25,25,0,0,1-2.45,2,17.11,17.11,0,0,1-7.33,2.76,2,2,0,0,0-2,2,2,2,0,0,0,2,2,21.75,21.75,0,0,0,7.74-2.36,21.1,21.1,0,0,0,3.37-2.26,7.28,7.28,0,0,0,2.64-3.25,3.46,3.46,0,0,0-1.44-3.94,5.6,5.6,0,0,0-3.34-.68c-1.41.08-2.8.23-4.21.24-.72,0-1.43,0-2.15-.05a4.56,4.56,0,0,0-1.07-.06c.06-.09.66,1.08.58,1.06a6.59,6.59,0,0,1,.8-1.09,16.77,16.77,0,0,1,1.53-1.51,17.67,17.67,0,0,1,3.57-2.42,2,2,0,0,0-2-3.41Z" transform="translate(-53.01 -32.52)"/><path d="M995.79,303.6a67.48,67.48,0,0,0-9.35,13.21c-.85,1.6,1,4,2.71,2.71,5.41-4,7.72-10.37,12.09-15.29l-3.3-.87a38.28,38.28,0,0,0,2.37,9.12c.89,2.23,2.28,7.08,5.53,6.09,1.4-.43,2.1-1.76,2.62-3q.87-2.12,1.93-4.14a46.34,46.34,0,0,1,5.1-7.68,2,2,0,0,0,0-2.79,2,2,0,0,0-2.79,0,51,51,0,0,0-4.86,6.92c-.67,1.15-1.28,2.33-1.85,3.53-.32.69-.63,1.39-.92,2.09-.12.27-.22.55-.34.82a2.22,2.22,0,0,1-.2.41c-.23.32,0,.33.61,0l.87.51a9.92,9.92,0,0,1-1.57-3c-.44-1-.82-2.05-1.16-3.1a38.35,38.35,0,0,1-1.53-6.79c-.2-1.47-2.4-1.89-3.3-.87-4.06,4.57-6.31,11-11.3,14.67l2.71,2.7a62,62,0,0,1,8.73-12.41c1.7-1.88-1.09-4.69-2.8-2.8Z" transform="translate(-53.01 -32.52)"/><path d="M1018.51,305.41a27.83,27.83,0,0,0-2.4,4.55,12.19,12.19,0,0,0-1.17,4.25,4,4,0,0,0,2.58,4,6.81,6.81,0,0,0,4.45-.27,12,12,0,0,0,6.23-5.14c1.47-2.49,2.2-5.91.87-8.59-1.45-2.93-5.12-3.56-8.06-3.24a2,2,0,0,0-2,2,2,2,0,0,0,2,2c.46,0,.92-.08,1.38-.08l.65,0,.37,0c.57,0-.21-.05.11,0s.41.08.62.14.72.26.36.09c.21.1.4.22.6.33,0,0,.24.19.07.05s.14.16.18.19.22.28,0,0a2.2,2.2,0,0,1,.19.3c.13.21.07.12.15.43a4.8,4.8,0,0,1,.07,1.43c0,.05,0,.45,0,.21s0,.09,0,.11c0,.25-.09.5-.16.74s-.12.42-.19.63l-.14.36c-.07.19.1-.18-.06.13a13.47,13.47,0,0,1-.7,1.23,5.1,5.1,0,0,1-.76.93c-.15.16-.31.32-.48.47s-.57.49-.32.3a8.92,8.92,0,0,1-1.28.81l-.33.17s-.3.14-.11.06-.16.06-.2.08l-.36.12c-.21.07-.42.13-.64.18l-.37.08c-.34.08.07,0-.15,0a3.19,3.19,0,0,1-.69,0c.33.05,0,0,0-.05a.34.34,0,0,1,.21.14c-.1-.13-.15-.06-.08-.06l0,.06,0-.08,0,.07c0-.2-.06-.23,0-.08s0-.29,0-.29,0-.39,0,0c0-.12,0-.25.07-.37a8.24,8.24,0,0,1,.24-.85c.18-.55.43-1.23.63-1.69a25.63,25.63,0,0,1,2.1-3.85,2,2,0,1,0-3.41-2Z" transform="translate(-53.01 -32.52)"/><path d="M997.77,327.78a22.33,22.33,0,0,0-4.24,8.42c-.41,1.73.14,3.57,2,4.06,1.49.39,3.05-.32,4.36-1,4.7-2.28,7.89-6.8,12.72-8.88l-3-1.71a25,25,0,0,1-2.59,7.78c-1.34,2.79-2.72,5.55-4.09,8.32a2,2,0,0,0,.71,2.7,2,2,0,0,0,2.71-.71c1.45-2.95,3-5.89,4.34-8.88a29,29,0,0,0,2.87-9.21,1.94,1.94,0,0,0-1-1.7,2.07,2.07,0,0,0-2,0c-4,1.72-6.85,5.05-10.36,7.48a15.78,15.78,0,0,1-2.7,1.56c-.2.09-1,.21-1.14.38.2-.27.72,1,.85,1a4.4,4.4,0,0,1,.16-.63,18.37,18.37,0,0,1,3.11-6.24,2.05,2.05,0,0,0,0-2.8,2,2,0,0,0-2.8,0Z" transform="translate(-53.01 -32.52)"/><path d="M1020.84,326.61a20.07,20.07,0,0,0-4,4.92c-1,1.74-2.62,4.5-1.51,6.49,1,1.81,3.86,2.18,5.72,2a9,9,0,0,0,5.58-2.66,2,2,0,0,0-1.92-3.31,13.55,13.55,0,0,0-9.24,8.53c-.89,2.52.19,5.16,2.91,5.78s4.81-1.19,6.16-3.28-2-4.12-3.41-2a3.82,3.82,0,0,1-1.27,1.32.81.81,0,0,1-.62.11c-.5-.16.11.11-.26-.2.07.29.1.32.07.09a4.84,4.84,0,0,1,.19-.65,7.63,7.63,0,0,1,.75-1.58,9.54,9.54,0,0,1,5.77-4.32l-1.92-3.3a5,5,0,0,1-3.06,1.54,4.86,4.86,0,0,1-1.32,0c-.11,0-.67-.25-.77-.2q-.39,0,.21.66a.64.64,0,0,0,.11-.31c.31-.49.47-1.21.74-1.74a17.2,17.2,0,0,1,1-1.82,16.82,16.82,0,0,1,2.85-3.22c1.91-1.7-.9-4.48-2.79-2.8Z" transform="translate(-53.01 -32.52)"/><path d="M1037,326a22.76,22.76,0,0,0-5.5,4c-1.6,1.59-4.24,4.4-2,6.57,1,.93,2.59,1,3.85,1.11a26.22,26.22,0,0,0,4,.13c.53,0,1.05-.09,1.57-.1a4.14,4.14,0,0,1,.61,0c.24,0,0,0,0,0l.37.09c-.15.26-.63-1-.39-.88a12.35,12.35,0,0,1-1,.93,34.7,34.7,0,0,1-6.77,4.12,2,2,0,0,0-.71,2.7,2,2,0,0,0,2.71.71,36.5,36.5,0,0,0,6.14-3.64c1.9-1.4,4.69-3.54,3.09-6.23-1.31-2.21-4.07-1.68-6.21-1.63a25.18,25.18,0,0,1-3.58-.18c-.3,0-.61-.09-.91-.15a2.82,2.82,0,0,0-.31-.07c-.75,0,1.13,1.16.66,1.24a7.79,7.79,0,0,0,.71-.87,19.67,19.67,0,0,1,5.69-4.48,2,2,0,0,0-2-3.41Z" transform="translate(-53.01 -32.52)"/><path d="M999.24,360.75l-4.63,11.6,3.81,1.06,2.49-7.42c.38-1.12.74-2.25,1.16-3.36a12.42,12.42,0,0,1,.62-1.4c.11-.21.23-.43.35-.63l.23-.38c.37-.46.16-.39-.63.22l-1-.27.17.11-.71-.71a1.2,1.2,0,0,0,0-.19l0,.55c0,.27,0,.55,0,.83,0,.65.09,1.3.15,1.94a28.36,28.36,0,0,0,.6,3.8,15.3,15.3,0,0,0,1.44,3.76c.71,1.27,1.66,2.69,3.33,2.45s2.36-1.82,3.14-3,1.46-2.35,2.13-3.56a62.11,62.11,0,0,0,3.64-7.85,2,2,0,0,0-1.38-2.43,2,2,0,0,0-2.44,1.38,54,54,0,0,1-2.86,6.23c-.53,1-1.09,2-1.68,2.93-.33.53-.66,1.05-1,1.56-.16.25-.34.51-.51.76l-.17.26c-.39.47-.17.41.66-.2l1,.27.13.14-.3-.46c-.14-.23-.28-.46-.4-.7a9.25,9.25,0,0,1-.62-1.53,17.15,17.15,0,0,1-.69-3.24c-.16-1.29-.19-2.59-.3-3.88-.14-1.7-1.31-3.36-3.25-2.81-1.41.4-2.2,2-2.78,3.19a37,37,0,0,0-1.49,3.91q-1.47,4.35-2.92,8.68a2,2,0,0,0,1.38,2.44,2,2,0,0,0,2.43-1.38l4.64-11.61a2,2,0,0,0-1.38-2.44,2,2,0,0,0-2.44,1.39Z" transform="translate(-53.01 -32.52)"/><path d="M1018.48,357.67a28.88,28.88,0,0,0-4,9.72c-.38,1.82-.55,3.84.95,5.23a5.39,5.39,0,0,0,5,.85,9.42,9.42,0,0,0,6.44-6.1,9,9,0,0,0-2.09-8.79c-2.57-2.8-7-3.9-10.15-1.4a2,2,0,0,0,0,2.8,2,2,0,0,0,2.8,0c-.25.19.51-.23.18-.1.06,0,.78-.19.47-.15a5.72,5.72,0,0,1,.83,0h.09a4,4,0,0,1,.5.1,3,3,0,0,1,1.15.47q.29.16.57.36c-.24-.16,0,0,.06.05l.43.39a5.73,5.73,0,0,1,1.34,2.08q.12.36.21.75c0,.12,0,.25.07.38,0-.34,0,0,0,.05q0,.39,0,.78c0,.06,0,.39,0,.06a4,4,0,0,1-.09.48,6.25,6.25,0,0,1-.21.74s-.17.41-.08.21-.09.17-.11.21c-.11.2-.22.4-.34.59l-.22.32c.19-.27-.17.2-.18.21a7.14,7.14,0,0,1-.55.55l-.29.26c.06-.06.26-.17-.07.05l-.57.36-.35.18c-.1,0-.4.17-.15.08a6.34,6.34,0,0,1-.74.23c-.09,0-.8.11-.42.09a3.86,3.86,0,0,1-.76,0c.17,0,.19.09,0,0s.06.09-.12-.05.39.35.13.14,0,.12,0-.07a2.77,2.77,0,0,1,0-.41c0-.05,0-.47,0-.26s0-.15,0-.15c.08-.4.16-.8.25-1.2a25.6,25.6,0,0,1,3.45-8.06,2,2,0,0,0-.71-2.7,2,2,0,0,0-2.7.71Z" transform="translate(-53.01 -32.52)"/><path d="M996.76,386.49a21.25,21.25,0,0,0-.93,4.09c-.17,1.35-.4,2.94.34,4.17,1.63,2.67,5.21.89,7.28-.15,4.47-2.25,8.12-5.82,12.53-8.2l-2.71-.7c0-.69,0-.81-.23-.35l-.49.77-.73,1.14-1.71,2.69-3.54,5.55-7,10.91,3.68,1c0-.41,0-.39.2-.72a2,2,0,0,0-.7-2.71,2,2,0,0,0-2.71.71,4,4,0,0,0-.74,2.72,2,2,0,0,0,3.68,1L1011,396l3.9-6.13c1.13-1.77,3.11-3.95,1.83-6.13A2,2,0,0,0,1014,383a76,76,0,0,0-7.75,5.21,43,43,0,0,1-3.82,2.48,19.5,19.5,0,0,1-1.94,1c-.29.12-.58.24-.87.34l-.66.21c-.18,0-.17,0,0,0l.71.71a6.08,6.08,0,0,1,.13-2.39,18.91,18.91,0,0,1,.76-3c.81-2.41-3-3.45-3.81-1.05Z" transform="translate(-53.01 -32.52)"/><path d="M1024.91,384.51a31.83,31.83,0,0,0-7.06,3.32c-2.19,1.39-4.57,3.07-5.64,5.52a2.76,2.76,0,0,0,1.57,3.93,9.61,9.61,0,0,0,4.09-.22,22.69,22.69,0,0,0,7.61-2.88l-2-3.41a55.81,55.81,0,0,0-7.25,5.17q-1.56,1.31-3,2.73c-1,1-2.31,2.1-2.74,3.54a3,3,0,0,0,2.1,3.79c1.34.34,3-.21,4.28-.59a23.65,23.65,0,0,0,7.57-3.8,2,2,0,0,0,.71-2.7,2,2,0,0,0-2.7-.71,21.34,21.34,0,0,1-4.64,2.71,20.21,20.21,0,0,1-2.42.81c-.43.12-.86.23-1.3.32a2.13,2.13,0,0,0-.58.11s.1,0,0,0l.71.71c.38.51-.2.45.13.31.14-.05.32-.34.42-.46.47-.49.94-1,1.43-1.44.93-.9,1.9-1.77,2.89-2.6a49.87,49.87,0,0,1,6.34-4.46c2.18-1.3.2-4.72-2-3.41a19.49,19.49,0,0,1-4.38,1.94,20.55,20.55,0,0,1-2.44.57c-.34.06-.68.1-1,.13l-.62,0c-.44,0-.33.07.34.26l.51.87c.1.28-.2.46.13,0,.13-.17.22-.36.36-.52a7.56,7.56,0,0,1,1-1,19.49,19.49,0,0,1,2.61-1.89,27.48,27.48,0,0,1,6-2.84,2,2,0,1,0-1.06-3.81Z" transform="translate(-53.01 -32.52)"/><path d="M1035.53,384.69a17.89,17.89,0,0,0-5,4c-.86,1-1.86,2.16-1.47,3.58a4.2,4.2,0,0,0,2.81,2.52c1.81.71,3.8.53,5.7.63l.6.05s.45.06.22,0,.12,0,.13,0l.57.13.37.12c.11,0,.24.12.06,0,.48.25.27.28.16-.52-.18-1.19,0-.65-.23-.45,0,0,.14-.19,0,0a10.28,10.28,0,0,1-1.08,1.11l-.24.2c-.26.21.19-.13-.09.07s-.45.31-.68.46l-.72.41c-.08,0-.59.28-.38.19a9.56,9.56,0,0,1-1.57.5,5.31,5.31,0,0,1-1.31.19,2,2,0,0,0-2,2,2,2,0,0,0,2,2,12.64,12.64,0,0,0,6.06-1.88c1.81-1.14,4.81-3.51,3.77-5.95-.93-2.2-3.94-2.56-6-2.63-1,0-1.94,0-2.91-.11-.37,0,.11,0-.24,0l-.65-.16-.27-.09c.3.1,0,0,0,0l-.25-.13-.24-.16.1.08.06.69c-.08.69,0,.9.11.61.07,0,0,0,.14-.19s.38-.46.58-.68a16.54,16.54,0,0,1,1.19-1.18,13.84,13.84,0,0,1,2.82-1.92,2,2,0,0,0,.71-2.7,2,2,0,0,0-2.71-.71Z" transform="translate(-53.01 -32.52)"/><path d="M271.58,34.27a8.72,8.72,0,0,0-.21,6c.7,2.09,2.19,4.23,4.66,3.93,2.19-.26,4.06-2.15,5.77-3.4l5.88-4.31-2.9-1.18c.08-.23.06-.17,0,.19-.06.16-.13.32-.2.49-.17.42-.35.85-.53,1.27l-.91,2.2-2,4.93-4,9.68a2,2,0,0,0,1.38,2.43,2,2,0,0,0,2.43-1.38l4.32-10.41,2.12-5.12c.68-1.62,1.88-3.52,1.31-5.33a2,2,0,0,0-2.9-1.18c-2.92,2.13-5.82,4.28-8.75,6.4a6.41,6.41,0,0,1-1,.65c-.13.07-.6.15-.26.19.17.09.2.11.11.08a4.26,4.26,0,0,1-.32-.5,4.69,4.69,0,0,1-.31-.68,5.26,5.26,0,0,1,.22-3.88A2,2,0,0,0,274,32.89a2,2,0,0,0-2.44,1.38Z" transform="translate(-53.01 -32.52)"/><path d="M295.23,34a12.23,12.23,0,0,0-6.73,7.63,2,2,0,0,0,1.38,2.43c3.62,1.21,7.27-.35,10.5-1.94l-2-3.41a30.75,30.75,0,0,0-5.62,4.42,24.78,24.78,0,0,0-4.3,5.48,4.19,4.19,0,0,0-.38,3.91,3.57,3.57,0,0,0,3.21,1.86,11.39,11.39,0,0,0,6.92-2.29,2,2,0,0,0,.71-2.7,2,2,0,0,0-2.71-.71,8.35,8.35,0,0,1-4.29,1.73l-.63,0s.23.26.19.17.26.54.19.52a4,4,0,0,1,.13-.43,12.84,12.84,0,0,1,1.27-1.9,25.58,25.58,0,0,1,7.31-6.67,2,2,0,0,0-2-3.41c-2.28,1.12-4.89,2.39-7.45,1.54l1.38,2.43a8.57,8.57,0,0,1,4.91-5.27,2,2,0,0,0,.71-2.7,2,2,0,0,0-2.7-.71Z" transform="translate(-53.01 -32.52)"/><path d="M311.85,32.77a21.07,21.07,0,0,0-6.08,4.74A5.38,5.38,0,0,0,304,41.17c.09,1.84,1.56,2.74,3.23,2.9a31.91,31.91,0,0,0,4.26.11c1.27,0,2.53-.25,3.8-.24.1,0,.68.06.37,0l.38.09c-.17-.05-.07-.1-.06,0l.08,0-.13-.1s-.15-.28-.14-.27c-.19-.11.27-.31-.19.09a26.69,26.69,0,0,1-2.46,2,17.19,17.19,0,0,1-7.33,2.76,2,2,0,0,0-2,2,2,2,0,0,0,2,2,21.8,21.8,0,0,0,7.75-2.36,22.19,22.19,0,0,0,3.36-2.26,7.24,7.24,0,0,0,2.64-3.26,3.44,3.44,0,0,0-1.44-3.93,5.61,5.61,0,0,0-3.34-.69c-1.4.09-2.8.23-4.21.24-.72,0-1.43,0-2.15,0a4.59,4.59,0,0,0-1.07-.07c.06-.09.67,1.08.58,1.07a6.2,6.2,0,0,1,.8-1.1,19.83,19.83,0,0,1,1.53-1.51,17.62,17.62,0,0,1,3.57-2.41,2,2,0,0,0-2-3.41Z" transform="translate(-53.01 -32.52)"/><path d="M274.43,65.85a66.72,66.72,0,0,0-9.34,13.21c-.86,1.59,1,4,2.7,2.71,5.41-4,7.73-10.37,12.09-15.29l-3.3-.87A38.52,38.52,0,0,0,279,74.73c.89,2.22,2.28,7.07,5.53,6.08,1.4-.42,2.1-1.76,2.62-3,.58-1.41,1.22-2.8,1.93-4.15a45.84,45.84,0,0,1,5.1-7.67,2,2,0,0,0,0-2.8,2,2,0,0,0-2.79,0,52,52,0,0,0-4.86,6.93c-.66,1.15-1.28,2.33-1.85,3.53-.32.69-.63,1.38-.92,2.09-.11.27-.22.55-.34.81a1.62,1.62,0,0,1-.2.42c-.23.32,0,.32.61,0l.87.5a9.63,9.63,0,0,1-1.56-3c-.44-1-.83-2-1.17-3.1a38.75,38.75,0,0,1-1.53-6.79c-.2-1.47-2.39-1.9-3.3-.87-4.06,4.57-6.3,11-11.3,14.66l2.71,2.71a62.1,62.1,0,0,1,8.73-12.41c1.7-1.89-1.08-4.69-2.8-2.8Z" transform="translate(-53.01 -32.52)"/><path d="M297.15,67.66a27.83,27.83,0,0,0-2.4,4.55,12.17,12.17,0,0,0-1.16,4.25,4,4,0,0,0,2.58,4,6.72,6.72,0,0,0,4.44-.26A11.92,11.92,0,0,0,306.84,75c1.47-2.48,2.2-5.9.87-8.59-1.45-2.93-5.12-3.55-8.06-3.23a2,2,0,0,0-2,2,2,2,0,0,0,2,2,12.77,12.77,0,0,1,1.38-.08c.21,0,.43,0,.65,0l.37,0c.57,0-.21,0,.11,0l.62.14c.09,0,.72.27.36.1.21.1.4.22.6.33,0,0,.24.19.07.05s.15.15.18.18.22.29,0,0c.07.1.13.2.19.3s.08.13.16.44a5.22,5.22,0,0,1,.06,1.43s0,.44,0,.21,0,.09,0,.11c-.05.25-.1.49-.17.74s-.12.42-.19.63-.09.23-.13.35.09-.17-.07.14-.44.83-.7,1.23a5.1,5.1,0,0,1-.76.93c-.15.16-.31.31-.47.46s-.58.5-.33.3a9.48,9.48,0,0,1-1.27.82l-.34.17s-.29.14-.11.06-.16.06-.2.07l-.36.13-.63.18-.37.08c-.35.07.06,0-.16,0a2.66,2.66,0,0,1-.69,0c.33.06,0,0,0,0a.35.35,0,0,1,.2.14c-.1-.13-.15-.06-.08-.07l.05.06c-.09-.17-.11-.2,0-.07l0,.07c-.05-.2-.06-.23,0-.09s0-.28,0-.28,0-.39,0,0c0-.13.05-.25.07-.38q.11-.42.24-.84c.18-.55.43-1.23.63-1.69a25.73,25.73,0,0,1,2.1-3.86,2,2,0,0,0-.71-2.7,2,2,0,0,0-2.7.71Z" transform="translate(-53.01 -32.52)"/><path d="M276.41,90a22.58,22.58,0,0,0-4.24,8.41c-.41,1.74.14,3.57,2,4.07,1.49.39,3-.32,4.35-1,4.71-2.28,7.89-6.8,12.72-8.88l-3-1.71a24.69,24.69,0,0,1-2.59,7.78c-1.33,2.78-2.72,5.54-4.08,8.31a2,2,0,0,0,.71,2.71,2,2,0,0,0,2.7-.71c1.45-3,2.95-5.9,4.35-8.88A29.28,29.28,0,0,0,292.26,91a1.94,1.94,0,0,0-1-1.7,2.07,2.07,0,0,0-2,0c-4,1.71-6.85,5-10.36,7.48a16.47,16.47,0,0,1-2.7,1.56c-.19.08-1,.21-1.13.38.2-.27.71,1,.85,1a4,4,0,0,1,.15-.62,18.42,18.42,0,0,1,3.11-6.25,2,2,0,0,0,0-2.79,2,2,0,0,0-2.8,0Z" transform="translate(-53.01 -32.52)"/><path d="M299.48,88.86a20.07,20.07,0,0,0-4,4.92c-1,1.74-2.62,4.49-1.5,6.49,1,1.81,3.85,2.18,5.71,2a9,9,0,0,0,5.58-2.67,2,2,0,0,0-1.92-3.3,13.55,13.55,0,0,0-9.24,8.53c-.88,2.51.19,5.15,2.92,5.77s4.8-1.18,6.15-3.27-2-4.13-3.41-2a3.91,3.91,0,0,1-1.27,1.32.81.81,0,0,1-.62.11c-.5-.17.11.11-.25-.2.07.28.09.32.06.09s.12-.44.19-.66a7.8,7.8,0,0,1,.75-1.57,9.54,9.54,0,0,1,5.77-4.32l-1.92-3.3a5,5,0,0,1-3,1.54,5.36,5.36,0,0,1-1.33,0c-.11,0-.67-.26-.77-.2-.26,0-.19.22.21.65a.6.6,0,0,0,.11-.3c.31-.49.47-1.21.74-1.74a18.51,18.51,0,0,1,1.06-1.83,16.12,16.12,0,0,1,2.85-3.21c1.9-1.7-.9-4.49-2.8-2.8Z" transform="translate(-53.01 -32.52)"/><path d="M315.66,88.28a23,23,0,0,0-5.5,4c-1.6,1.6-4.24,4.41-2,6.58,1,.93,2.6,1,3.85,1.1a25.06,25.06,0,0,0,4,.13c.52,0,1-.08,1.56-.1h.61c.24,0,0,0,0,0l.37.09c-.15.26-.63-1-.39-.88a12.35,12.35,0,0,1-1,.93,35.7,35.7,0,0,1-6.77,4.12,2,2,0,0,0-.71,2.7,2,2,0,0,0,2.71.71,36.55,36.55,0,0,0,6.14-3.65c1.9-1.4,4.69-3.53,3.09-6.22-1.31-2.21-4.07-1.68-6.2-1.64a23.92,23.92,0,0,1-3.59-.17c-.3,0-.61-.09-.9-.15a1.83,1.83,0,0,0-.32-.07c-.75,0,1.13,1.16.66,1.24a8.85,8.85,0,0,0,.71-.87,19.5,19.5,0,0,1,5.69-4.48,2,2,0,0,0-2-3.41Z" transform="translate(-53.01 -32.52)"/><path d="M277.89,123l-4.64,11.61,3.81,1.05,2.5-7.41c.37-1.13.73-2.26,1.15-3.36a13.52,13.52,0,0,1,.62-1.4c.11-.22.23-.43.36-.64l.23-.37c.36-.46.15-.39-.64.22l-1-.27.17.1-.7-.71c0-.06,0-.12,0-.19l0,.55c0,.28,0,.56.05.83q.06,1,.15,2a27.33,27.33,0,0,0,.61,3.8,14.91,14.91,0,0,0,1.44,3.76c.7,1.27,1.65,2.68,3.32,2.45s2.36-1.82,3.14-3,1.47-2.34,2.14-3.55a64.86,64.86,0,0,0,3.63-7.85,2,2,0,1,0-3.81-1.05,56.61,56.61,0,0,1-2.87,6.23c-.53,1-1.09,2-1.68,2.93l-1,1.56c-.17.25-.34.51-.52.76l-.17.25c-.39.48-.17.42.66-.19l1,.27.13.13c-.1-.14-.2-.3-.3-.45s-.27-.47-.4-.71a9.14,9.14,0,0,1-.62-1.52,17.9,17.9,0,0,1-.69-3.25c-.16-1.29-.19-2.58-.3-3.88-.14-1.7-1.31-3.35-3.25-2.8-1.41.39-2.2,2-2.78,3.19a37,37,0,0,0-1.49,3.91l-2.92,8.68a2,2,0,0,0,3.81,1.05L281.7,124a2,2,0,0,0-1.38-2.43,2,2,0,0,0-2.43,1.38Z" transform="translate(-53.01 -32.52)"/><path d="M297.12,119.91a29.13,29.13,0,0,0-4,9.73c-.37,1.81-.55,3.84.95,5.22a5.38,5.38,0,0,0,5,.86,9.41,9.41,0,0,0,6.43-6.1,9,9,0,0,0-2.09-8.79c-2.57-2.8-7-3.9-10.15-1.4a2,2,0,0,0,0,2.79,2,2,0,0,0,2.8,0c-.25.2.52-.22.18-.09.06,0,.78-.2.47-.15a5.72,5.72,0,0,1,.83,0s.39.05.1,0l.5.11a2.92,2.92,0,0,1,1.14.46l.57.37c-.24-.17,0,0,.06,0a5.22,5.22,0,0,1,.43.39,5.73,5.73,0,0,1,1.34,2.08c.08.24.15.49.21.74s.05.26.07.39c-.05-.34,0,0,0,0,0,.26,0,.52,0,.78,0,.06,0,.39,0,.05,0,.17-.06.32-.09.48s-.14.5-.22.75c0,0-.17.41-.08.21s-.09.17-.11.21c-.1.2-.22.39-.34.58s-.14.22-.22.33c.19-.27-.17.2-.18.21a5.71,5.71,0,0,1-.55.55l-.29.26c.07-.06.26-.18-.07,0l-.57.37-.34.18c-.1.05-.41.17-.15.07-.25.09-.49.17-.74.24-.09,0-.8.11-.43.09a4.82,4.82,0,0,1-.76,0c.17,0,.19.09,0,0s.06.09-.11-.05.38.35.12.14,0,.11,0-.07a2.94,2.94,0,0,1,0-.42s0-.46,0-.25,0-.15,0-.15c.08-.4.16-.8.25-1.2a25.5,25.5,0,0,1,3.45-8.06,2,2,0,0,0-.7-2.7,2,2,0,0,0-2.71.7Z" transform="translate(-53.01 -32.52)"/><path d="M275.4,148.74a20.36,20.36,0,0,0-.92,4.09c-.18,1.35-.41,2.93.33,4.16,1.63,2.68,5.21.9,7.28-.15,4.48-2.25,8.12-5.81,12.53-8.19l-2.71-.71c0-.68,0-.8-.23-.34l-.49.76-.73,1.15-1.71,2.68-3.54,5.55-6.95,10.92,3.68,1c0-.4,0-.38.21-.71a2,2,0,0,0-.71-2.71,2,2,0,0,0-2.71.71,4,4,0,0,0-.74,2.71,2,2,0,0,0,3.68,1l7.93-12.44,3.91-6.13c1.13-1.77,3.1-4,1.82-6.13a2,2,0,0,0-2.71-.71,76,76,0,0,0-7.75,5.21,41.48,41.48,0,0,1-3.82,2.47c-.63.35-1.27.69-1.94,1-.28.12-.58.23-.87.33l-.66.22c-.18,0-.17,0,0,0l.71.7a6,6,0,0,1,.13-2.38,18.91,18.91,0,0,1,.76-3c.81-2.42-3-3.45-3.81-1Z" transform="translate(-53.01 -32.52)"/><path d="M303.56,146.75a32.18,32.18,0,0,0-7.07,3.33c-2.19,1.39-4.57,3.07-5.64,5.52a2.77,2.77,0,0,0,1.57,3.93,9.59,9.59,0,0,0,4.09-.22,22.9,22.9,0,0,0,7.61-2.88l-2-3.41a55.81,55.81,0,0,0-7.25,5.17c-1,.87-2,1.78-3,2.72s-2.31,2.11-2.74,3.55a3,3,0,0,0,2.1,3.78c1.34.34,3-.2,4.28-.58a23.65,23.65,0,0,0,7.57-3.8,2,2,0,0,0,.71-2.7,2,2,0,0,0-2.7-.71,21.93,21.93,0,0,1-4.63,2.71A21,21,0,0,1,294,164c-.43.12-.86.22-1.3.31a2.22,2.22,0,0,0-.58.12s.1,0,.05,0l.71.71c.39.5-.2.45.14.31.13,0,.31-.35.42-.46.46-.49.94-1,1.42-1.44.93-.9,1.9-1.77,2.89-2.61a49.8,49.8,0,0,1,6.34-4.45c2.18-1.3.2-4.72-2-3.41a19.29,19.29,0,0,1-4.38,1.94,22.17,22.17,0,0,1-2.44.57c-.34.05-.68.1-1,.13l-.63.05c-.44,0-.33.06.34.26l.51.87c.11.28-.2.46.13,0,.13-.17.22-.36.36-.53a7.49,7.49,0,0,1,1-1,19.49,19.49,0,0,1,2.61-1.89,28,28,0,0,1,6-2.85,2,2,0,1,0-1.05-3.81Z" transform="translate(-53.01 -32.52)"/><path d="M314.17,146.94a17.89,17.89,0,0,0-5,4c-.86,1-1.85,2.16-1.47,3.58a4.22,4.22,0,0,0,2.82,2.52c1.8.71,3.8.53,5.69.63l.6,0,.23,0,.12,0,.57.14.37.12c.11,0,.24.12.06,0,.48.26.28.28.16-.51-.18-1.19,0-.66-.23-.46,0,0,.14-.18,0,0a10.19,10.19,0,0,1-1.08,1.1l-.24.2c-.26.22.19-.13-.09.07s-.45.32-.68.47-.48.28-.72.4l-.38.19a9.59,9.59,0,0,1-1.57.51,5.31,5.31,0,0,1-1.31.19,2,2,0,1,0,0,4,12.66,12.66,0,0,0,6.06-1.89c1.81-1.14,4.81-3.5,3.78-5.94-.94-2.2-3.95-2.56-6-2.63-1,0-1.94,0-2.91-.11-.37,0,.12,0-.24,0l-.65-.16-.27-.09c.3.1,0,0,0,0a2,2,0,0,1-.25-.14,2.07,2.07,0,0,1-.25-.15l.1.07.06.7c-.08.69,0,.89.11.61.07,0,0,0,.14-.2l.58-.68c.38-.41.78-.8,1.2-1.18a14.14,14.14,0,0,1,2.81-1.91,2,2,0,1,0-2-3.41Z" transform="translate(-53.01 -32.52)"/></svg>