<svg xmlns="http://www.w3.org/2000/svg" xmlns:xlink="http://www.w3.org/1999/xlink" width="1064.47" height="831.94" viewBox="0 0 1064.47 831.94"><defs><clipPath id="a" transform="translate(-23.67 -47.03)"><rect x="-47.77" y="-194.49" width="1181.49" height="923.44" fill="none"/></clipPath></defs><polygon points="107.83 777.42 534.04 64 960.25 777.42 107.83 777.42"/><path d="M557.71,326.43l241.92,405H315.79L557.71,326.43m0-21.7L296.18,742.5H819.24L557.71,304.73Z" transform="translate(-23.67 -47.03)" fill="#fff"/><path d="M557.71,326.43l241.92,405H315.79L557.71,326.43m0-21.7L296.18,742.5H819.24L557.71,304.73Z" transform="translate(-23.67 -47.03)" fill="#fff"/><g clip-path="url(#a)"><path d="M444.3,125.76l-71.36,22.63-29,15.13-10.08,6a17.57,17.57,0,0,0-3.9,6.94l.39,5c2.23,6.65,8.52,11,15.37,12.49,6.27,1.37,17.17-.63,25.28-4.43,15-7,14.11-7.21,14.11-7.21l-4.79,4.82-9.93,9.38-10.62,11s-22.63,18.21-21.58,21.69c1.6,5.5,9,11.77,18.52,13.26s18.64-4.84,28.66-15.68c9.78-10.56,24.48-29.57,24.48-29.57l4.57,5.13-35.1,44.12a6.7,6.7,0,0,0,1,9.38c5.59,4.56,15.1,9.59,23.2.48,12.35-13.9,28.26-40,28.26-40l43.6,11.87,43.44-62.35-45.33-42Z" transform="translate(-23.67 -47.03)" fill="#23859b" stroke="#000" stroke-miterlimit="10" stroke-width="2.25"/><path d="M345.7,77a6.34,6.34,0,1,1-9.43,2.19L296.38,49.28l27.55,44.41s16.07-3.83,41.48,15.19L374.28,97C348.88,78,348,61.51,348,61.51L297.65,47.59l39.89,29.86A6.33,6.33,0,0,1,345.7,77Z" transform="translate(-23.67 -47.03)" fill="#c4c4c4" stroke="#000" stroke-linecap="round" stroke-linejoin="round" stroke-width="1.12"/><path d="M367.5,81.38,616,275.08A10.75,10.75,0,0,1,618,290h0a10.75,10.75,0,0,1-14.93,2.25L348.48,106.78Z" transform="translate(-23.67 -47.03)" fill="#c4c4c4" stroke="#000" stroke-miterlimit="10" stroke-width="0.56"/><path d="M345.32,107.05c-5.73-4.28-1.75-11.36,4.2-19.31S361.15,74,366.87,78.26l104.94,78.56c3.18,2.38.93,10.76-5,18.71S453.43,188,450.25,185.61Z" transform="translate(-23.67 -47.03)" fill="#c4c4c4" stroke="#000" stroke-miterlimit="10" stroke-width="0.53"/><path d="M618,290a10.75,10.75,0,0,1-14.93,2.25L348.48,106.78" transform="translate(-23.67 -47.03)" fill="#c4c4c4" stroke="#000" stroke-miterlimit="10" stroke-width="0.56"/><path d="M345.32,107.05c-5.73-4.28-1.75-11.36,4.2-19.31S361.15,74,366.87,78.26l104.94,78.56c3.18,2.38.93,10.76-5,18.71S453.43,188,450.25,185.61Z" transform="translate(-23.67 -47.03)" fill="#c4c4c4" stroke="#000" stroke-miterlimit="10" stroke-width="2.25"/><path d="M385.15,82.4l96-.51a18.36,18.36,0,0,1,6.23,1l11.39,4a16.32,16.32,0,0,1,4.71,2.6l72.11,57.28a33.42,33.42,0,0,1,5.4,5.43l6.47,8.21a33.1,33.1,0,0,1,6.83,16.29h0a32.66,32.66,0,0,1,0,8.44L580.56,291.32c0,.08,0,.14,0,.22-.23,3.76-6.68,109.89-5.59,111.52s25.28,365,24.95,375.85a3.17,3.17,0,0,1-.16.92c-1.36,4-40.35,43.89-63.25,38.83-24.59-5.43-80.31,29-94-28.73s12-309.74,20.56-348.7,12.93-61.16-2.72-88.47c-15-26.09-34.95-78.69-36.7-83.34a3,3,0,0,0-.33-.64l-61.74-93.9a2.85,2.85,0,0,1-.25-.45c-1.27-2.81-13.75-30.6-14.07-33.13s-5.43-17.79,6.43-23.81,14.42-5.9,16.85-4.56c0,0,5.06,3.11,27.13,24.19,21.5,20.53,59.36,65.14,61.76,67.75l.2.24,2.57,3.4a3.28,3.28,0,0,0,4.14.94l12.68-6.6a3.2,3.2,0,0,0,1.39-1.38c3-5.8,19.25-37.27,17.18-37.42S477.19,136,473.1,129.74a3.29,3.29,0,0,0-2.28-1.45l-45.27-6.42-.18,0L391,115.06a3.78,3.78,0,0,0-.47-.06c-2.26-.11-21.05-1.52-21.51-18.41-.45-16.5,13.22-14.66,15.46-14.25A3.57,3.57,0,0,0,385.15,82.4Z" transform="translate(-23.67 -47.03)" fill="#8bd5d8" stroke="#000" stroke-miterlimit="10" stroke-width="3.78"/><path d="M402.71,83.73s.47,8.35-9.34,6.9-17.37-3-17.37-3-2.47-4,.58-4.89,8.57-.3,8.57-.3l16.28-.46Z" transform="translate(-23.67 -47.03)"/><path d="M351.35,159.41s4.21,3.52,0,8.56S339.68,181,335.58,181.86s-4.62,1.49-5.28-2.48,3.15-9.24,3.53-9.9S351.35,159.41,351.35,159.41Z" transform="translate(-23.67 -47.03)"/><path d="M368.1,114s-8,2.08-13.83,5.83-5.07,8.61-5.07,8.61,1.18,11.57,5.75,19.1,8.26,8.26,8.26,8.26,21.73-8.78,24.72-11.26,5.47-5.36,2.38-9.62S370.26,113.27,368.1,114Z" transform="translate(-23.67 -47.03)"/><path d="M359.74,207.49c.67.51,2.91,2.78,1.12,6.47S348.7,231.74,345,233.12s-3.27,1.46-5.58-1.4-1.24-4.95,1-7.19S359.74,207.49,359.74,207.49Z" transform="translate(-23.67 -47.03)"/><path d="M388.43,234.48s3.35-.87,2.87,2.49-7.57,21.89-11,18.85-2.18-6.42-1-9.38S388.43,234.48,388.43,234.48Z" transform="translate(-23.67 -47.03)"/><line x1="448.48" y1="81.53" x2="458.23" y2="66.76" fill="none" stroke="#000" stroke-linecap="round" stroke-linejoin="round" stroke-width="2.25"/><path d="M496.65,162.85c.83.36,9.88-.16,9.88-.16l7.5-2.85" transform="translate(-23.67 -47.03)" fill="none" stroke="#000" stroke-linecap="round" stroke-linejoin="round" stroke-width="2.25"/><path d="M462.18,208.51l15.73,18.2,11.94,6.36" transform="translate(-23.67 -47.03)" fill="none" stroke="#000" stroke-linecap="round" stroke-linejoin="round" stroke-width="2.25"/><polyline points="447.31 170.97 472.76 170.87 477.45 170.59 505.12 152.12" fill="none" stroke="#000" stroke-linecap="round" stroke-linejoin="round" stroke-width="2.25"/><path d="M456.6,185.68,603.38,292.56a10.75,10.75,0,0,0,14.93-2.24h0a10.75,10.75,0,0,0-2-14.92L472.69,164.11S470.5,173.24,456.6,185.68Z" transform="translate(-23.67 -47.03)" fill="#c4c4c4" stroke="#000" stroke-miterlimit="10" stroke-width="2.25"/><line x1="432.84" y1="155.63" x2="456.72" y2="154.44" fill="none" stroke="#000" stroke-miterlimit="10" stroke-width="2.25"/><path d="M885.67,328.82,940,380.37l19.49,26.29,6.46,9.77a17.53,17.53,0,0,1,.48,7.95l-2.56,4.37c-4.92,5-12.47,6.15-19.28,4.51-6.25-1.51-15.17-8.08-20.81-15-10.45-12.9-9.53-12.65-9.53-12.65l2.2,6.43,4.83,12.77L926,439.29s12.38,26.27,9.93,28.94c-3.85,4.25-13.26,6.65-22.46,3.83s-14.64-12.5-18.92-26.63c-4.17-13.78-9.09-37.3-9.09-37.3l-6.35,2.62,12.28,55a6.71,6.71,0,0,1-5,8c-7,1.65-17.78,2-21.07-9.71-5-17.9-7.94-48.31-7.94-48.31l-44.4-8.38L801.1,332.28l59.14-18Z" transform="translate(-23.67 -47.03)" fill="#23859b" stroke="#000" stroke-miterlimit="10" stroke-width="2.25"/><path d="M995.68,328a6.34,6.34,0,1,0,7.52,6.09l48.93-9.41L1008,352.6s-12.79-10.47-44-4.47l-2.8-14.54c31.16-6,39.15-20.46,39.15-20.46l51.38,9.5L1002.81,332A6.35,6.35,0,0,0,995.68,328Z" transform="translate(-23.67 -47.03)" fill="#c4c4c4" stroke="#000" stroke-linecap="round" stroke-linejoin="round" stroke-width="1.12"/><path d="M974.14,322.48,666,388a10.73,10.73,0,0,0-8.32,12.54h0a10.74,10.74,0,0,0,12.45,8.55l310-55.49Z" transform="translate(-23.67 -47.03)" fill="#c4c4c4" stroke="#000" stroke-miterlimit="10" stroke-width="0.56"/><path d="M982.87,355.27c7-1.35,6.53-9.46,4.66-19.21S983.09,318.6,976.07,320L847.34,344.72c-3.9.75-5.54,9.27-3.66,19s6.56,17.05,10.46,16.3Z" transform="translate(-23.67 -47.03)" fill="#c4c4c4" stroke="#000" stroke-miterlimit="10" stroke-width="0.53"/><path d="M657.64,400.58a10.74,10.74,0,0,0,12.45,8.55l310-55.49" transform="translate(-23.67 -47.03)" fill="#c4c4c4" stroke="#000" stroke-miterlimit="10" stroke-width="0.56"/><path d="M982.87,355.27c7-1.35,6.53-9.46,4.66-19.21S983.09,318.6,976.07,320L847.34,344.72c-3.9.75-5.54,9.27-3.66,19s6.56,17.05,10.46,16.3Z" transform="translate(-23.67 -47.03)" fill="#c4c4c4" stroke="#000" stroke-miterlimit="10" stroke-width="2.25"/><path d="M957.82,315.68l-86.14-42.44a18.59,18.59,0,0,0-6.06-1.79l-12-1.39a16.2,16.2,0,0,0-5.38.27l-89.9,20a33.5,33.5,0,0,0-7.23,2.52l-9.41,4.56a33,33,0,0,0-13.26,11.66h0a32.47,32.47,0,0,0-3.68,7.59l-34,101.48-.08.2c-1.44,3.49-42,101.76-43.73,102.75s-152.64,275.17-157.07,285c-.13.29-4.33,11.3-4.37,11.62-.55,4.23,27.09,1.5,48.79,10.39,22.83,9.35,55.42,65.64,94.9,15.64,36.79-46.6,92.36-200.66,101.7-239.45S746,543.67,772,526c24.86-16.93,65.83-55.5,69.45-58.91a2.67,2.67,0,0,1,.57-.43l96.58-57.45a3.19,3.19,0,0,0,.42-.3c2.37-2,25.75-21.51,27.14-23.64s12.66-13.63,4.63-24.23-10.39-11.61-13.16-11.46c0,0-5.91.58-35,9.89-28.31,9.06-81.86,32.62-85.17,33.93a1.31,1.31,0,0,0-.27.12l-3.8,1.94a3.29,3.29,0,0,1-4.14-1L820.75,383a3.24,3.24,0,0,1-.64-1.86c-.18-6.52-1-41.93.9-41.16s30.6-16.32,37-20.16a3.25,3.25,0,0,1,2.69-.3l43.52,14,.17.05,33.86,8.92a2.41,2.41,0,0,1,.45.16c2.08.89,19.6,7.84,27.4-7.15,7.62-14.65-5.49-19-7.68-19.58A3.47,3.47,0,0,1,957.82,315.68Z" transform="translate(-23.67 -47.03)" fill="#8bd5d8" stroke="#000" stroke-miterlimit="10" stroke-width="3.78"/><path d="M941.44,309.19s-4.07,7.32,5.38,10.3,17,4.85,17,4.85,4-2.55,1.61-4.64-7.57-4-7.57-4l-14.44-7.54Z" transform="translate(-23.67 -47.03)"/><path d="M954.54,399.72s-5.32,1.33-3.78,7.68,4.82,16.87,8.15,19.41,3.5,3.36,5.83.07,1.21-9.69,1.16-10.45S954.54,399.72,954.54,399.72Z" transform="translate(-23.67 -47.03)"/><path d="M959.34,351.55s6.29,5.36,9.9,11.28.78,10,.78,10-6.11,9.9-13.51,14.67-11,3.82-11,3.82-15.7-17.4-17.3-20.94-2.59-7.21,2.07-9.69S957.71,350,959.34,351.55Z" transform="translate(-23.67 -47.03)"/><path d="M926,439.29c-.82.17-3.83,1.23-3.84,5.32s3.16,21.31,5.91,24.18,2.3,2.75,5.64,1.19,3.27-3.91,2.21-6.92S926,439.29,926,439.29Z" transform="translate(-23.67 -47.03)"/><path d="M888.37,451s-2.62-2.25-3.67,1-2.76,23,1.62,21.74,4.76-4.83,5-8S888.37,451,888.37,451Z" transform="translate(-23.67 -47.03)"/><line x1="835.73" y1="272.13" x2="833.41" y2="254.58" fill="none" stroke="#000" stroke-linecap="round" stroke-linejoin="round" stroke-width="2.25"/><path d="M822.37,339.28c-.91,0-8.82-4.47-8.82-4.47l-5.5-5.83" transform="translate(-23.67 -47.03)" fill="none" stroke="#000" stroke-linecap="round" stroke-linejoin="round" stroke-width="2.25"/><path d="M833.41,395.42l-22.11,9.49-27.19,6.8" transform="translate(-23.67 -47.03)" fill="none" stroke="#000" stroke-linecap="round" stroke-linejoin="round" stroke-width="2.25"/><polyline points="797.67 353.08 774.82 341.86 770.73 339.56 753.92 310.85" fill="none" stroke="#000" stroke-linecap="round" stroke-linejoin="round" stroke-width="2.25"/><path d="M848.4,377.32,669.67,409.27a10.74,10.74,0,0,1-12.45-8.55h0a10.73,10.73,0,0,1,8.32-12.54l177.82-37.29S841.34,360.06,848.4,377.32Z" transform="translate(-23.67 -47.03)" fill="#c4c4c4" stroke="#000" stroke-miterlimit="10" stroke-width="2.25"/><line x1="817.39" y1="345.61" x2="796.43" y2="334.09" fill="none" stroke="#000" stroke-miterlimit="10" stroke-width="2.25"/><path d="M196.6,507.19,154,568.75l-13.7,29.73L136,609.36a17.38,17.38,0,0,0,1.16,7.88l3.39,3.75c5.83,3.89,13.46,3.47,19.8.47,5.8-2.75,13.19-11,17.29-19,7.59-14.75,6.74-14.33,6.74-14.33l-.84,6.74-2.11,13.5-1.69,15.18s-6.74,28.25-3.79,30.36c4.64,3.37,14.34,3.79,22.77-.85s11.77-15.23,13.07-29.93c1.27-14.34,1.27-38.38,1.27-38.38l6.74,1.27L219,642.41a6.7,6.7,0,0,0,6.57,6.78c7.22.18,17.82-1.66,18.65-13.82,1.26-18.55-2.11-48.91-2.11-48.91l41.74-17.29-3.79-75.9-61.56-5.48Z" transform="translate(-23.67 -47.03)" fill="#23859b" stroke="#000" stroke-miterlimit="10" stroke-width="2.25"/><path d="M88.75,528.92a6.35,6.35,0,1,1-6.12,7.5l-49.82.79,49,18.27s10.38-12.86,42.11-13.37l-.24-14.8c-31.73.5-42.51-12-42.51-12L32.78,535.1l49.82-.79A6.33,6.33,0,0,1,88.75,528.92Z" transform="translate(-23.67 -47.03)" fill="#c4c4c4" stroke="#000" stroke-linecap="round" stroke-linejoin="round" stroke-width="1.12"/><path d="M108.7,519.08l315.07,1.14a10.75,10.75,0,0,1,10.72,10.57h0a10.76,10.76,0,0,1-10.44,10.92l-314.85,9.1Z" transform="translate(-23.67 -47.03)" fill="#c4c4c4" stroke="#000" stroke-miterlimit="10" stroke-width="0.56"/><path d="M106.87,553c-7.15.12-8.34-7.92-8.5-17.85s.78-18,7.93-18.11l131.07-2.08c4-.07,7.32,7.93,7.47,17.86s-2.93,18-6.9,18.1Z" transform="translate(-23.67 -47.03)" fill="#c4c4c4" stroke="#000" stroke-miterlimit="10" stroke-width="0.53"/><path d="M434.49,530.79a10.76,10.76,0,0,1-10.44,10.92l-314.85,9.1" transform="translate(-23.67 -47.03)" fill="#c4c4c4" stroke="#000" stroke-miterlimit="10" stroke-width="0.56"/><path d="M106.87,553c-7.15.12-8.34-7.92-8.5-17.85s.78-18,7.93-18.11l131.07-2.08c4-.07,7.32,7.93,7.47,17.86s-2.93,18-6.9,18.1Z" transform="translate(-23.67 -47.03)" fill="#c4c4c4" stroke="#000" stroke-miterlimit="10" stroke-width="2.25"/><path d="M123.29,509.09l75.63-59.17a18.64,18.64,0,0,1,5.57-3l11.45-3.81a16.26,16.26,0,0,1,5.32-.83l92.08,1.18a33.06,33.06,0,0,1,7.6,1L331.07,447a33.06,33.06,0,0,1,15.38,8.7h0a33.07,33.07,0,0,1,5.15,6.68l54.09,92.37.11.18c2.13,3.12,62,91,63.83,91.63s119.23,162.27,125.59,171a3,3,0,0,1,.43.83c1.41,4,10.93,33.8-10.28,43.82-22.77,10.75-57.55,30.36-103.73-7s-60.08-74-77.16-110-27.2-56.29-56.29-68.31c-27.8-11.48-75.79-40.86-80-43.46a3.11,3.11,0,0,0-.64-.3l-106.3-36.48a2.49,2.49,0,0,1-.47-.21c-2.73-1.45-29.6-15.79-31.4-17.59s-15.18-10.75-9.49-22.77,7.8-13.49,10.54-13.91c0,0,5.9-.64,36.26,2.53,29.57,3.08,86.81,15.19,90.31,15.79a1.5,1.5,0,0,1,.29.06l4.12,1.12a3.27,3.27,0,0,0,3.85-1.79l6-13a3.26,3.26,0,0,0,.25-1.95c-1.16-6.42-7.58-41.25-9.3-40.1s-33.29-9.72-40.35-12.17a3.25,3.25,0,0,0-2.69.26l-39.74,22.62-.16.08-31.32,15.66a3.26,3.26,0,0,0-.4.24c-1.86,1.3-17.59,11.69-28.28-1.39-10.46-12.78,1.49-19.69,3.51-20.73A4.62,4.62,0,0,0,123.29,509.09Z" transform="translate(-23.67 -47.03)" fill="#8bd5d8" stroke="#000" stroke-miterlimit="10" stroke-width="3.78"/><path d="M138,499.39s5.48,6.32-3.16,11.17-15.6,8.22-15.6,8.22-4.43-1.68-2.53-4.21,6.59-5.48,6.59-5.48l12.59-10.33Z" transform="translate(-23.67 -47.03)"/><path d="M143.68,590.68s5.48.21,5.27,6.74-1.26,17.5-4,20.67-2.74,4-5.7,1.26-3.16-9.23-3.26-10S143.68,590.68,143.68,590.68Z" transform="translate(-23.67 -47.03)"/><path d="M129.13,544.51s-5,6.53-7.37,13.07,1.26,9.91,1.26,9.91,8,8.43,16.23,11.59,11.6,1.48,11.6,1.48,11.81-20.24,12.65-24,1.05-7.59-4-9.06S130.4,542.61,129.13,544.51Z" transform="translate(-23.67 -47.03)"/><path d="M179.73,623.57c.85,0,4,.42,4.85,4.43s1.27,21.5-.84,24.87-1.69,3.17-5.27,2.32-4-3.16-3.58-6.32S179.73,623.57,179.73,623.57Z" transform="translate(-23.67 -47.03)"/><path d="M219,627.36s2.11-2.74,3.79.21,7.41,21.94,2.86,21.62-5.64-3.75-6.57-6.78S219,627.36,219,627.36Z" transform="translate(-23.67 -47.03)"/><line x1="196.67" y1="445.33" x2="195.34" y2="427.68" fill="none" stroke="#000" stroke-linecap="round" stroke-linejoin="round" stroke-width="2.25"/><path d="M260.7,504.48c.88-.22,7.72-6.17,7.72-6.17l4.19-6.84" transform="translate(-23.67 -47.03)" fill="none" stroke="#000" stroke-linecap="round" stroke-linejoin="round" stroke-width="2.25"/><path d="M261.38,561.69,285,566.46l28,1.1" transform="translate(-23.67 -47.03)" fill="none" stroke="#000" stroke-linecap="round" stroke-linejoin="round" stroke-width="2.25"/><polyline points="250.48 516.78 270.55 501.13 274.08 498.04 284.66 466.5" fill="none" stroke="#000" stroke-linecap="round" stroke-linejoin="round" stroke-width="2.25"/><path d="M243,547.05l181.49-5.29a10.75,10.75,0,0,0,10.44-10.92h0a10.75,10.75,0,0,0-10.72-10.57l-181.69-.13S246.38,528.7,243,547.05Z" transform="translate(-23.67 -47.03)" fill="#c4c4c4" stroke="#000" stroke-miterlimit="10" stroke-width="2.25"/><line x1="229.64" y1="513.5" x2="247.8" y2="497.95" fill="none" stroke="#000" stroke-miterlimit="10" stroke-width="2.25"/></g><path d="M32.76,569.38a61.11,61.11,0,0,0-4.82,11.07,2.09,2.09,0,0,0,2,2.61,16.6,16.6,0,0,0,9.86-3c1.52-1,3-2.11,4.37-3.22.62-.48,1.23-1,1.86-1.41.33-.24.66-.48,1-.71s.4-.28.61-.4.12-.14-.38-.1l-1-2.33c-1.37,3.77-3.87,7-6.21,10.23a38.5,38.5,0,0,0-6,10.71,2.08,2.08,0,0,0,3,2.33,9.63,9.63,0,0,0,3.44-3.39c1.38-2.27-2.19-4.35-3.56-2.08a5.44,5.44,0,0,1-2,1.91l3,2.33c1.23-3.82,3.65-7.09,6-10.3A43.81,43.81,0,0,0,50.28,573a2.09,2.09,0,0,0-.94-2.33c-1.75-1.19-3.6-.1-5.07,1s-3,2.33-4.55,3.47c-2.88,2.14-6.08,4.07-9.79,3.84l2,2.61a55.37,55.37,0,0,1,4.4-10.08c1.3-2.32-2.27-4.4-3.56-2.08Z" transform="translate(-23.67 -47.03)" fill="#fff"/><path d="M56,568.43a59.88,59.88,0,0,0-9.48,6.47,2.11,2.11,0,0,0,0,2.92c1.47,1.83,4,1.45,6,1.15q3.75-.57,7.48-1.28l-2.33-3c-2.08,2.74-5.09,4.65-7.78,6.71-2.92,2.23-5.77,4.69-7.32,8.11a2.1,2.1,0,0,0,1.24,3,13.2,13.2,0,0,0,13.94-3.39c1.81-2-1.11-4.87-2.92-2.92a9.17,9.17,0,0,1-9.93,2.33l1.24,3c1.41-3.13,4-5.3,6.73-7.32,3-2.26,6.05-4.46,8.36-7.5a2,2,0,0,0-.16-2.29,2.11,2.11,0,0,0-2.17-.74c-2,.37-3.93.72-5.9,1-.88.14-3.05.77-3.54.16v2.92A54.3,54.3,0,0,1,58.06,572c2.33-1.27.25-4.84-2.08-3.56Z" transform="translate(-23.67 -47.03)" fill="#fff"/><path d="M73.13,570.18A24,24,0,0,0,62,576c-1.07,1-.63,3.21.91,3.45a46.9,46.9,0,0,0,7.29.64c1.13,0,2.26,0,3.39-.11l.66,0a3.48,3.48,0,0,1,.45,0c-.13,0-.09,0,.13,0a.43.43,0,0,1-.2-.11.76.76,0,0,1-.28-.45l0-.19c-.11-.08.11-.17-.11.06l-.31.32c-.38.38-.8.72-1.21,1.06-.78.64-1.59,1.25-2.42,1.83a41.67,41.67,0,0,1-5.67,3.3,2.07,2.07,0,0,0-.74,2.82,2.09,2.09,0,0,0,2.82.74,42,42,0,0,0,6.57-3.93c1.09-.81,2.17-1.65,3.19-2.56a5.06,5.06,0,0,0,2-3.68A3.41,3.41,0,0,0,75.82,576a12.47,12.47,0,0,0-3.71,0,40.73,40.73,0,0,1-8.11-.46l.91,3.45a19.94,19.94,0,0,1,9.32-4.77,2.08,2.08,0,0,0,1.44-2.54,2.1,2.1,0,0,0-2.54-1.44Z" transform="translate(-23.67 -47.03)" fill="#fff"/><path d="M29.7,607.15q-2.71,6.23-5,12.63l4.06.55a23.17,23.17,0,0,1,3.29-12.39l-3.85-1a33.62,33.62,0,0,0,2.62,9.91c1.17,2.54,3.46,4.85,6.47,4.6s5.35-2.76,6.89-5.28a24.41,24.41,0,0,0,3.24-8.94A2.13,2.13,0,0,0,46,604.65a2.08,2.08,0,0,0-2.54,1.44,21.47,21.47,0,0,1-2.19,6.84c-.83,1.55-2.1,3.92-4,4.33-1.49.32-2.45-1.49-3-2.79a29.47,29.47,0,0,1-1.94-7.57,2.15,2.15,0,0,0-1.51-2,2.1,2.1,0,0,0-2.33,1,27.19,27.19,0,0,0-3.86,14.47,2.07,2.07,0,0,0,4,.55q2.05-5.91,4.55-11.65a2.12,2.12,0,0,0-.74-2.82,2.08,2.08,0,0,0-2.83.74Z" transform="translate(-23.67 -47.03)" fill="#fff"/><path d="M51.9,604.08a4.67,4.67,0,0,1,.13.65c0-.32,0,.15,0,.22q0,.62,0,1.23a6,6,0,0,1-.1.8c-.07.45-.15.89-.22,1.34a15,15,0,0,0-.18,4.67,6.12,6.12,0,0,0,6.39,5.47c3.42-.25,5.81-2.76,6.93-5.85a8.1,8.1,0,0,0,.26-5.1,6.7,6.7,0,0,0-3-3.63c-3.38-2-7.27-1-10.72.26a2.07,2.07,0,0,0,1.1,4,26.58,26.58,0,0,1,4-1.21,5.38,5.38,0,0,1,2.85.19,1.61,1.61,0,0,1,.33.12c-.37-.15-.08,0,0,0,.22.13.45.28.67.4s-.31-.32.06,0l.24.24.23.25c-.29-.31,0,0,.08.13s.1.2.16.3c-.2-.33,0-.1,0,0s.07.28.11.42c.16.62,0-.17,0,.2a6.46,6.46,0,0,1,0,1c0-.11.06-.3,0,.1,0,.21-.1.43-.16.64s-.16.49-.25.73,0,.1,0,0c-.06.14-.13.28-.2.42s-.29.48-.43.72c0,.06-.23.32,0,0q-.16.21-.36.42l-.53.5c.28-.25-.22.13-.34.2s-.51.26-.23.13-.12,0-.18.06-.29.08-.43.12c-.37.12.16,0-.07,0h-.81c.09,0,.41.09,0,0l-.35-.08c-.35-.09-.09,0,0,0a2.82,2.82,0,0,1-.38-.21c-.11-.06-.36-.31-.08,0l-.3-.31c-.22-.18.2.38,0-.05a2.75,2.75,0,0,1-.17-.29,2.1,2.1,0,0,1-.15-.3c.17.37,0,.11,0,0-.07-.26-.15-.5-.2-.76,0-.07-.06-.44,0-.16s0-.29,0-.35a10.68,10.68,0,0,1,.07-1.79c0-.31-.06.32,0,0s.07-.45.11-.67.13-.75.19-1.12a12.7,12.7,0,0,0,0-5.21,2.06,2.06,0,0,0-4,1.1Z" transform="translate(-23.67 -47.03)" fill="#fff"/><path d="M33.52,630.76a20.56,20.56,0,0,0-2.39,8.66c0,3.23,3,5.18,6,4.55a9.59,9.59,0,0,0,3.77-2q1.81-1.41,3.56-2.9c2.41-2,4.73-4.18,7-6.41l-3.24-.42c.19.32.21.27.06-.12.07-.11.05,0,0,.23s-.2.47-.3.65c-.45.81-.95,1.61-1.42,2.41l-2.7,4.6-5.61,9.53a2.08,2.08,0,0,0,1.79,3.1A5.28,5.28,0,0,0,43.67,651a2.08,2.08,0,0,0,0-2.92,2.1,2.1,0,0,0-2.92,0c-.23.2-.47.44-.75.43l1.78,3.1,6.37-10.84,3.1-5.25c.93-1.6,1.77-3.68.54-5.37a2.09,2.09,0,0,0-3.24-.42q-2.58,2.58-5.31,5a61.38,61.38,0,0,1-5.37,4.41,4,4,0,0,1-2,.84c-.65-.08-.65-.22-.61-.91a16.94,16.94,0,0,1,1.82-6.24,2.11,2.11,0,0,0-.74-2.82,2.09,2.09,0,0,0-2.83.74Z" transform="translate(-23.67 -47.03)" fill="#fff"/><path d="M57.89,630.36c-1.71,1.46-3.4,2.94-5.06,4.46-1.46,1.34-4,3-4,5.25a2.87,2.87,0,0,0,1.8,2.69,5.65,5.65,0,0,0,3.26,0l6.9-1.18-2-3.45L54,644.38c-1.42,1.83-4.32,4.4-2.91,7,1.27,2.32,4.06,1.52,5.94.64a16.5,16.5,0,0,0,5.3-4c1.76-2-1.15-4.91-2.92-2.92a13.39,13.39,0,0,1-3.27,2.73,8.78,8.78,0,0,1-1.88.9c-.13,0-.31,0-.35.08.56.06.86.49.9,1.3a.58.58,0,0,0,.19-.27c1.22-1.28,2.22-2.88,3.3-4.27l3.44-4.46a2.08,2.08,0,0,0-2-3.45l-5.08.87a11.82,11.82,0,0,0-2.55.43h.07c-.84-.06-.6.48.71,1.63.12-.06.36-.44.47-.54,2.4-2.33,4.91-4.55,7.46-6.71a2.06,2.06,0,1,0-2.92-2.92Z" transform="translate(-23.67 -47.03)" fill="#fff"/><path d="M71.17,628.59a16.27,16.27,0,0,0-9.32,6.91,2.09,2.09,0,0,0,1.23,3,15.72,15.72,0,0,0,5.57.86,17.07,17.07,0,0,0,3-.37,4.74,4.74,0,0,1,2.21-.22.4.4,0,0,1,.3.24,3.17,3.17,0,0,0-.21-.27s-.54.82-.61.91l-1,1.28-3.66,4.86a2.07,2.07,0,0,0,.74,2.82,2.11,2.11,0,0,0,2.82-.74l4.25-5.62a6.37,6.37,0,0,0,1.56-3.21,3.79,3.79,0,0,0-1.24-3.18c-2-1.79-4.38-1.19-6.73-.76a11.71,11.71,0,0,1-5.95-.59l1.23,3a12,12,0,0,1,6.86-5c2.55-.72,1.47-4.7-1.1-4Z" transform="translate(-23.67 -47.03)" fill="#fff"/><path d="M37.86,664.12A119.12,119.12,0,0,0,33,677.37a2.12,2.12,0,0,0,1.45,2.54c1.91.74,3.25-1.09,3.75-2.64.44-1.37.85-2.75,1.28-4.13l2.65-8.54h-4A25.75,25.75,0,0,0,45.06,678a2.07,2.07,0,0,0,3.24-.41,102.38,102.38,0,0,0,4.45-10.92,2.06,2.06,0,1,0-4-1.09,95.79,95.79,0,0,1-4,9.92l3.24-.41a21.94,21.94,0,0,1-5.82-11.61,2.08,2.08,0,0,0-2-1.52,2.12,2.12,0,0,0-2,1.52L36,670.42,35,673.81l-.55,1.77a4.87,4.87,0,0,0-.23.74c0,.32,0-.06.13-.13l1.05-.28h.19L37,678.46a111.16,111.16,0,0,1,4.4-12.26,2.12,2.12,0,0,0-.74-2.82,2.07,2.07,0,0,0-2.82.74Z" transform="translate(-23.67 -47.03)" fill="#fff"/><path d="M61.46,661a28.88,28.88,0,0,0-3.82,8.19,15.24,15.24,0,0,0-.84,4.52,3.51,3.51,0,0,0,3.4,3.59c3.21,0,5.25-3.33,6.22-6a18.15,18.15,0,0,0,.92-3.85,8.74,8.74,0,0,0-.43-5c-1.37-3-6-4-7.86-.93a2.1,2.1,0,0,0,.74,2.83,2.12,2.12,0,0,0,2.83-.75c.08-.13.2-.21-.08.08.14-.14.1,0,0,0l-.1.08c.16-.09.15-.09,0,0,0,0-.19.12,0,0,.38-.2-.15.1-.14,0h.29c.08,0,.28.05,0,0s.09,0,.16,0,.29.17-.07,0l.19.1c.45.25-.17-.15.12.07s0,0,0-.08a2.26,2.26,0,0,1,.16.26s.2.41.12.2.08.33.08.32l.06.29c.06.34,0-.29,0,.06s0,.47,0,.71,0,.49,0,.73c0,.05-.06.48,0,.24s-.06.34-.06.33a18.62,18.62,0,0,1-.69,2.86l-.24.66c.11-.3,0,0,0,.07l-.18.36a9.14,9.14,0,0,1-.77,1.27c-.19.27.18-.2,0,0l-.2.23c-.15.17-.33.31-.49.48s.26-.12,0,0a1.49,1.49,0,0,0-.24.14c-.33.2-.08,0,0,0-.08,0-.51.07-.23.07s0,0-.05,0a.92.92,0,0,1,.44.1c.25.13.28.31.38.52s0-.06,0-.17,0-.18,0-.27c0-.4,0-.09,0,0,0-.15,0-.29.08-.44a27.85,27.85,0,0,1,.8-3.27A24.36,24.36,0,0,1,65,663.09a2.08,2.08,0,0,0-.75-2.82,2.11,2.11,0,0,0-2.82.74Z" transform="translate(-23.67 -47.03)" fill="#fff"/><path d="M30.85,690.21A54.73,54.73,0,0,1,24,706.53l3.57,2.08L37.4,692.3l-3.84-1-1.09,9.39c-.17,1.4-.66,3.11-.06,4.45a3.23,3.23,0,0,0,3.74,1.74,5.1,5.1,0,0,0,3-2.53c.9-1.4,1.78-2.82,2.66-4.23l5.14-8.15-3.78-1.59-3.68,14.92c-.63,2.58,3.35,3.68,4,1.09l3.68-14.91a2.07,2.07,0,0,0-3.77-1.59c-2.7,4.28-5.55,8.49-8.11,12.86-.26.44-.13,0,.24.12l.76,1v-.27a6.79,6.79,0,0,0,.12-1l.41-3.57.89-7.7c.25-2.14-2.87-2.66-3.84-1L24,706.53c-1.37,2.28,2.16,4.33,3.57,2.08a58.75,58.75,0,0,0,7.28-17.3c.63-2.58-3.35-3.68-4-1.1Z" transform="translate(-23.67 -47.03)" fill="#fff"/><path d="M46.21,704.82a68.29,68.29,0,0,1,3.08-6.49c.57-1.05,1.16-2.09,1.78-3.12.16-.27.33-.53.5-.79l.06-.09.14-.16.3-.3c-.15.11-.13.1.07,0-.43.06-.26,0,.07.09l-2-1.52A53.71,53.71,0,0,1,51,705.82a2.07,2.07,0,0,0,4.13,0,58.35,58.35,0,0,0-1-14.51,2.12,2.12,0,0,0-2-1.51c-3.15-.4-4.88,3.54-6.12,5.77a78.78,78.78,0,0,0-3.86,8.15,2.08,2.08,0,0,0,1.44,2.54,2.12,2.12,0,0,0,2.54-1.44Z" transform="translate(-23.67 -47.03)" fill="#fff"/><path d="M46.32,705.1a26.67,26.67,0,0,0,7.46-2.55,2.08,2.08,0,0,0,.74-2.83A2.12,2.12,0,0,0,51.7,699c-.57.29-1.14.56-1.73.81l.49-.21a25.12,25.12,0,0,1-5.23,1.54,2.08,2.08,0,0,0-1.24,1,2.1,2.1,0,0,0-.21,1.59,2.14,2.14,0,0,0,.95,1.23,2.31,2.31,0,0,0,1.59.21Z" transform="translate(-23.67 -47.03)" fill="#fff"/><path d="M59.29,694l-.73,3.12a4.32,4.32,0,0,0,.12,3.33c1.2,2,3.94,1.77,5.47.3A47.22,47.22,0,0,0,68,696l4.22-5.31-3.45-.91c.47,3.17-1.47,6.31-3.1,8.85-1.83,2.83-3.77,5.63-4.61,8.95-.65,2.58,3.33,3.67,4,1.1.86-3.4,3.1-6.15,4.9-9.09,2-3.34,3.39-7,2.81-10.91a2.07,2.07,0,0,0-3.45-.91l-5.86,7.37-1.4,1.77-.87,1c.59-.13,1,.17,1.2.91h0c.16-.13.2-.86.26-1.1l.6-2.57c.6-2.59-3.38-3.69-4-1.1Z" transform="translate(-23.67 -47.03)" fill="#fff"/><path d="M77.18,692.49a19.45,19.45,0,0,1-4,9.59l3.53,1.46A20.36,20.36,0,0,1,78.33,697c.79-1.79,1.84-4.1,3.67-5-.1.05.5-.13.14-.07.07,0,.65,0,.35,0,.06,0,.6.2.35.09,0,0,.57.31.29.18.4.18-.14.09,0,0s-.1.42,0,.05a2.55,2.55,0,0,1-.64.79c-1.9,1.73-4.15,3.18-6.19,4.72a2.09,2.09,0,0,0,1,3.85l5.14.23,1.24.06c-.18,0-.14,0,.11,0a.62.62,0,0,1-.19-.14c.19-1.38,0-1.79-.42-1.23-.14.14-.29.27-.44.4s-.52.46-.8.68a22.08,22.08,0,0,1-7.61,3.93c-2.54.75-1.46,4.73,1.1,4a26.76,26.76,0,0,0,6-2.55,20.44,20.44,0,0,0,5-3.83,3.14,3.14,0,0,0-1.95-5.32,27.27,27.27,0,0,0-3.38-.22l-3.77-.17,1,3.85,4.4-3.33c1.34-1,2.94-2,3.82-3.47,1.87-3.19-.8-6.72-4.28-6.68s-5.68,3.33-7.08,6.07a25.84,25.84,0,0,0-2.75,9.76c-.14,1.71,2.41,2.83,3.52,1.46a23.19,23.19,0,0,0,5.1-11.41,2.14,2.14,0,0,0-1.44-2.54,2.07,2.07,0,0,0-2.54,1.44Z" transform="translate(-23.67 -47.03)" fill="#fff"/><path d="M96.65,690.85q-2.19,1.64-4.32,3.34a52.76,52.76,0,0,0-4.13,3.48,2.38,2.38,0,0,0-.36,3A3.13,3.13,0,0,0,90.4,702a13.77,13.77,0,0,0,2.55-.31l1.22-.18a6.34,6.34,0,0,0,1.52-.22l.32,0-.55-.5a.84.84,0,0,1-.55-1.08c0,.1-.17.29,0,.07-.08.1-.14.26-.21.37.15-.24-.37.41-.42.46q-.51.62-1,1.26a13.81,13.81,0,0,0-2.18,4.27c-1.25,4.39,4.92,4.43,7.65,4a14,14,0,0,0,8.61-4.7,2.12,2.12,0,0,0,0-2.92,2.09,2.09,0,0,0-2.92,0,10.05,10.05,0,0,1-4.78,3.2,9.21,9.21,0,0,1-2.78.47,10.32,10.32,0,0,1-1.57-.07l-.41-.07-.47-.11c-.44-.14-.31,0,.4.35l.28,1c0-.15,0-.25,0-.12.09-.18.13-.41.21-.6s.23-.49.35-.73a12.21,12.21,0,0,1,1.21-2c.91-1.21,2.17-2.31,2.14-4a2.82,2.82,0,0,0-1.3-2.41,4.17,4.17,0,0,0-3-.24l-2.6.38-1.22.18c-.43.06-.19,0-.33,0s-.13,0,0,0c.59,0,.93.5,1,1.36l-.6,1.46c2.49-2.19,5.06-4.29,7.72-6.27a2.13,2.13,0,0,0,.74-2.83,2.07,2.07,0,0,0-2.82-.74Z" transform="translate(-23.67 -47.03)" fill="#fff"/><path d="M1030.25,368.76a10,10,0,0,0-.25,6.87c.8,2.39,2.51,4.84,5.35,4.5,2.5-.3,4.65-2.47,6.61-3.9l6.74-4.94-3.32-1.35q.13-.4-.06.21c-.07.19-.15.37-.23.56-.2.49-.4,1-.61,1.47l-1,2.51-2.34,5.65-4.61,11.1a2.28,2.28,0,0,0,1.58,2.79,2.32,2.32,0,0,0,2.79-1.58l5-11.94,2.44-5.86c.77-1.86,2.14-4.05,1.49-6.12-.39-1.27-2.09-2.25-3.32-1.35-3.35,2.44-6.68,4.9-10,7.34a8.52,8.52,0,0,1-1.13.75c-.15.07-.68.17-.29.21q.29.15.12.09a5.5,5.5,0,0,1-.36-.57,4.25,4.25,0,0,1-.36-.78,6.07,6.07,0,0,1,.24-4.45,2.27,2.27,0,0,0-1.58-2.79,2.32,2.32,0,0,0-2.78,1.58Z" transform="translate(-23.67 -47.03)" fill="#fff"/><path d="M1057.36,368.47a14,14,0,0,0-7.72,8.75,2.3,2.3,0,0,0,1.58,2.78c4.15,1.39,8.34-.4,12-2.22l-2.29-3.91a35.07,35.07,0,0,0-6.45,5.07,28.79,28.79,0,0,0-4.93,6.27,4.85,4.85,0,0,0-.43,4.49,4.12,4.12,0,0,0,3.68,2.14,13.09,13.09,0,0,0,7.93-2.63,2.33,2.33,0,0,0,.82-3.1,2.28,2.28,0,0,0-3.1-.81,9.81,9.81,0,0,1-4.93,2s-.71,0-.72,0,.27.3.22.19.29.62.22.6a2.93,2.93,0,0,1,.15-.5,14.39,14.39,0,0,1,1.45-2.17,29.57,29.57,0,0,1,8.38-7.65c2.51-1.54.31-5.19-2.29-3.91s-5.6,2.74-8.54,1.76l1.58,2.79a9.76,9.76,0,0,1,5.63-6,2.28,2.28,0,0,0,.82-3.1,2.31,2.31,0,0,0-3.1-.81Z" transform="translate(-23.67 -47.03)" fill="#fff"/><path d="M1076.41,367a24.42,24.42,0,0,0-7,5.44c-1,1.17-2.09,2.54-2,4.2.1,2.11,1.78,3.14,3.7,3.33a39.76,39.76,0,0,0,4.88.12c1.45-.05,2.91-.29,4.36-.28.11,0,.78.07.43,0a3.2,3.2,0,0,1,.42.1c-.19-.06-.07-.12-.06,0l.09.05-.15-.11a3.15,3.15,0,0,1-.16-.32c-.22-.13.31-.35-.22.1a29.84,29.84,0,0,1-2.81,2.32,19.55,19.55,0,0,1-8.41,3.16,2.34,2.34,0,0,0-2.27,2.27,2.29,2.29,0,0,0,2.27,2.27,25,25,0,0,0,8.88-2.71,25.52,25.52,0,0,0,3.86-2.59,8.33,8.33,0,0,0,3-3.73,4,4,0,0,0-1.64-4.52,6.45,6.45,0,0,0-3.83-.78c-1.62.1-3.21.26-4.83.27-.82,0-1.64,0-2.46-.05a5.48,5.48,0,0,0-1.23-.07c.06-.11.76,1.24.66,1.22a7.12,7.12,0,0,1,.92-1.26,23.8,23.8,0,0,1,1.75-1.73,19.91,19.91,0,0,1,4.1-2.76,2.27,2.27,0,0,0-2.29-3.92Z" transform="translate(-23.67 -47.03)" fill="#fff"/><path d="M1033.51,405a76.13,76.13,0,0,0-10.72,15.14c-1,1.83,1.16,4.54,3.1,3.1,6.22-4.59,8.86-11.89,13.87-17.52l-3.79-1a44.14,44.14,0,0,0,2.66,10.29,48.93,48.93,0,0,0,2.17,4.78c.84,1.59,2.18,3,4.15,2.39,1.73-.49,2.53-2.13,3.15-3.66s1.39-3.15,2.2-4.67a52.77,52.77,0,0,1,5.8-8.71,2.33,2.33,0,0,0,0-3.2,2.29,2.29,0,0,0-3.21,0,58.72,58.72,0,0,0-5.64,8.08q-1.21,2.1-2.24,4.32c-.32.71-.64,1.43-.94,2.16-.14.33-.25.69-.41,1-.41.83-.23-.09.57.23l1,.58c-.69-.58-1.19-2.12-1.59-3a37.26,37.26,0,0,1-1.47-3.8,44.6,44.6,0,0,1-1.83-8c-.23-1.68-2.74-2.17-3.78-1a70,70,0,0,0-6.37,9c-1.84,2.85-3.82,5.77-6.58,7.82l3.1,3.1a70.89,70.89,0,0,1,10-14.23c2-2.16-1.24-5.37-3.21-3.2Z" transform="translate(-23.67 -47.03)" fill="#fff"/><path d="M1059.56,407.05a30.94,30.94,0,0,0-2.75,5.22,13.87,13.87,0,0,0-1.34,4.87,4.6,4.6,0,0,0,3,4.57,7.72,7.72,0,0,0,5.1-.31,13.64,13.64,0,0,0,7.14-5.9c1.68-2.84,2.53-6.77,1-9.85-1.67-3.35-5.87-4.07-9.24-3.7a2.33,2.33,0,0,0-2.27,2.26,2.29,2.29,0,0,0,2.27,2.27,13.79,13.79,0,0,1,1.57-.1l.75,0,.43,0c.66.05-.24-.06.12,0a5.62,5.62,0,0,1,.71.16c.11,0,.83.3.41.11.24.11.46.25.69.38,0,0,.28.21.09.05s.16.18.2.22.25.32,0,0l.22.35c.15.25.09.14.18.5a5.82,5.82,0,0,1,.08,1.64c0,.06-.06.51,0,.24s0,.1,0,.12c0,.29-.11.57-.18.85s-.14.49-.23.72a2.86,2.86,0,0,1-.15.41c-.08.22.12-.2-.07.15a13.31,13.31,0,0,1-.81,1.42,5.28,5.28,0,0,1-.87,1.06,6.88,6.88,0,0,1-.54.54c-.06.06-.66.56-.37.34a11.24,11.24,0,0,1-1.46.93l-.39.2s-.34.16-.12.06-.18.07-.24.09l-.4.15-.74.2c-.14,0-.28.06-.42.09-.4.09.08,0-.17,0a3.06,3.06,0,0,1-.8,0c.38.06,0,0-.05,0a.38.38,0,0,1,.24.15c-.12-.14-.18-.07-.09-.07l0,.07c-.1-.21-.12-.24,0-.09l0,.08c0-.23-.06-.26,0-.09s0-.33,0-.33,0-.45,0-.05a3.67,3.67,0,0,1,.09-.43,7.56,7.56,0,0,1,.27-1c.21-.64.5-1.42.72-1.94a29.06,29.06,0,0,1,2.41-4.42,2.27,2.27,0,1,0-3.91-2.29Z" transform="translate(-23.67 -47.03)" fill="#fff"/><path d="M1035.78,432.7a25.58,25.58,0,0,0-4.86,9.65c-.47,2,.16,4.09,2.33,4.66,1.71.44,3.49-.37,5-1.1,5.4-2.62,9.06-7.8,14.59-10.19l-3.41-2a28.54,28.54,0,0,1-3,8.91c-1.53,3.2-3.12,6.36-4.68,9.54a2.32,2.32,0,0,0,.81,3.1,2.29,2.29,0,0,0,3.1-.81c1.67-3.39,3.39-6.76,5-10.18a33.43,33.43,0,0,0,3.28-10.56,2.22,2.22,0,0,0-1.12-2,2.39,2.39,0,0,0-2.29,0c-4.56,2-7.85,5.8-11.87,8.58a18.76,18.76,0,0,1-3.1,1.79c-.22.09-1.16.24-1.3.44.23-.31.82,1.17,1,1.16a4.49,4.49,0,0,1,.17-.71,21.26,21.26,0,0,1,3.57-7.17,2.34,2.34,0,0,0,0-3.2,2.28,2.28,0,0,0-3.21,0Z" transform="translate(-23.67 -47.03)" fill="#fff"/><path d="M1062.23,431.36a23.16,23.16,0,0,0-4.61,5.63c-1.16,2-3,5.16-1.72,7.45,1.15,2.07,4.42,2.49,6.55,2.27a10.39,10.39,0,0,0,6.4-3.06,2.28,2.28,0,0,0-2.2-3.79,15.55,15.55,0,0,0-10.6,9.78c-1,2.89.22,5.91,3.34,6.63s5.52-1.37,7.06-3.76-2.33-4.73-3.91-2.28a4.4,4.4,0,0,1-1.46,1.51.9.9,0,0,1-.7.13c-.58-.19.12.12-.3-.23.08.33.11.36.08.1s.13-.5.21-.75a8.86,8.86,0,0,1,.87-1.81,11,11,0,0,1,6.61-4.95l-2.2-3.78a5.75,5.75,0,0,1-3.5,1.76,5.51,5.51,0,0,1-1.52,0c-.13,0-.77-.29-.88-.23-.3,0-.22.25.23.75a.71.71,0,0,0,.13-.35c.35-.57.54-1.39.84-2a20.72,20.72,0,0,1,1.22-2.09,18.81,18.81,0,0,1,3.27-3.69c2.18-1.94-1-5.14-3.21-3.2Z" transform="translate(-23.67 -47.03)" fill="#fff"/><path d="M1080.78,430.69a26.05,26.05,0,0,0-6.31,4.63c-1.83,1.82-4.86,5.05-2.25,7.53,1.11,1.07,3,1.11,4.41,1.27a28.81,28.81,0,0,0,4.55.15c.6,0,1.19-.09,1.79-.11a5.61,5.61,0,0,1,.71,0c.27,0,0,0,0,0l.43.11c-.17.29-.73-1.15-.46-1a12.71,12.71,0,0,1-1.14,1.06,39.43,39.43,0,0,1-7.76,4.72,2.28,2.28,0,0,0-.81,3.1,2.32,2.32,0,0,0,3.1.82,42.68,42.68,0,0,0,7-4.18c2.18-1.61,5.38-4.06,3.55-7.14-1.51-2.53-4.68-1.93-7.12-1.88a26.89,26.89,0,0,1-4.11-.2c-.35,0-.7-.1-1-.17a2.33,2.33,0,0,0-.36-.08c-.86,0,1.29,1.33.76,1.42a9.23,9.23,0,0,0,.81-1,22.28,22.28,0,0,1,6.52-5.14,2.29,2.29,0,0,0,.82-3.1,2.31,2.31,0,0,0-3.1-.81Z" transform="translate(-23.67 -47.03)" fill="#fff"/><path d="M1037.47,470.49l-5.31,13.31,4.37,1.21,2.85-8.51c.44-1.28.85-2.58,1.33-3.84a15.42,15.42,0,0,1,.71-1.61c.13-.25.26-.49.41-.73s.17-.29.26-.42c.42-.54.17-.46-.73.24l-1.14-.31.2.12-.82-.81a1.7,1.7,0,0,0,0-.22c0,.21,0,.42,0,.63l.06,1c0,.74.1,1.48.17,2.23a33.38,33.38,0,0,0,.69,4.35,17.86,17.86,0,0,0,1.65,4.31c.81,1.46,1.91,3.08,3.82,2.81s2.7-2.08,3.59-3.46,1.69-2.68,2.46-4.07a72.6,72.6,0,0,0,4.16-9,2.29,2.29,0,0,0-1.58-2.79,2.32,2.32,0,0,0-2.79,1.59,63,63,0,0,1-3.28,7.14c-.62,1.14-1.26,2.26-1.94,3.36-.37.6-.74,1.19-1.13,1.78l-.59.88-.2.29c-.44.55-.19.47.76-.22l1.14.31.16.15c-.12-.17-.24-.34-.35-.52s-.32-.53-.46-.81a10.69,10.69,0,0,1-.71-1.75,20.53,20.53,0,0,1-.79-3.72c-.19-1.48-.22-3-.34-4.45-.17-1.94-1.5-3.84-3.73-3.22-1.62.46-2.52,2.25-3.19,3.66a42.73,42.73,0,0,0-1.71,4.49q-1.66,5-3.34,9.95a2.29,2.29,0,0,0,1.58,2.79,2.33,2.33,0,0,0,2.79-1.58l5.31-13.31a2.29,2.29,0,0,0-1.58-2.79,2.32,2.32,0,0,0-2.79,1.58Z" transform="translate(-23.67 -47.03)" fill="#fff"/><path d="M1059.53,467a33,33,0,0,0-4.6,11.15c-.43,2.08-.64,4.41,1.09,6,1.53,1.42,3.8,1.47,5.72,1a10.76,10.76,0,0,0,7.38-7,10.26,10.26,0,0,0-2.4-10.08c-2.94-3.21-8-4.47-11.63-1.6a2.27,2.27,0,0,0,0,3.2,2.31,2.31,0,0,0,3.2,0c-.28.23.6-.26.21-.11.08,0,.9-.22.54-.17a5,5,0,0,1,1,0s.45.05.11,0a5.43,5.43,0,0,1,.58.13,3.33,3.33,0,0,1,1.31.53c.22.13.44.27.65.42-.27-.19,0,0,.07.05l.5.45a6.62,6.62,0,0,1,1.53,2.38,6.46,6.46,0,0,1,.24.86c0,.14.06.29.08.44,0-.39,0,0,0,.06,0,.3,0,.59,0,.89,0,.07,0,.45,0,.07a3.45,3.45,0,0,1-.11.54,8.42,8.42,0,0,1-.24.86l-.1.24c.1-.22-.1.19-.12.24-.12.23-.25.45-.39.67s-.17.25-.25.37c.22-.3-.2.23-.21.24-.2.22-.41.44-.63.64l-.33.29c.07-.06.29-.2-.08.05a7.39,7.39,0,0,1-.66.42l-.39.21c-.11.06-.47.2-.17.09a8.34,8.34,0,0,1-.85.26c-.1,0-.92.13-.49.11a5.06,5.06,0,0,1-.87,0c.19,0,.22.1,0,0s.07.1-.13-.07.44.41.15.16,0,.14,0-.07a3.84,3.84,0,0,1,0-.48c0-.05,0-.53,0-.29s0-.17,0-.17c.1-.46.18-.92.29-1.38a29.24,29.24,0,0,1,4-9.24,2.27,2.27,0,1,0-3.91-2.29Z" transform="translate(-23.67 -47.03)" fill="#fff"/><path d="M1034.62,500a25.18,25.18,0,0,0-1.12,5.15c-.16,1.45-.33,3,.47,4.35,1.84,3,5.87,1,8.2-.14,5.19-2.58,9.39-6.72,14.49-9.46l-3.1-.81c0-.79,0-.92-.28-.4l-.53.84-1.06,1.66-1.85,2.92-4,6.24-8,12.49,4.22,1.14a.82.82,0,0,1,.23-.82,2.27,2.27,0,0,0-.81-3.1,2.32,2.32,0,0,0-3.1.81,4.54,4.54,0,0,0-.85,3.11,2.29,2.29,0,0,0,4.22,1.15l9-14.16,4.38-6.87c1.32-2.08,3.77-4.74,2.26-7.3a2.31,2.31,0,0,0-3.1-.81,89.8,89.8,0,0,0-9,6.08,46.08,46.08,0,0,1-4.39,2.82,23.92,23.92,0,0,1-2.33,1.14c-.52.21-1.26.66-1.76.45l1,.58c.05.3.07.39.05.27s0-.52,0-.78c0-.57.08-1.15.16-1.72a20.63,20.63,0,0,1,.91-3.62c.92-2.77-3.45-4-4.37-1.21Z" transform="translate(-23.67 -47.03)" fill="#fff"/><path d="M1066.9,497.74a36.32,36.32,0,0,0-8.1,3.81c-2.51,1.59-5.24,3.52-6.46,6.33a3.16,3.16,0,0,0,1.79,4.5c1.44.43,3.26,0,4.69-.25a26.05,26.05,0,0,0,8.73-3.3l-2.29-3.91a62.85,62.85,0,0,0-8.32,5.93c-1.18,1-2.33,2-3.43,3.12s-2.66,2.42-3.14,4.06a3.38,3.38,0,0,0,2.41,4.35c1.53.39,3.42-.24,4.9-.67a27.27,27.27,0,0,0,8.68-4.36,2.33,2.33,0,0,0,.81-3.1,2.27,2.27,0,0,0-3.1-.81,24.11,24.11,0,0,1-5.31,3.1,22.72,22.72,0,0,1-2.78.94c-.49.13-1,.25-1.49.36a2,2,0,0,0-.66.13s.11,0,.05,0l.82.81c.44.59-.23.52.15.37.16-.07.36-.4.48-.53.54-.56,1.08-1.11,1.64-1.65q1.6-1.56,3.31-3a56.55,56.55,0,0,1,7.27-5.11c2.5-1.5.23-5.41-2.29-3.91a22.07,22.07,0,0,1-5,2.22,22.71,22.71,0,0,1-2.8.65c-.39.07-.78.12-1.18.16l-.71.05c-.51,0-.38.08.38.3l.59,1c.12.32-.23.53.15,0,.15-.19.26-.41.41-.6a9.24,9.24,0,0,1,1.16-1.18,22.72,22.72,0,0,1,3-2.16,32.1,32.1,0,0,1,6.88-3.26,2.32,2.32,0,0,0,1.58-2.79,2.29,2.29,0,0,0-2.79-1.58Z" transform="translate(-23.67 -47.03)" fill="#fff"/><path d="M1079.08,498a20.53,20.53,0,0,0-5.77,4.54c-1,1.14-2.13,2.47-1.69,4.1s1.87,2.36,3.23,2.89c2.07.81,4.36.61,6.53.73.23,0,.45,0,.68.05.06,0,.52.07.26,0s.14,0,.15,0l.65.15.42.14c.14,0,.28.14.08,0,.55.29.31.32.17-.59-.2-1.37,0-.76-.26-.53,0,0,.17-.21,0,0a12.37,12.37,0,0,1-1.24,1.27l-.27.22c-.3.25.21-.14-.1.09s-.52.36-.79.53-.54.32-.83.46c-.09,0-.67.33-.42.22a11.23,11.23,0,0,1-1.81.58,5.88,5.88,0,0,1-1.5.21,2.33,2.33,0,0,0-2.27,2.27,2.29,2.29,0,0,0,2.27,2.27,14.65,14.65,0,0,0,7-2.16c2.07-1.31,5.52-4,4.33-6.82-1.08-2.52-4.53-2.93-6.91-3-1.12,0-2.23,0-3.34-.12-.42,0,.14,0-.27,0-.25-.06-.5-.11-.75-.19l-.3-.1c.33.12,0,0-.06,0l-.29-.15-.27-.18.1.08.08.8c-.09.79,0,1,.13.7.08,0,0,0,.15-.22s.44-.53.67-.78a16.33,16.33,0,0,1,4.59-3.55,2.26,2.26,0,1,0-2.28-3.91Z" transform="translate(-23.67 -47.03)" fill="#fff"/><path d="M246.31,88.43a10.08,10.08,0,0,0-.24,6.87c.8,2.39,2.5,4.84,5.34,4.5,2.51-.3,4.66-2.47,6.61-3.9L264.77,91l-3.33-1.35q.15-.4-.06.21c-.07.19-.14.37-.22.56-.2.49-.41,1-.61,1.46l-1,2.52L257.16,100l-4.6,11.1a2.28,2.28,0,0,0,1.58,2.79,2.33,2.33,0,0,0,2.79-1.58l4.95-11.94,2.43-5.86c.77-1.86,2.15-4,1.5-6.12-.4-1.27-2.09-2.26-3.33-1.35-3.34,2.44-6.67,4.9-10,7.33a6.84,6.84,0,0,1-1.12.75c-.15.08-.69.18-.3.22q.28.15.12.09a5.5,5.5,0,0,1-.36-.57,5,5,0,0,1-.35-.78,6.09,6.09,0,0,1,.24-4.46,2.26,2.26,0,0,0-1.58-2.78,2.32,2.32,0,0,0-2.79,1.58Z" transform="translate(-23.67 -47.03)" fill="#fff"/><path d="M273.42,88.13a14,14,0,0,0-7.71,8.75,2.31,2.31,0,0,0,1.58,2.79c4.15,1.39,8.33-.4,12-2.22L277,93.53a35.21,35.21,0,0,0-6.45,5.08,28.49,28.49,0,0,0-4.93,6.27,4.82,4.82,0,0,0-.43,4.49,4.12,4.12,0,0,0,3.68,2.14,13.2,13.2,0,0,0,7.93-2.63,2.32,2.32,0,0,0,.81-3.1,2.28,2.28,0,0,0-3.1-.81,9.78,9.78,0,0,1-4.92,2c-.05,0-.71,0-.72,0s.26.3.21.19.3.62.23.6a2.47,2.47,0,0,1,.14-.5,15.19,15.19,0,0,1,1.45-2.17,29.74,29.74,0,0,1,8.39-7.65c2.5-1.55.31-5.19-2.29-3.92s-5.61,2.75-8.55,1.77l1.59,2.79a9.73,9.73,0,0,1,5.63-6,2.28,2.28,0,0,0,.81-3.1,2.32,2.32,0,0,0-3.1-.82Z" transform="translate(-23.67 -47.03)" fill="#fff"/><path d="M292.48,86.71a24.28,24.28,0,0,0-7,5.44c-1,1.17-2.1,2.54-2,4.19.1,2.12,1.79,3.14,3.71,3.34a39.72,39.72,0,0,0,4.88.12c1.45,0,2.9-.29,4.35-.28.12,0,.79.07.43,0a3,3,0,0,1,.43.1c-.19-.06-.08-.12-.06,0l.09.05-.15-.11s-.17-.32-.17-.32c-.21-.13.31-.36-.21.1a28.74,28.74,0,0,1-2.82,2.32,19.55,19.55,0,0,1-8.4,3.16,2.34,2.34,0,0,0-2.27,2.27,2.27,2.27,0,0,0,2.27,2.26A23.55,23.55,0,0,0,298.3,104a8.35,8.35,0,0,0,3-3.73,4,4,0,0,0-1.64-4.52,6.47,6.47,0,0,0-3.84-.78c-1.61.1-3.21.26-4.83.27-.82,0-1.64,0-2.46,0a5.42,5.42,0,0,0-1.23-.07c.07-.11.76,1.24.67,1.22a6.63,6.63,0,0,1,.92-1.26,22,22,0,0,1,1.75-1.73,20.12,20.12,0,0,1,4.09-2.76,2.27,2.27,0,0,0-2.28-3.92Z" transform="translate(-23.67 -47.03)" fill="#fff"/><path d="M249.58,124.64a76.49,76.49,0,0,0-10.72,15.15c-1,1.83,1.16,4.54,3.1,3.1,6.22-4.6,8.85-11.89,13.87-17.52l-3.79-1a44.14,44.14,0,0,0,2.66,10.29,46.67,46.67,0,0,0,2.17,4.78c.83,1.59,2.18,2.95,4.14,2.39,1.74-.49,2.53-2.13,3.16-3.66a50.92,50.92,0,0,1,2.2-4.67,52.15,52.15,0,0,1,5.8-8.71,2.34,2.34,0,0,0,0-3.2,2.29,2.29,0,0,0-3.21,0,60.2,60.2,0,0,0-5.65,8.07q-1.21,2.11-2.23,4.33c-.33.71-.64,1.43-.94,2.16-.14.33-.26.68-.42,1-.41.83-.22-.09.58.23l1,.58c-.7-.58-1.19-2.12-1.6-3a37.2,37.2,0,0,1-1.46-3.8,43.76,43.76,0,0,1-1.83-8c-.23-1.69-2.75-2.17-3.79-1a71.51,71.51,0,0,0-6.36,9c-1.84,2.86-3.82,5.78-6.59,7.83l3.1,3.1a71.7,71.7,0,0,1,10-14.23c2-2.16-1.24-5.37-3.2-3.21Z" transform="translate(-23.67 -47.03)" fill="#fff"/><path d="M275.63,126.72a30.94,30.94,0,0,0-2.75,5.22,13.66,13.66,0,0,0-1.34,4.87,4.59,4.59,0,0,0,3,4.57,7.75,7.75,0,0,0,5.09-.31,13.67,13.67,0,0,0,7.15-5.9c1.68-2.84,2.52-6.77,1-9.85-1.66-3.35-5.86-4.07-9.23-3.7a2.33,2.33,0,0,0-2.27,2.26,2.29,2.29,0,0,0,2.27,2.27,13.64,13.64,0,0,1,1.57-.1l.75,0,.42,0c.66,0-.24-.06.13,0a5.62,5.62,0,0,1,.71.16c.11,0,.83.3.41.11.24.11.46.25.69.38,0,0,.28.21.08,0s.17.18.21.21.25.33,0,0c.08.11.15.23.22.35a1.12,1.12,0,0,1,.18.5,5.52,5.52,0,0,1,.07,1.64c0,.06,0,.51,0,.24s0,.1,0,.12a8,8,0,0,1-.19.85c-.06.24-.14.48-.22.72l-.15.41c-.09.22.11-.2-.07.15s-.51,1-.81,1.42a5.65,5.65,0,0,1-.87,1.06l-.54.54c-.07.06-.66.56-.38.34a10,10,0,0,1-1.46.93l-.38.2-.13.06-.23.09-.41.14c-.24.08-.48.15-.73.21l-.42.09c-.4.09.07,0-.18,0a3.48,3.48,0,0,1-.79,0c.38.06,0,0,0,0a.54.54,0,0,1,.24.16c-.12-.14-.18-.07-.1-.07l.06.07c-.11-.21-.12-.24-.05-.09l0,.08c-.05-.23-.06-.26,0-.1s0-.32,0-.32,0-.45,0-.05c0-.14.05-.29.08-.43a8.25,8.25,0,0,1,.28-1c.21-.63.49-1.41.72-1.94a29.44,29.44,0,0,1,2.41-4.41,2.27,2.27,0,0,0-3.91-2.29Z" transform="translate(-23.67 -47.03)" fill="#fff"/><path d="M251.85,152.37A25.61,25.61,0,0,0,247,162c-.47,2,.15,4.1,2.33,4.67,1.71.44,3.49-.37,5-1.1,5.4-2.62,9.05-7.8,14.59-10.19l-3.41-1.95a28.54,28.54,0,0,1-3,8.91c-1.53,3.2-3.12,6.36-4.68,9.54a2.32,2.32,0,0,0,.81,3.1,2.29,2.29,0,0,0,3.1-.82c1.67-3.38,3.38-6.75,5-10.18A33.81,33.81,0,0,0,270,153.44a2.24,2.24,0,0,0-1.12-2,2.39,2.39,0,0,0-2.29,0c-4.57,2-7.85,5.79-11.87,8.58a19.5,19.5,0,0,1-3.1,1.79c-.22.09-1.16.24-1.3.44.23-.32.82,1.17,1,1.16a5.21,5.21,0,0,1,.18-.72,21.28,21.28,0,0,1,3.56-7.16,2.33,2.33,0,0,0,0-3.2,2.27,2.27,0,0,0-3.2,0Z" transform="translate(-23.67 -47.03)" fill="#fff"/><path d="M278.3,151a22.93,22.93,0,0,0-4.61,5.63c-1.16,2-3,5.16-1.73,7.45,1.16,2.07,4.42,2.49,6.55,2.26a10.35,10.35,0,0,0,6.41-3.05,2.29,2.29,0,0,0-2.21-3.79,15.56,15.56,0,0,0-10.59,9.78c-1,2.89.22,5.91,3.34,6.62s5.51-1.36,7.06-3.75-2.34-4.73-3.91-2.29a4.34,4.34,0,0,1-1.46,1.52,1,1,0,0,1-.71.13c-.57-.19.13.12-.29-.23.08.33.1.36.08.1a5.26,5.26,0,0,1,.21-.75,9.38,9.38,0,0,1,.86-1.81,10.93,10.93,0,0,1,6.62-4.95l-2.21-3.78a5.73,5.73,0,0,1-3.5,1.76,5.53,5.53,0,0,1-1.52,0c-.12,0-.76-.29-.88-.23-.29,0-.22.25.24.75a.7.7,0,0,0,.12-.35c.36-.57.54-1.39.85-2a20.64,20.64,0,0,1,1.21-2.09,19.48,19.48,0,0,1,3.27-3.69c2.19-1.94-1-5.14-3.2-3.2Z" transform="translate(-23.67 -47.03)" fill="#fff"/><path d="M296.84,150.36a26,26,0,0,0-6.3,4.63c-1.84,1.82-4.86,5-2.26,7.53,1.12,1.07,3,1.11,4.42,1.27a28.81,28.81,0,0,0,4.55.15c.59,0,1.19-.1,1.79-.11a5.45,5.45,0,0,1,.7,0c.28,0,0,0,0,0l.42.11c-.17.29-.72-1.15-.45-1a11.73,11.73,0,0,1-1.15,1.06,39.84,39.84,0,0,1-7.75,4.72,2.29,2.29,0,0,0-.82,3.1,2.32,2.32,0,0,0,3.1.82,42.77,42.77,0,0,0,7.05-4.18c2.17-1.61,5.38-4.06,3.54-7.14-1.5-2.53-4.67-1.93-7.11-1.88a27,27,0,0,1-4.12-.2c-.34,0-.69-.1-1-.17A2.33,2.33,0,0,0,291,159c-.87,0,1.29,1.33.76,1.42a9.32,9.32,0,0,0,.8-1,22.46,22.46,0,0,1,6.53-5.14,2.27,2.27,0,1,0-2.29-3.91Z" transform="translate(-23.67 -47.03)" fill="#fff"/><path d="M253.54,190.16l-5.31,13.31,4.37,1.21,2.85-8.51c.43-1.28.84-2.58,1.33-3.85a14.18,14.18,0,0,1,.71-1.6c.13-.25.26-.49.4-.73l.27-.43c.41-.53.17-.45-.73.25l-1.15-.31.2.12-.81-.81a1.62,1.62,0,0,0,0-.22c0,.21,0,.42,0,.63s0,.64.05.95c.05.75.11,1.49.18,2.24a31.77,31.77,0,0,0,.69,4.35,17.46,17.46,0,0,0,1.65,4.31c.81,1.46,1.9,3.08,3.81,2.81s2.71-2.08,3.6-3.46,1.68-2.68,2.45-4.07a71.23,71.23,0,0,0,4.17-9,2.29,2.29,0,0,0-1.59-2.79,2.32,2.32,0,0,0-2.78,1.58,64.19,64.19,0,0,1-3.29,7.15c-.61,1.14-1.25,2.26-1.93,3.36-.37.6-.75,1.19-1.13,1.78l-.59.88-.2.29c-.45.55-.19.47.76-.22l1.14.31.15.15c-.12-.17-.23-.34-.34-.52a8,8,0,0,1-.46-.81,9.87,9.87,0,0,1-.71-1.75,20.55,20.55,0,0,1-.8-3.72c-.18-1.48-.21-3-.34-4.45-.16-2-1.49-3.84-3.72-3.22-1.62.46-2.53,2.25-3.19,3.66a42.73,42.73,0,0,0-1.71,4.49q-1.68,5-3.34,9.95a2.29,2.29,0,0,0,1.58,2.79,2.33,2.33,0,0,0,2.79-1.58l5.31-13.31a2.27,2.27,0,0,0-4.37-1.21Z" transform="translate(-23.67 -47.03)" fill="#fff"/><path d="M275.59,186.63a33.25,33.25,0,0,0-4.6,11.15c-.43,2.08-.63,4.41,1.09,6,1.54,1.42,3.81,1.46,5.73,1a10.8,10.8,0,0,0,7.38-7,10.28,10.28,0,0,0-2.4-10.08c-2.94-3.21-8.05-4.47-11.63-1.6a2.27,2.27,0,0,0,0,3.2,2.31,2.31,0,0,0,3.2,0c-.28.22.6-.26.21-.11.07,0,.9-.22.54-.17a5,5,0,0,1,.95,0c.05,0,.44.05.11,0l.57.12a3.23,3.23,0,0,1,1.31.54,7.31,7.31,0,0,1,.66.41c-.27-.19,0,0,.07.06s.34.29.5.45a6.62,6.62,0,0,1,1.53,2.38c.09.28.17.57.24.86,0,.14.06.29.08.44-.06-.39,0,0,0,.06,0,.3,0,.59,0,.89,0,.07,0,.45,0,.07,0,.18-.07.36-.11.54a8.47,8.47,0,0,1-.25.86c0,.05-.19.47-.09.24s-.1.19-.12.24c-.12.23-.25.45-.39.67s-.17.25-.26.37c.22-.31-.19.23-.2.24-.2.22-.41.44-.63.64s-.22.2-.34.29c.08-.06.3-.2-.07.05s-.43.29-.66.42l-.39.21c-.12.06-.47.19-.18.08a6.32,6.32,0,0,1-.84.27c-.11,0-.92.13-.49.11a5.17,5.17,0,0,1-.88,0c.2,0,.23.1,0,0s.07.11-.13-.06.44.41.15.16,0,.14,0-.08a3.68,3.68,0,0,1,0-.47c0-.05.05-.54,0-.29s0-.17,0-.17c.1-.46.19-.92.3-1.38a28.79,28.79,0,0,1,4-9.24,2.27,2.27,0,0,0-3.92-2.29Z" transform="translate(-23.67 -47.03)" fill="#fff"/><path d="M250.68,219.68a25.16,25.16,0,0,0-1.11,5.15c-.16,1.45-.33,3,.46,4.35,1.84,3,5.88,1,8.21-.15,5.19-2.57,9.39-6.71,14.48-9.45l-3.1-.81c.05-.79,0-.92-.27-.4l-.53.84-1.06,1.66-1.86,2.91-4,6.25-8,12.49,4.22,1.14c-.05-.46-.05-.44.23-.82a2.27,2.27,0,0,0-.81-3.1,2.32,2.32,0,0,0-3.1.81,4.49,4.49,0,0,0-.85,3.11,2.28,2.28,0,0,0,4.22,1.14l9-14.15,4.37-6.87c1.33-2.08,3.78-4.74,2.26-7.3a2.31,2.31,0,0,0-3.1-.81,89.8,89.8,0,0,0-9,6.08,44.71,44.71,0,0,1-4.38,2.82,25.09,25.09,0,0,1-2.33,1.14c-.52.21-1.27.66-1.76.45l1,.58c.05.3.07.39.05.27s0-.52,0-.78a14.1,14.1,0,0,1,.16-1.72,21.29,21.29,0,0,1,.9-3.62c.93-2.78-3.44-4-4.37-1.21Z" transform="translate(-23.67 -47.03)" fill="#fff"/><path d="M283,217.41a36.11,36.11,0,0,0-8.1,3.81c-2.51,1.59-5.24,3.52-6.47,6.33a3.17,3.17,0,0,0,1.8,4.5c1.44.43,3.25,0,4.69-.25a26.13,26.13,0,0,0,8.73-3.3l-2.29-3.91a62.2,62.2,0,0,0-8.32,5.93c-1.19,1-2.33,2-3.44,3.12s-2.65,2.42-3.14,4.06a3.39,3.39,0,0,0,2.41,4.35c1.53.38,3.43-.24,4.9-.67a27.21,27.21,0,0,0,8.69-4.36,2.34,2.34,0,0,0,.81-3.1,2.27,2.27,0,0,0-3.1-.81,24.75,24.75,0,0,1-5.31,3.1,22.72,22.72,0,0,1-2.78.94c-.49.13-1,.25-1.49.36a2.48,2.48,0,0,0-.67.12s.11,0,.06,0l.81.81c.45.59-.23.52.16.37.16-.07.36-.4.48-.53.53-.56,1.08-1.11,1.63-1.65q1.61-1.56,3.32-3a56.55,56.55,0,0,1,7.27-5.11c2.5-1.5.22-5.41-2.29-3.91a22,22,0,0,1-5,2.22,22.55,22.55,0,0,1-2.79.65c-.39.07-.79.12-1.18.16l-.72,0q-.75,0,.39.3l.58,1c.13.32-.22.53.16,0,.14-.19.25-.41.4-.6a10,10,0,0,1,1.16-1.18,22.56,22.56,0,0,1,3-2.16,31.34,31.34,0,0,1,6.87-3.26,2.34,2.34,0,0,0,1.59-2.79,2.28,2.28,0,0,0-2.79-1.58Z" transform="translate(-23.67 -47.03)" fill="#fff"/><path d="M295.14,217.62a20.31,20.31,0,0,0-5.76,4.54c-1,1.13-2.13,2.47-1.7,4.1s1.87,2.36,3.24,2.89c2.06.81,4.35.61,6.52.72l.69,0c.05,0,.52.08.26,0s.13,0,.14,0l.66.16.42.13c.13,0,.28.15.07,0,.55.29.32.31.18-.59-.2-1.37,0-.76-.26-.53,0,0,.17-.21,0,0a12.29,12.29,0,0,1-1.24,1.26l-.27.23c-.3.25.21-.14-.11.09s-.51.36-.78.52-.55.33-.83.47c-.09,0-.67.33-.43.22a11.11,11.11,0,0,1-1.8.58,5.94,5.94,0,0,1-1.5.21,2.27,2.27,0,0,0,0,4.54,14.66,14.66,0,0,0,6.95-2.17c2.07-1.3,5.52-4,4.32-6.81-1.07-2.52-4.52-2.93-6.91-3-1.11,0-2.22,0-3.33-.12-.42,0,.13,0-.28,0-.25-.06-.49-.11-.74-.19l-.31-.1c.34.12,0,0-.05,0l-.29-.16-.28-.17.11.08.07.8c-.09.79,0,1,.13.7.08,0,0,0,.16-.22s.44-.53.67-.78a17.58,17.58,0,0,1,1.37-1.36,16.25,16.25,0,0,1,3.22-2.19,2.27,2.27,0,0,0-2.29-3.91Z" transform="translate(-23.67 -47.03)" fill="#fff"/></svg>