<svg id="Layer_4" data-name="Layer 4" xmlns="http://www.w3.org/2000/svg" xmlns:xlink="http://www.w3.org/1999/xlink" width="683.02" height="571.65" viewBox="0 0 683.02 571.65"><defs><clipPath id="clip-path" transform="translate(-207.05 -223.96)"><rect x="335.64" y="308.57" width="437.19" height="409.28" fill="none"/></clipPath></defs><rect x="34.11" y="379.7" width="23.14" height="63.32" fill="#f8edeb"/><rect x="84.15" y="379.7" width="23.14" height="63.32" fill="#f8edeb"/><rect x="134.19" y="379.7" width="23.14" height="63.32" fill="#f8edeb"/><rect x="184.23" y="379.7" width="23.14" height="63.32" fill="#f8edeb"/><rect x="234.27" y="379.7" width="23.14" height="63.32" fill="#f8edeb"/><rect x="284.31" y="379.7" width="23.14" height="63.32" fill="#f8edeb"/><rect x="334.36" y="379.7" width="23.14" height="63.32" fill="#f8edeb"/><rect x="384.4" y="379.7" width="23.14" height="63.32" fill="#f8edeb"/><rect x="434.44" y="379.7" width="23.14" height="63.32" fill="#f8edeb"/><rect x="484.48" y="379.7" width="23.14" height="63.32" fill="#f8edeb"/><rect x="534.52" y="379.7" width="23.14" height="63.32" fill="#f8edeb"/><rect x="584.56" y="379.7" width="23.14" height="63.32" fill="#f8edeb"/><rect x="634.6" y="379.7" width="23.14" height="63.32" fill="#f8edeb"/><rect x="134.19" y="174.23" width="23.14" height="169.93" fill="#e7e7e4"/><rect x="184.23" y="174.23" width="23.14" height="169.93" fill="#e7e7e4"/><rect x="234.27" y="174.23" width="23.14" height="169.93" fill="#e7e7e4"/><rect x="284.31" y="174.23" width="23.14" height="169.93" fill="#e7e7e4"/><rect x="334.36" y="174.23" width="23.14" height="169.93" fill="#e7e7e4"/><rect x="384.4" y="174.23" width="23.14" height="169.93" fill="#e7e7e4"/><rect x="434.44" y="174.23" width="23.14" height="169.93" fill="#e7e7e4"/><rect x="484.48" y="174.23" width="23.14" height="169.93" fill="#e7e7e4"/><rect x="534.52" y="174.23" width="23.14" height="169.93" fill="#e7e7e4"/><polygon points="0 571.65 341.51 0 683.02 571.65 0 571.65"/><path d="M548.56,396.55,742.41,721H354.71L548.56,396.55m0-17.38L339,730H758.12L548.56,379.17Z" transform="translate(-207.05 -223.96)" fill="#fff"/><path d="M548.56,396.55,742.41,721H354.71L548.56,396.55m0-17.38L339,730H758.12L548.56,379.17Z" transform="translate(-207.05 -223.96)" fill="#fff"/><g clip-path="url(#clip-path)"><circle cx="347.19" cy="319.1" r="207.74" fill="#93d1bc"/><circle cx="347.19" cy="319.1" r="176.05" fill="#c96928"/><circle cx="347.19" cy="319.1" r="147.49" fill="#e5f2e2"/><circle cx="347.19" cy="319.1" r="111.52" fill="#fbd5ce"/><circle cx="347.19" cy="319.1" r="74.69" fill="#f8edeb"/><circle cx="347.19" cy="319.1" r="46.39" fill="#e7e7e4"/></g></svg>