<svg xmlns="http://www.w3.org/2000/svg" xmlns:xlink="http://www.w3.org/1999/xlink" width="675.96" height="450.34" viewBox="0 0 675.96 450.34"><defs><clipPath id="a" transform="translate(-213.52 -220.86)"><rect x="315.94" y="191.87" width="473.87" height="499.89" fill="none"/></clipPath></defs><rect y="290.86" width="25.08" height="68.63" fill="#f8edeb"/><rect x="54.24" y="290.86" width="25.08" height="68.63" fill="#f8edeb"/><rect x="108.48" y="290.86" width="25.08" height="68.63" fill="#f8edeb"/><rect x="162.72" y="290.86" width="25.08" height="68.63" fill="#f8edeb"/><rect x="216.96" y="290.86" width="25.08" height="68.63" fill="#f8edeb"/><rect x="271.2" y="290.86" width="25.08" height="68.63" fill="#f8edeb"/><rect x="325.44" y="290.86" width="25.08" height="68.63" fill="#f8edeb"/><rect x="379.68" y="290.86" width="25.08" height="68.63" fill="#f8edeb"/><rect x="433.92" y="290.86" width="25.08" height="68.63" fill="#f8edeb"/><rect x="488.16" y="290.86" width="25.08" height="68.63" fill="#f8edeb"/><rect x="542.4" y="290.86" width="25.08" height="68.63" fill="#f8edeb"/><rect x="596.64" y="290.86" width="25.08" height="68.63" fill="#f8edeb"/><rect x="650.88" y="290.86" width="25.08" height="68.63" fill="#f8edeb"/><rect y="68.14" width="25.08" height="184.19" fill="#e7e7e4"/><rect x="54.24" y="68.14" width="25.08" height="184.19" fill="#e7e7e4"/><rect x="108.48" y="68.14" width="25.08" height="184.19" fill="#e7e7e4"/><rect x="162.72" y="68.14" width="25.08" height="184.19" fill="#e7e7e4"/><rect x="216.96" y="68.14" width="25.08" height="184.19" fill="#e7e7e4"/><rect x="271.2" y="68.14" width="25.08" height="184.19" fill="#e7e7e4"/><rect x="325.44" y="68.14" width="25.08" height="184.19" fill="#e7e7e4"/><rect x="379.68" y="68.14" width="25.08" height="184.19" fill="#e7e7e4"/><rect x="433.92" y="68.14" width="25.08" height="184.19" fill="#e7e7e4"/><rect x="488.16" y="68.14" width="25.08" height="184.19" fill="#e7e7e4"/><rect x="542.4" y="68.14" width="25.08" height="184.19" fill="#e7e7e4"/><rect x="596.64" y="68.14" width="25.08" height="184.19" fill="#e7e7e4"/><rect x="650.88" y="68.14" width="25.08" height="184.19" fill="#e7e7e4"/><path d="M546.72,287.23,756.83,638.94H336.61L546.72,287.23m0-18.84L319.57,648.6H773.86L546.72,268.39Z" transform="translate(-213.52 -220.86)" fill="#fff"/><path d="M546.72,287.23,756.83,638.94H336.61L546.72,287.23m0-18.84L319.57,648.6H773.86L546.72,268.39Z" transform="translate(-213.52 -220.86)" fill="#fff"/><g clip-path="url(#a)"><circle cx="339.35" cy="225.17" r="225.17" fill="#93d1bc"/><circle cx="339.35" cy="225.17" r="190.82" fill="#c96928"/><circle cx="339.35" cy="225.17" r="159.87" fill="#e5f2e2"/><circle cx="339.35" cy="225.17" r="120.88" fill="#fbd5ce"/><circle cx="339.35" cy="225.17" r="80.96" fill="#f8edeb"/><circle cx="339.35" cy="225.17" r="50.28" fill="#e7e7e4"/></g></svg>