<svg xmlns="http://www.w3.org/2000/svg" xmlns:xlink="http://www.w3.org/1999/xlink" width="845.26" height="707.44" viewBox="0 0 845.26 707.44"><defs><clipPath id="a" transform="translate(-124.05 -62.05)"><rect x="232.25" y="72.91" width="642.92" height="601.88" fill="none"/></clipPath></defs><polygon points="0 707.44 422.63 0 845.26 707.44 0 707.44"/><path d="M546.68,275.64,786.57,677.19H306.79L546.68,275.64m0-21.51L287.34,688.23H806L546.68,254.13Z" transform="translate(-124.05 -62.05)" fill="#fff"/><rect x="159.86" y="126.19" width="23.79" height="65.1" fill="#f8edeb"/><rect x="211.3" y="126.19" width="23.79" height="65.1" fill="#f8edeb"/><rect x="262.75" y="126.19" width="23.79" height="65.1" fill="#f8edeb"/><rect x="314.2" y="126.19" width="23.79" height="65.1" fill="#f8edeb"/><rect x="365.64" y="126.19" width="23.79" height="65.1" fill="#f8edeb"/><rect x="417.09" y="126.19" width="23.79" height="65.1" fill="#f8edeb"/><rect x="468.54" y="126.19" width="23.79" height="65.1" fill="#f8edeb"/><rect x="519.98" y="126.19" width="23.79" height="65.1" fill="#f8edeb"/><rect x="571.43" y="126.19" width="23.79" height="65.1" fill="#f8edeb"/><rect x="622.88" y="126.19" width="23.79" height="65.1" fill="#f8edeb"/><rect x="674.32" y="126.19" width="23.79" height="65.1" fill="#f8edeb"/><g clip-path="url(#a)"><circle cx="429.66" cy="355.69" r="305.5" fill="#93d1bc"/><circle cx="429.66" cy="355.69" r="258.89" fill="#c96928"/><circle cx="429.66" cy="355.69" r="216.9" fill="#e5f2e2"/><circle cx="429.66" cy="355.69" r="164" fill="#fbd5ce"/><circle cx="429.66" cy="355.69" r="109.84" fill="#f8edeb"/><circle cx="429.66" cy="355.69" r="68.21" fill="#e7e7e4"/></g></svg>