<svg xmlns="http://www.w3.org/2000/svg" width="576.35" height="323.56" viewBox="0 0 576.35 323.56"><path d="M150.53,238s27.14-107.57,149-107.08c39-2.47,67.61,16.77,79.94,22.7,25.66,12.34,60.69,53.29,70.56,59.21s69.58,47.38,130.27-22.2c0,0-18.25,84.87-100.66,98.69s-117-12.34-131.75-20.23-46.88-41-57.74-49.35S217.14,159.51,150.53,238Z" transform="translate(-3.97 -130.67)"/><path d="M4,399S31.11,291.39,153,291.88c39-2.47,67.6,16.77,79.93,22.7,25.66,12.34,60.7,53.29,70.57,59.21s69.57,47.37,130.27-22.2c0,0-18.26,84.87-100.67,98.69s-116.94-12.34-131.75-20.23-46.87-41-57.73-49.35S70.59,320.5,4,399Z" transform="translate(-3.97 -130.67)"/><path d="M780.23,504.87" transform="translate(-3.97 -130.67)"/></svg>