<svg xmlns="http://www.w3.org/2000/svg" width="303.08" height="316.68" viewBox="0 0 303.08 316.68"><path d="M229.27,342.38c113.45-30.47,115.46-145.33,115.46-145.33s-10.43,70-98.62,60.74c-88.2-15.24-121.48-69.16-121.48-69.16C61.49,85.8,157.11,47.32,157.11,47.32,228.67,23.26,277.38,69,277.38,69s48.11,45.11,16.84,77-77.58.6-77.58.6-39.55-19.85-26.92-60.74c0,0,5.07-12.43,11.29-10.22,3.06,1.09,2,5.45.4,9.48a21.1,21.1,0,0,0-.84,12.71c1.28,5.15,3.72,11.77,8.25,16.3,8.42,8.41,26.56,25.45,54.73,14.43,27.66-10.83,7.81-40.29,7.81-40.29S247.91,59.34,207,63s-45.5,35.68-45.5,35.68-10.43,37.69,41.29,69.56,92,11.42,92,11.42,25.25-10.82,28.26-35.48c3.35-27.48-14.23-59.13-54.52-90.4,0,0-47.11-34.38-115.36-18.14C121.93,41.2,93.77,65,93.77,65l-3.91,3.9S31.51,113,43.19,197s109.6,125,109.6,125,18.58,7.38,15.94,11.9-21.21-1.73-21.21-1.73S88.76,316,65,285.15c0,0,52,85.69,168.65,56.83" transform="translate(-41.64 -31.23)" fill="#010101"/><path d="M280.58,79.39c-16.95-20.94-48.1-28.47-48.1-28.47s-68.16-20-96.22,33.28c-27,51.28,24.46,103,24.46,103s30.46,35.28,93,41.29c65.23,6.27,80.58-40.89,80.58-40.89s10-19.24,4-45.3-24.85-47.71-24.85-47.71c26.06,42.9,13.23,76.57,13.23,76.57s-10,44.1-76.57,40.49c-48.14-2.61-75.05-27.69-89.4-46.9-10.2-13.64-17.51-29.89-18-46.91-.51-16,4.81-38.48,23.65-50.51,37.68-24,78.17-12.83,103.43,8,0,0,20.05,13.63,19.24,38.48,0,5.22,2.41,4.41,2.81,1.61S294.22,96.23,280.58,79.39Z" transform="translate(-41.64 -31.23)" fill="#010101"/></svg>